<svg width="330" height="423" viewBox="0 0 330 423" fill="none" xmlns="http://www.w3.org/2000/svg">
<path d="M73.3319 23.5666V2.6424H77.8183V23.5666H73.3319ZM84.8553 23.5666L76.2204 13.4886V12.7819L85.1318 2.6424H90.6937L80.8912 13.7958L81.0141 12.4439L90.6937 23.5666H84.8553Z" fill="#DA93E2"/>
<path d="M96.8995 23.5666H92.4131V8.54173H96.8995V23.5666ZM92.0136 3.80998C92.0136 3.01111 92.2492 2.36587 92.7204 1.87426C93.2121 1.38265 93.8574 1.13685 94.6563 1.13685C95.4553 1.13685 96.0903 1.38265 96.5615 1.87426C97.0532 2.36587 97.299 3.01111 97.299 3.80998C97.299 4.58836 97.0532 5.22336 96.5615 5.71497C96.0903 6.1861 95.4553 6.42166 94.6563 6.42166C93.8574 6.42166 93.2121 6.1861 92.7204 5.71497C92.2492 5.22336 92.0136 4.58836 92.0136 3.80998Z" fill="#DA93E2"/>
<path d="M108.451 23.9353C107.119 23.9353 105.962 23.6383 104.978 23.0442C104.016 22.4297 103.268 21.5387 102.735 20.3711C102.203 19.2035 101.936 17.7697 101.936 16.0695C101.936 14.4308 102.203 13.0277 102.735 11.8601C103.288 10.672 104.056 9.76051 105.04 9.12552C106.023 8.49052 107.17 8.17302 108.481 8.17302C109.854 8.17302 111.052 8.511 112.077 9.18697C113.122 9.84245 113.931 10.7642 114.504 11.9523C115.098 13.1403 115.395 14.5127 115.395 16.0695C115.395 17.6058 115.098 18.968 114.504 20.156C113.91 21.3441 113.091 22.2761 112.046 22.9521C111.001 23.6075 109.803 23.9353 108.451 23.9353ZM100.154 29.4044V8.54173H103.503L104.64 12.3824H104.364V19.3879H104.64V29.4044H100.154ZM107.621 19.7259C108.543 19.7259 109.301 19.3879 109.895 18.7119C110.51 18.0155 110.817 17.1347 110.817 16.0695C110.817 14.9839 110.51 14.1031 109.895 13.4271C109.301 12.7307 108.543 12.3824 107.621 12.3824C106.72 12.3824 105.962 12.7307 105.347 13.4271C104.733 14.1031 104.425 14.9736 104.425 16.0388C104.425 17.1244 104.733 18.0155 105.347 18.7119C105.962 19.3879 106.72 19.7259 107.621 19.7259Z" fill="#DA93E2"/>
<path d="M120.878 8.54173L122.045 12.6897V23.5666H117.559V8.54173H120.878ZM121.062 15.1785L120.294 14.8405V11.3685L120.57 10.9998C120.816 10.6516 121.164 10.2521 121.615 9.80148C122.086 9.35084 122.629 8.97189 123.244 8.66463C123.879 8.33689 124.524 8.17302 125.18 8.17302C125.507 8.17302 125.805 8.19351 126.071 8.23447C126.337 8.27544 126.552 8.34713 126.716 8.44955V12.5361H125.702C124.391 12.5361 123.356 12.7511 122.598 13.1813C121.861 13.591 121.349 14.2567 121.062 15.1785Z" fill="#DA93E2"/>
<path d="M135.218 23.9353C133.661 23.9353 132.289 23.6075 131.101 22.9521C129.912 22.2761 128.99 21.3441 128.335 20.156C127.679 18.968 127.352 17.6058 127.352 16.0695C127.352 14.5127 127.679 13.1403 128.335 11.9523C128.99 10.7642 129.912 9.84245 131.101 9.18697C132.289 8.511 133.661 8.17302 135.218 8.17302C136.796 8.17302 138.178 8.511 139.367 9.18697C140.555 9.84245 141.477 10.7642 142.132 11.9523C142.808 13.1403 143.146 14.5127 143.146 16.0695C143.146 17.6058 142.808 18.968 142.132 20.156C141.477 21.3441 140.555 22.2761 139.367 22.9521C138.178 23.6075 136.796 23.9353 135.218 23.9353ZM135.218 19.5722C136.222 19.5722 137.031 19.2547 137.646 18.6197C138.281 17.9643 138.598 17.1142 138.598 16.0695C138.598 15.0044 138.281 14.144 137.646 13.4886C137.031 12.8331 136.222 12.5053 135.218 12.5053C134.255 12.5053 133.456 12.8331 132.821 13.4886C132.207 14.1236 131.899 14.9736 131.899 16.0388C131.899 17.1039 132.207 17.9643 132.821 18.6197C133.456 19.2547 134.255 19.5722 135.218 19.5722ZM135.065 6.72892L132.944 4.51667L137.83 0L140.012 2.18152L135.065 6.72892Z" fill="#DA93E2"/>
<path d="M153.554 23.9353C152.243 23.9353 151.096 23.6178 150.113 22.9828C149.129 22.3273 148.361 21.4158 147.808 20.2482C147.276 19.0601 147.009 17.657 147.009 16.0388C147.009 14.3386 147.276 12.9048 147.808 11.7372C148.341 10.5696 149.089 9.68882 150.051 9.09479C151.035 8.48028 152.192 8.17302 153.524 8.17302C154.876 8.17302 156.074 8.511 157.119 9.18697C158.164 9.84245 158.983 10.7642 159.577 11.9523C160.171 13.1403 160.468 14.5025 160.468 16.0388C160.468 17.5751 160.171 18.9475 159.577 20.156C159.004 21.3441 158.195 22.2761 157.15 22.9521C156.125 23.6075 154.927 23.9353 153.554 23.9353ZM145.227 23.5666V2.6424H149.713V12.7204H149.437V19.7259H149.713L148.576 23.5666H145.227ZM152.694 19.7259C153.616 19.7259 154.374 19.3879 154.968 18.7119C155.583 18.0155 155.89 17.1244 155.89 16.0388C155.89 14.9736 155.583 14.1031 154.968 13.4271C154.374 12.7307 153.616 12.3824 152.694 12.3824C151.793 12.3824 151.035 12.7307 150.42 13.4271C149.806 14.1031 149.498 14.9736 149.498 16.0388C149.498 17.1244 149.806 18.0155 150.42 18.7119C151.035 19.3879 151.793 19.7259 152.694 19.7259Z" fill="#DA93E2"/>
<path d="M167.001 23.966C165.915 23.966 164.952 23.7612 164.112 23.3515C163.293 22.9213 162.657 22.3273 162.207 21.5694C161.756 20.8115 161.531 19.9307 161.531 18.927C161.531 17.8618 161.777 16.9606 162.268 16.2231C162.76 15.4652 163.415 14.8815 164.235 14.4718C165.075 14.0621 166.007 13.8573 167.031 13.8573C168.527 13.8573 169.735 14.1953 170.657 14.8712C171.579 15.5472 172.194 16.5202 172.501 17.7902L170.565 17.4522V13.9494C170.565 13.3964 170.37 12.915 169.981 12.5053C169.592 12.0957 168.967 11.8908 168.107 11.8908C167.554 11.8908 166.919 11.9625 166.202 12.1059C165.485 12.2288 164.747 12.4746 163.989 12.8433L162.668 9.64785C163.569 9.19721 164.532 8.83874 165.556 8.57246C166.601 8.30617 167.666 8.17302 168.752 8.17302C170.145 8.17302 171.313 8.41883 172.255 8.91044C173.197 9.40205 173.894 10.0985 174.345 10.9998C174.816 11.9011 175.051 12.9457 175.051 14.1338V23.5666H171.395L170.504 20.6476L172.501 20.0331C172.173 21.2621 171.548 22.2249 170.626 22.9213C169.705 23.6178 168.496 23.966 167.001 23.966ZM168.383 20.7705C169.059 20.7705 169.592 20.5964 169.981 20.2482C170.391 19.9 170.596 19.4596 170.596 18.927C170.596 18.3535 170.391 17.9028 169.981 17.5751C169.592 17.2473 169.059 17.0835 168.383 17.0835C167.707 17.0835 167.175 17.2473 166.785 17.5751C166.396 17.9028 166.202 18.3535 166.202 18.927C166.202 19.4596 166.396 19.9 166.785 20.2482C167.175 20.5964 167.707 20.7705 168.383 20.7705ZM168.598 6.72892L166.478 4.51667L171.364 0L173.546 2.18152L168.598 6.72892Z" fill="#DA93E2"/>
<path d="M182.056 23.7202C181.298 23.7202 180.602 23.5666 179.967 23.2593C179.332 22.9521 178.819 22.4809 178.43 21.8459C178.041 21.1905 177.846 20.3199 177.846 19.2343V2.6424H182.302V17.6365C182.302 18.3944 182.435 18.886 182.702 19.1114C182.988 19.3162 183.347 19.4186 183.777 19.4186V23.5666C183.572 23.6075 183.296 23.6383 182.947 23.6588C182.62 23.6997 182.323 23.7202 182.056 23.7202Z" fill="#DA93E2"/>
<path d="M195.378 8.17302C196.382 8.17302 197.201 8.34713 197.836 8.69536C198.471 9.0231 198.953 9.48398 199.281 10.078C199.629 10.672 199.854 11.348 199.957 12.1059C200.08 12.8433 200.141 13.6115 200.141 14.4103V23.5666H195.655V14.6561C195.655 13.7958 195.501 13.2325 195.194 12.9662C194.886 12.6795 194.477 12.5361 193.965 12.5361C193.534 12.5361 193.084 12.6282 192.613 12.8126C192.162 12.9765 191.721 13.212 191.291 13.5193C190.861 13.8265 190.482 14.1748 190.154 14.564L189.355 12.2903H190.615V23.5666H186.129V8.54173H189.447L190.369 11.5221L188.833 11.3992C189.366 10.8052 189.97 10.2624 190.646 9.77076C191.322 9.27915 192.059 8.88995 192.858 8.60318C193.657 8.31641 194.497 8.17302 195.378 8.17302Z" fill="#DA93E2"/>
<path d="M207.632 23.966C206.546 23.966 205.584 23.7612 204.744 23.3515C203.924 22.9213 203.289 22.3273 202.839 21.5694C202.388 20.8115 202.162 19.9307 202.162 18.927C202.162 17.8618 202.408 16.9606 202.9 16.2231C203.392 15.4652 204.047 14.8815 204.867 14.4718C205.707 14.0621 206.639 13.8573 207.663 13.8573C209.158 13.8573 210.367 14.1953 211.289 14.8712C212.211 15.5472 212.825 16.5202 213.133 17.7902L211.197 17.4522V13.9494C211.197 13.3964 211.002 12.915 210.613 12.5053C210.224 12.0957 209.599 11.8908 208.738 11.8908C208.185 11.8908 207.55 11.9625 206.833 12.1059C206.116 12.2288 205.379 12.4746 204.621 12.8433L203.299 9.64785C204.201 9.19721 205.164 8.83874 206.188 8.57246C207.233 8.30617 208.298 8.17302 209.384 8.17302C210.777 8.17302 211.945 8.41883 212.887 8.91044C213.829 9.40205 214.526 10.0985 214.976 10.9998C215.448 11.9011 215.683 12.9457 215.683 14.1338V23.5666H212.026L211.135 20.6476L213.133 20.0331C212.805 21.2621 212.18 22.2249 211.258 22.9213C210.336 23.6178 209.128 23.966 207.632 23.966ZM209.015 20.7705C209.691 20.7705 210.224 20.5964 210.613 20.2482C211.023 19.9 211.228 19.4596 211.228 18.927C211.228 18.3535 211.023 17.9028 210.613 17.5751C210.224 17.2473 209.691 17.0835 209.015 17.0835C208.339 17.0835 207.806 17.2473 207.417 17.5751C207.028 17.9028 206.833 18.3535 206.833 18.927C206.833 19.4596 207.028 19.9 207.417 20.2482C207.806 20.5964 208.339 20.7705 209.015 20.7705ZM209.23 6.72892L207.11 4.51667L211.996 0L214.177 2.18152L209.23 6.72892Z" fill="#DA93E2"/>
<path d="M222.688 23.7202C221.93 23.7202 221.233 23.5666 220.598 23.2593C219.963 22.9521 219.451 22.4809 219.062 21.8459C218.673 21.1905 218.478 20.3199 218.478 19.2343V2.6424H222.934V17.6365C222.934 18.3944 223.067 18.886 223.333 19.1114C223.62 19.3162 223.979 19.4186 224.409 19.4186V23.5666C224.204 23.6075 223.927 23.6383 223.579 23.6588C223.251 23.6997 222.954 23.7202 222.688 23.7202Z" fill="#DA93E2"/>
<path d="M239.813 23.9353C238.707 23.9353 237.805 23.7714 237.109 23.4437C236.433 23.1159 235.9 22.6653 235.511 22.0917C235.142 21.4977 234.886 20.832 234.743 20.0946C234.62 19.3367 234.558 18.5378 234.558 17.698V8.54173H239.045V17.4522C239.045 18.292 239.219 18.8553 239.567 19.1421C239.915 19.4084 240.346 19.5415 240.858 19.5415C241.309 19.5415 241.749 19.4698 242.179 19.3264C242.609 19.1626 243.029 18.9372 243.439 18.6505C243.849 18.3432 244.218 17.9745 244.545 17.5443L245.314 19.818H244.054V8.54173H248.571V23.5666H245.221L244.299 20.5862L245.836 20.7091C245.344 21.2826 244.771 21.8255 244.115 22.3375C243.48 22.8292 242.804 23.2183 242.087 23.5051C241.37 23.7919 240.612 23.9353 239.813 23.9353ZM241.38 6.72892L239.26 4.51667L244.146 0L246.328 2.18152L241.38 6.72892Z" fill="#DA93E2"/>
<path d="M251.85 29.5581C251.317 29.5581 250.877 29.5171 250.529 29.4352C250.201 29.3532 249.986 29.2918 249.883 29.2508V25.4716C249.986 25.492 250.109 25.5125 250.252 25.533C250.416 25.5535 250.61 25.5637 250.836 25.5637C251.225 25.5637 251.522 25.4204 251.727 25.1336C251.932 24.8673 252.034 24.4986 252.034 24.0275V8.54173H256.521V24.8263C256.521 25.6457 256.357 26.4138 256.029 27.1307C255.722 27.8682 255.22 28.452 254.523 28.8821C253.847 29.3328 252.956 29.5581 251.85 29.5581ZM251.604 3.80998C251.604 3.01111 251.84 2.36587 252.311 1.87426C252.802 1.38265 253.448 1.13685 254.247 1.13685C255.046 1.13685 255.681 1.38265 256.152 1.87426C256.644 2.36587 256.889 3.01111 256.889 3.80998C256.889 4.58836 256.644 5.22336 256.152 5.71497C255.681 6.1861 255.046 6.42166 254.247 6.42166C253.448 6.42166 252.802 6.1861 252.311 5.71497C251.84 5.22336 251.604 4.58836 251.604 3.80998Z" fill="#DA93E2"/>
<path d="M0 60.4374V45.4125H3.31872L4.24058 48.3929L2.70414 48.27C3.21629 47.676 3.80014 47.1331 4.45569 46.6415C5.11124 46.1499 5.82824 45.7607 6.60671 45.474C7.38517 45.1872 8.19437 45.0438 9.03429 45.0438C10.0381 45.0438 10.837 45.2179 11.4311 45.5661C12.0457 45.8939 12.5067 46.3548 12.8139 46.9488C13.1417 47.5428 13.3568 48.2188 13.4592 48.9767C13.5822 49.7141 13.6436 50.4822 13.6436 51.2811V60.4374H9.1572V51.5269C9.1572 50.6666 9.00356 50.1033 8.69627 49.837C8.38898 49.5502 8.00999 49.4068 7.5593 49.4068C6.92424 49.4068 6.29942 49.6014 5.68484 49.9906C5.07026 50.3593 4.51714 50.8407 4.02548 51.4347L3.22653 49.161H4.48642V60.4374H0ZM18.3144 60.4374V51.5269C18.3144 50.6666 18.1608 50.1033 17.8535 49.837C17.5667 49.5502 17.1979 49.4068 16.7472 49.4068C16.0917 49.4068 15.4566 49.6014 14.842 49.9906C14.2275 50.3593 13.6743 50.8407 13.1827 51.4347L11.8613 48.27C12.394 47.676 12.9881 47.1331 13.6436 46.6415C14.2992 46.1499 15.0059 45.7607 15.7639 45.474C16.5424 45.1872 17.3516 45.0438 18.1915 45.0438C19.1953 45.0438 20.0045 45.2179 20.6191 45.5661C21.2337 45.8939 21.6946 46.3548 22.0019 46.9488C22.3092 47.5428 22.5243 48.2188 22.6472 48.9767C22.7701 49.7141 22.8316 50.4822 22.8316 51.2811V60.4374H18.3144Z" fill="#DA93E2"/>
<path d="M32.2948 60.7139C30.7994 60.7139 29.478 60.3964 28.3308 59.7614C27.2041 59.1264 26.3232 58.2251 25.6881 57.0575C25.0736 55.89 24.7663 54.5175 24.7663 52.9403C24.7663 51.3835 25.0736 50.0111 25.6881 48.8231C26.3232 47.635 27.2041 46.7132 28.3308 46.0577C29.478 45.3818 30.7994 45.0438 32.2948 45.0438C33.8313 45.0438 35.1629 45.392 36.2896 46.0885C37.4163 46.7849 38.287 47.7272 38.9016 48.9152C39.5161 50.0828 39.8234 51.404 39.8234 52.8788C39.8234 53.1451 39.8132 53.4012 39.7927 53.647C39.7722 53.8928 39.7517 54.0874 39.7312 54.2308H28.2694V51.0353H36.2896L35.7672 52.3565C35.7672 51.2299 35.4804 50.3081 34.9068 49.5912C34.3537 48.8743 33.4933 48.5158 32.3256 48.5158C31.2808 48.5158 30.4409 48.8333 29.8058 49.4683C29.1912 50.1033 28.8839 50.9431 28.8839 51.9878V53.6777C28.8839 54.8043 29.2015 55.6851 29.8365 56.3201C30.4921 56.9346 31.3935 57.2419 32.5407 57.2419C33.5035 57.2419 34.2615 57.0473 34.8146 56.6581C35.3882 56.2689 35.8696 55.7875 36.2589 55.214L39.301 56.9039C38.6455 58.1124 37.7236 59.0547 36.5354 59.7307C35.3472 60.3861 33.9337 60.7139 32.2948 60.7139Z" fill="#DA93E2"/>
<path d="M51.3215 45.0438C52.3253 45.0438 53.1448 45.2179 53.7798 45.5661C54.4149 45.8939 54.8963 46.3548 55.2241 46.9488C55.5724 47.5428 55.7977 48.2188 55.9001 48.9767C56.0231 49.7141 56.0845 50.4822 56.0845 51.2811V60.4374H51.5981V51.5269C51.5981 50.6666 51.4445 50.1033 51.1372 49.837C50.8299 49.5502 50.4202 49.4068 49.908 49.4068C49.4778 49.4068 49.0271 49.499 48.5559 49.6834C48.1052 49.8472 47.6648 50.0828 47.2346 50.3901C46.8044 50.6973 46.4254 51.0455 46.0976 51.4347L45.2987 49.161H46.5586V60.4374H42.0721V45.4125H45.3909L46.3127 48.3929L44.7763 48.27C45.3089 47.676 45.9133 47.1331 46.5893 46.6415C47.2653 46.1499 48.0028 45.7607 48.8018 45.474C49.6007 45.1872 50.4406 45.0438 51.3215 45.0438Z" fill="#DA93E2"/>
<path d="M64.4975 60.8982C63.2888 60.8982 62.1519 60.6627 61.0866 60.1915C60.0418 59.7204 59.0892 58.9113 58.2288 57.7642L60.7793 55.3062C61.4758 56.0231 62.1416 56.5352 62.7767 56.8424C63.4117 57.1497 64.1083 57.3033 64.8662 57.3033C65.3169 57.3033 65.6754 57.2112 65.9418 57.0268C66.2286 56.822 66.372 56.5762 66.372 56.2894C66.372 56.0436 66.29 55.8387 66.1261 55.6749C65.9622 55.511 65.655 55.3471 65.2043 55.1833C64.7536 55.0194 64.098 54.8248 63.2376 54.5995C61.6602 54.2103 60.4823 53.647 59.7038 52.9096C58.9458 52.1517 58.5668 51.148 58.5668 49.8985C58.5668 48.9972 58.8024 48.1778 59.2736 47.4404C59.7448 46.6825 60.4208 46.0782 61.3017 45.6276C62.1826 45.1769 63.2274 44.9516 64.436 44.9516C65.8701 44.9516 67.089 45.2282 68.0928 45.7812C69.0966 46.3138 69.9263 46.9693 70.5818 47.7477L67.8162 50.1135C67.3655 49.7039 66.8227 49.3556 66.1876 49.0689C65.5525 48.7821 64.8355 48.6387 64.0366 48.6387C63.6064 48.6387 63.2376 48.7206 62.9303 48.8845C62.623 49.0484 62.4694 49.2942 62.4694 49.6219C62.4694 49.9292 62.6538 50.1852 63.0225 50.3901C63.3913 50.5949 64.1288 50.8305 65.235 51.0968C67.0992 51.5474 68.4308 52.1517 69.2297 52.9096C70.0492 53.6675 70.4589 54.6814 70.4589 55.9514C70.4589 56.9346 70.2028 57.8052 69.6907 58.5631C69.1785 59.3005 68.4718 59.874 67.5704 60.2837C66.669 60.6934 65.6447 60.8982 64.4975 60.8982Z" fill="#DA93E2"/>
<path d="M79.5907 60.6832C77.9313 60.6832 76.6202 60.2735 75.6574 59.4541C74.715 58.6348 74.2438 57.2931 74.2438 55.4291V45.5969L74.1824 45.4125L75.1042 41.7869H78.7302V54.4458C78.7302 55.1423 78.8941 55.6442 79.2219 55.9514C79.5497 56.2382 79.9799 56.3816 80.5125 56.3816C80.8198 56.3816 81.1066 56.3611 81.3729 56.3201C81.6597 56.2587 81.8953 56.1972 82.0797 56.1358V60.3452C81.7314 60.4476 81.3525 60.5295 80.9427 60.591C80.5535 60.6524 80.1028 60.6832 79.5907 60.6832ZM71.9084 49.5297V45.4125H82.0797V49.5297H71.9084Z" fill="#DA93E2"/>
<path d="M88.3933 45.4125L89.561 49.5605V60.4374H85.0746V45.4125H88.3933ZM88.5777 52.0493L87.8094 51.7113V48.2393L88.086 47.8706C88.3318 47.5223 88.6801 47.1229 89.1308 46.6723C89.6019 46.2216 90.1448 45.8427 90.7594 45.5354C91.3945 45.2077 92.0398 45.0438 92.6953 45.0438C93.0231 45.0438 93.3201 45.0643 93.5865 45.1053C93.8528 45.1462 94.0679 45.2179 94.2318 45.3203V49.4068H93.2177C91.9066 49.4068 90.8721 49.6219 90.1141 50.0521C89.3766 50.4618 88.8645 51.1275 88.5777 52.0493Z" fill="#DA93E2"/>
<path d="M101.368 60.8061C100.262 60.8061 99.3604 60.6422 98.6639 60.3145C97.9879 59.9867 97.4553 59.5361 97.066 58.9625C96.6973 58.3685 96.4412 57.7028 96.2978 56.9654C96.1749 56.2075 96.1134 55.4086 96.1134 54.5688V45.4125H100.6V54.3229C100.6 55.1628 100.774 55.7261 101.122 56.0129C101.47 56.2791 101.901 56.4123 102.413 56.4123C102.864 56.4123 103.304 56.3406 103.734 56.1972C104.164 56.0333 104.584 55.808 104.994 55.5212C105.404 55.214 105.773 54.8453 106.1 54.4151L106.869 56.6888H105.609V45.4125H110.126V60.4374H106.776L105.854 57.457L107.391 57.5799C106.899 58.1534 106.326 58.6962 105.67 59.2083C105.035 59.6999 104.359 60.0891 103.642 60.3759C102.925 60.6627 102.167 60.8061 101.368 60.8061Z" fill="#DA93E2"/>
<path d="M117.771 60.8368C116.686 60.8368 115.723 60.6319 114.883 60.2223C114.063 59.7921 113.428 59.1981 112.978 58.4402C112.527 57.6823 112.302 56.8015 112.302 55.7978C112.302 54.7326 112.547 53.8313 113.039 53.0939C113.531 52.336 114.186 51.7522 115.006 51.3426C115.846 50.9329 116.778 50.728 117.802 50.728C119.297 50.728 120.506 51.066 121.428 51.742C122.35 52.418 122.964 53.3909 123.272 54.6609L121.336 54.3229V50.8202C121.336 50.2672 121.141 49.7858 120.752 49.3761C120.363 48.9664 119.738 48.7616 118.878 48.7616C118.324 48.7616 117.689 48.8333 116.972 48.9767C116.255 49.0996 115.518 49.3454 114.76 49.7141L113.439 46.5186C114.34 46.068 115.303 45.7095 116.327 45.4432C117.372 45.1769 118.437 45.0438 119.523 45.0438C120.916 45.0438 122.084 45.2896 123.026 45.7812C123.968 46.2728 124.665 46.9693 125.115 47.8706C125.587 48.7718 125.822 49.8165 125.822 51.0046V60.4374H122.166L121.274 57.5184L123.272 56.9039C122.944 58.1329 122.319 59.0957 121.397 59.7921C120.475 60.4886 119.267 60.8368 117.771 60.8368ZM119.154 57.6413C119.83 57.6413 120.363 57.4672 120.752 57.119C121.162 56.7708 121.367 56.3304 121.367 55.7978C121.367 55.2242 121.162 54.7736 120.752 54.4458C120.363 54.1181 119.83 53.9542 119.154 53.9542C118.478 53.9542 117.945 54.1181 117.556 54.4458C117.167 54.7736 116.972 55.2242 116.972 55.7978C116.972 56.3304 117.167 56.7708 117.556 57.119C117.945 57.4672 118.478 57.6413 119.154 57.6413ZM119.369 43.5997L117.249 41.3874L122.135 36.8708L124.317 39.0523L119.369 43.5997Z" fill="#DA93E2"/>
<path d="M135.588 60.8061C134.052 60.8061 132.7 60.4681 131.532 59.7921C130.385 59.1162 129.494 58.1841 128.859 56.9961C128.224 55.808 127.906 54.4458 127.906 52.9096C127.906 51.3733 128.224 50.0214 128.859 48.8538C129.494 47.6657 130.385 46.7337 131.532 46.0577C132.7 45.3818 134.052 45.0438 135.588 45.0438C137.268 45.0438 138.723 45.4535 139.952 46.2728C141.181 47.0922 142.062 48.1983 142.594 49.5912L138.538 51.404C138.251 50.769 137.872 50.2774 137.401 49.9292C136.93 49.5605 136.336 49.3761 135.619 49.3761C134.718 49.3761 133.96 49.6936 133.345 50.3286C132.73 50.9431 132.423 51.8034 132.423 52.9096C132.423 54.0157 132.73 54.8862 133.345 55.5212C133.96 56.1358 134.718 56.443 135.619 56.443C136.336 56.443 136.93 56.2689 137.401 55.9207C137.872 55.5725 138.251 55.0808 138.538 54.4458L142.594 56.2279C142.062 57.6208 141.171 58.7372 139.921 59.577C138.671 60.3964 137.227 60.8061 135.588 60.8061Z" fill="#DA93E2"/>
<path d="M149.04 60.4374H144.553V45.4125H149.04V60.4374ZM144.154 40.6808C144.154 39.8819 144.389 39.2367 144.86 38.745C145.352 38.2534 145.997 38.0076 146.796 38.0076C147.595 38.0076 148.23 38.2534 148.702 38.745C149.193 39.2367 149.439 39.8819 149.439 40.6808C149.439 41.4591 149.193 42.0941 148.702 42.5857C148.23 43.0569 147.595 43.2924 146.796 43.2924C145.997 43.2924 145.352 43.0569 144.86 42.5857C144.389 42.0941 144.154 41.4591 144.154 40.6808Z" fill="#DA93E2"/>
<path d="M159.3 60.8061C157.743 60.8061 156.371 60.4783 155.182 59.8228C153.994 59.1469 153.072 58.2149 152.417 57.0268C151.761 55.8387 151.434 54.4766 151.434 52.9403C151.434 51.3835 151.761 50.0111 152.417 48.8231C153.072 47.635 153.994 46.7132 155.182 46.0577C156.371 45.3818 157.743 45.0438 159.3 45.0438C160.878 45.0438 162.26 45.3818 163.449 46.0577C164.637 46.7132 165.559 47.635 166.214 48.8231C166.89 50.0111 167.228 51.3835 167.228 52.9403C167.228 54.4766 166.89 55.8387 166.214 57.0268C165.559 58.2149 164.637 59.1469 163.449 59.8228C162.26 60.4783 160.878 60.8061 159.3 60.8061ZM159.3 56.443C160.304 56.443 161.113 56.1255 161.728 55.4905C162.363 54.835 162.68 53.985 162.68 52.9403C162.68 51.8751 162.363 51.0148 161.728 50.3593C161.113 49.7039 160.304 49.3761 159.3 49.3761C158.337 49.3761 157.538 49.7039 156.903 50.3593C156.289 50.9943 155.981 51.8444 155.981 52.9096C155.981 53.9747 156.289 54.835 156.903 55.4905C157.538 56.1255 158.337 56.443 159.3 56.443ZM159.147 43.5997L157.026 41.3874L161.912 36.8708L164.094 39.0523L159.147 43.5997Z" fill="#DA93E2"/>
<path d="M174.929 60.8982C173.721 60.8982 172.584 60.6627 171.518 60.1915C170.474 59.7204 169.521 58.9113 168.661 57.7642L171.211 55.3062C171.908 56.0231 172.574 56.5352 173.209 56.8424C173.844 57.1497 174.54 57.3033 175.298 57.3033C175.749 57.3033 176.107 57.2112 176.374 57.0268C176.66 56.822 176.804 56.5762 176.804 56.2894C176.804 56.0436 176.722 55.8387 176.558 55.6749C176.394 55.511 176.087 55.3471 175.636 55.1833C175.185 55.0194 174.53 54.8248 173.67 54.5995C172.092 54.2103 170.914 53.647 170.136 52.9096C169.378 52.1517 168.999 51.148 168.999 49.8985C168.999 48.9972 169.234 48.1778 169.705 47.4404C170.177 46.6825 170.853 46.0782 171.734 45.6276C172.614 45.1769 173.659 44.9516 174.868 44.9516C176.302 44.9516 177.521 45.2282 178.525 45.7812C179.528 46.3138 180.358 46.9693 181.014 47.7477L178.248 50.1135C177.797 49.7039 177.255 49.3556 176.619 49.0689C175.984 48.7821 175.267 48.6387 174.468 48.6387C174.038 48.6387 173.669 48.7206 173.362 48.8845C173.055 49.0484 172.901 49.2942 172.901 49.6219C172.901 49.9292 173.086 50.1852 173.454 50.3901C173.823 50.5949 174.561 50.8305 175.667 51.0968C177.531 51.5474 178.863 52.1517 179.662 52.9096C180.481 53.6675 180.891 54.6814 180.891 55.9514C180.891 56.9346 180.635 57.8052 180.123 58.5631C179.61 59.3005 178.904 59.874 178.002 60.2837C177.101 60.6934 176.077 60.8982 174.929 60.8982Z" fill="#DA93E2"/>
<path d="M198.005 60.6832C196.345 60.6832 195.034 60.2735 194.072 59.4541C193.129 58.6348 192.658 57.2931 192.658 55.4291V45.5969L192.597 45.4125L193.518 41.7869H197.144V54.4458C197.144 55.1423 197.308 55.6442 197.636 55.9514C197.964 56.2382 198.394 56.3816 198.927 56.3816C199.234 56.3816 199.521 56.3611 199.787 56.3201C200.074 56.2587 200.31 56.1972 200.494 56.1358V60.3452C200.146 60.4476 199.767 60.5295 199.357 60.591C198.968 60.6524 198.517 60.6832 198.005 60.6832ZM190.323 49.5297V45.4125H200.494V49.5297H190.323Z" fill="#DA93E2"/>
<path d="M209.916 60.7139C208.421 60.7139 207.099 60.3964 205.952 59.7614C204.825 59.1264 203.944 58.2251 203.309 57.0575C202.695 55.89 202.388 54.5175 202.388 52.9403C202.388 51.3835 202.695 50.0111 203.309 48.8231C203.944 47.635 204.825 46.7132 205.952 46.0577C207.099 45.3818 208.421 45.0438 209.916 45.0438C211.453 45.0438 212.784 45.392 213.911 46.0885C215.038 46.7849 215.908 47.7272 216.523 48.9152C217.137 50.0828 217.445 51.404 217.445 52.8788C217.445 53.1451 217.434 53.4012 217.414 53.647C217.393 53.8928 217.373 54.0874 217.353 54.2308H205.891V51.0353H213.911L213.388 52.3565C213.388 51.2299 213.102 50.3081 212.528 49.5912C211.975 48.8743 211.115 48.5158 209.947 48.5158C208.902 48.5158 208.062 48.8333 207.427 49.4683C206.813 50.1033 206.505 50.9431 206.505 51.9878V53.6777C206.505 54.8043 206.823 55.6851 207.458 56.3201C208.113 56.9346 209.015 57.2419 210.162 57.2419C211.125 57.2419 211.883 57.0473 212.436 56.6581C213.01 56.2689 213.491 55.7875 213.88 55.214L216.922 56.9039C216.267 58.1124 215.345 59.0547 214.157 59.7307C212.969 60.3861 211.555 60.7139 209.916 60.7139Z" fill="#DA93E2"/>
<path d="M223.012 45.4125L224.18 49.5605V60.4374H219.693V45.4125H223.012ZM223.197 52.0493L222.428 51.7113V48.2393L222.705 47.8706C222.951 47.5223 223.299 47.1229 223.75 46.6723C224.221 46.2216 224.764 45.8427 225.378 45.5354C226.013 45.2077 226.659 45.0438 227.314 45.0438C227.642 45.0438 227.939 45.0643 228.205 45.1053C228.472 45.1462 228.687 45.2179 228.851 45.3203V49.4068H227.837C226.525 49.4068 225.491 49.6219 224.733 50.0521C223.995 50.4618 223.483 51.1275 223.197 52.0493Z" fill="#DA93E2"/>
<path d="M230.977 60.4374V45.4125H234.295L235.217 48.3929L233.681 48.27C234.193 47.676 234.777 47.1331 235.432 46.6415C236.088 46.1499 236.805 45.7607 237.583 45.474C238.362 45.1872 239.171 45.0438 240.011 45.0438C241.015 45.0438 241.814 45.2179 242.408 45.5661C243.022 45.8939 243.483 46.3548 243.791 46.9488C244.118 47.5428 244.333 48.2188 244.436 48.9767C244.559 49.7141 244.62 50.4822 244.62 51.2811V60.4374H240.134V51.5269C240.134 50.6666 239.98 50.1033 239.673 49.837C239.366 49.5502 238.987 49.4068 238.536 49.4068C237.901 49.4068 237.276 49.6014 236.662 49.9906C236.047 50.3593 235.494 50.8407 235.002 51.4347L234.203 49.161H235.463V60.4374H230.977ZM249.291 60.4374V51.5269C249.291 50.6666 249.137 50.1033 248.83 49.837C248.543 49.5502 248.175 49.4068 247.724 49.4068C247.068 49.4068 246.433 49.6014 245.819 49.9906C245.204 50.3593 244.651 50.8407 244.159 51.4347L242.838 48.27C243.371 47.676 243.965 47.1331 244.62 46.6415C245.276 46.1499 245.983 45.7607 246.741 45.474C247.519 45.1872 248.328 45.0438 249.168 45.0438C250.172 45.0438 250.981 45.2179 251.596 45.5661C252.21 45.8939 252.671 46.3548 252.979 46.9488C253.286 47.5428 253.501 48.2188 253.624 48.9767C253.747 49.7141 253.808 50.4822 253.808 51.2811V60.4374H249.291Z" fill="#DA93E2"/>
<path d="M263.272 60.7139C261.776 60.7139 260.455 60.3964 259.308 59.7614C258.181 59.1264 257.3 58.2251 256.665 57.0575C256.05 55.89 255.743 54.5175 255.743 52.9403C255.743 51.3835 256.05 50.0111 256.665 48.8231C257.3 47.635 258.181 46.7132 259.308 46.0577C260.455 45.3818 261.776 45.0438 263.272 45.0438C264.808 45.0438 266.14 45.392 267.266 46.0885C268.393 46.7849 269.264 47.7272 269.878 48.9152C270.493 50.0828 270.8 51.404 270.8 52.8788C270.8 53.1451 270.79 53.4012 270.769 53.647C270.749 53.8928 270.728 54.0874 270.708 54.2308H259.246V51.0353H267.266L266.744 52.3565C266.744 51.2299 266.457 50.3081 265.883 49.5912C265.33 48.8743 264.47 48.5158 263.302 48.5158C262.257 48.5158 261.418 48.8333 260.782 49.4683C260.168 50.1033 259.861 50.9431 259.861 51.9878V53.6777C259.861 54.8043 260.178 55.6851 260.813 56.3201C261.469 56.9346 262.37 57.2419 263.517 57.2419C264.48 57.2419 265.238 57.0473 265.791 56.6581C266.365 56.2689 266.846 55.7875 267.236 55.214L270.278 56.9039C269.622 58.1124 268.7 59.0547 267.512 59.7307C266.324 60.3861 264.91 60.7139 263.272 60.7139ZM263.118 43.5997L260.998 41.3874L265.883 36.8708L268.065 39.0523L263.118 43.5997Z" fill="#DA93E2"/>
<path d="M276.152 52.8788V52.2951L282.298 45.4125H287.338L280.516 53.1246L280.393 51.6498L287.491 60.4374H282.267L276.152 52.8788ZM273.049 39.5132H277.505V60.4374H273.049V39.5132Z" fill="#DA93E2"/>
<path d="M294.451 60.7139C292.955 60.7139 291.634 60.3964 290.487 59.7614C289.36 59.1264 288.479 58.2251 287.844 57.0575C287.229 55.89 286.922 54.5175 286.922 52.9403C286.922 51.3835 287.229 50.0111 287.844 48.8231C288.479 47.635 289.36 46.7132 290.487 46.0577C291.634 45.3818 292.955 45.0438 294.451 45.0438C295.987 45.0438 297.319 45.392 298.445 46.0885C299.572 46.7849 300.443 47.7272 301.057 48.9152C301.672 50.0828 301.979 51.404 301.979 52.8788C301.979 53.1451 301.969 53.4012 301.948 53.647C301.928 53.8928 301.907 54.0874 301.887 54.2308H290.425V51.0353H298.445L297.923 52.3565C297.923 51.2299 297.636 50.3081 297.062 49.5912C296.509 48.8743 295.649 48.5158 294.481 48.5158C293.436 48.5158 292.597 48.8333 291.961 49.4683C291.347 50.1033 291.04 50.9431 291.04 51.9878V53.6777C291.04 54.8043 291.357 55.6851 291.992 56.3201C292.648 56.9346 293.549 57.2419 294.696 57.2419C295.659 57.2419 296.417 57.0473 296.97 56.6581C297.544 56.2689 298.025 55.7875 298.415 55.214L301.457 56.9039C300.801 58.1124 299.879 59.0547 298.691 59.7307C297.503 60.3861 296.089 60.7139 294.451 60.7139Z" fill="#DA93E2"/>
<path d="M310.897 60.6832C309.238 60.6832 307.927 60.2735 306.964 59.4541C306.022 58.6348 305.551 57.2931 305.551 55.4291V45.5969L305.489 45.4125L306.411 41.7869H310.037V54.4458C310.037 55.1423 310.201 55.6442 310.529 55.9514C310.856 56.2382 311.287 56.3816 311.819 56.3816C312.127 56.3816 312.413 56.3611 312.68 56.3201C312.967 56.2587 313.202 56.1972 313.386 56.1358V60.3452C313.038 60.4476 312.659 60.5295 312.25 60.591C311.86 60.6524 311.41 60.6832 310.897 60.6832ZM303.215 49.5297V45.4125H313.386V49.5297H303.215Z" fill="#DA93E2"/>
<path d="M322.01 53.8928L319.767 50.4515L321.888 49.0074C322.768 48.4134 323.465 47.9115 323.977 47.5019C324.489 47.0717 324.858 46.662 325.083 46.2728C325.309 45.8631 325.421 45.4125 325.421 44.9209C325.421 44.3064 325.206 43.8045 324.776 43.4153C324.346 43.0057 323.803 42.8008 323.147 42.8008C322.594 42.8008 322 42.9442 321.365 43.231C320.73 43.4973 319.982 44.0299 319.122 44.8287L318.139 45.689L315.404 42.4321L316.08 41.7869C317.043 40.7832 318.118 39.9741 319.306 39.3596C320.495 38.745 321.806 38.4378 323.24 38.4378C324.612 38.4378 325.8 38.7143 326.804 39.2674C327.828 39.8204 328.617 40.5783 329.17 41.5411C329.723 42.4833 330 43.5382 330 44.7058C330 45.689 329.826 46.5903 329.478 47.4097C329.15 48.229 328.597 49.0177 327.818 49.7756C327.04 50.5335 326.005 51.3221 324.715 52.1414L322.01 53.8928ZM322.779 60.6524C321.98 60.6524 321.293 60.3759 320.72 59.8228C320.167 59.2698 319.89 58.5938 319.89 57.7949C319.89 56.9961 320.167 56.3201 320.72 55.7671C321.293 55.1935 321.98 54.9067 322.779 54.9067C323.578 54.9067 324.254 55.1935 324.807 55.7671C325.38 56.3201 325.667 56.9961 325.667 57.7949C325.667 58.5938 325.38 59.2698 324.807 59.8228C324.254 60.3759 323.578 60.6524 322.779 60.6524Z" fill="#DA93E2"/>
<path d="M165.583 94.2356C198.538 94.2356 230.733 104.139 257.99 122.66C285.246 141.182 306.306 167.467 318.438 198.105C330.57 228.742 333.212 262.319 326.023 294.477C318.835 326.635 302.146 355.89 278.123 378.447L165.583 258.618V94.2356Z" fill="#6165E5"/>
<path d="M279.785 376.864C251.292 404.376 213.824 420.678 174.27 422.77L165.583 258.618L279.785 376.864Z" fill="#DA93E2"/>
<path d="M174.187 422.775C152.194 423.927 130.192 420.649 109.49 413.136C88.7879 405.622 69.8066 394.025 53.6732 379.035C37.5397 364.044 24.5831 345.965 15.5725 325.871C6.56194 305.777 1.68117 284.077 1.21996 262.06C0.758747 240.043 4.72651 218.158 12.8877 197.705C21.0488 177.251 33.237 158.645 48.7285 142.992C64.22 127.339 82.6991 114.958 103.069 106.584C123.438 98.2102 145.283 94.0139 167.305 94.2446L165.583 258.618L174.187 422.775Z" fill="#F1C768"/>
<path d="M229.779 231.322C227.975 231.322 226.413 231.003 225.093 230.365C223.795 229.705 222.607 228.727 221.53 227.429L224.598 224.492C225.28 225.218 225.995 225.757 226.743 226.109C227.491 226.461 228.327 226.637 229.251 226.637C230.329 226.637 231.154 226.395 231.726 225.911C232.32 225.427 232.617 224.8 232.617 224.03C232.617 223.37 232.43 222.843 232.056 222.447C231.704 222.029 231.209 221.732 230.571 221.556C229.933 221.358 229.196 221.259 228.36 221.259C228.096 221.259 227.821 221.27 227.535 221.292C227.249 221.292 226.952 221.314 226.644 221.358V217.168C226.996 217.212 227.282 217.245 227.502 217.267C227.722 217.267 227.942 217.267 228.162 217.267C229.328 217.267 230.219 217.058 230.835 216.64C231.451 216.222 231.759 215.628 231.759 214.858C231.759 214.198 231.528 213.681 231.066 213.307C230.626 212.933 229.999 212.746 229.185 212.746C228.393 212.746 227.656 212.944 226.974 213.34C226.292 213.714 225.621 214.286 224.961 215.056L221.859 211.954C223.047 210.569 224.246 209.579 225.456 208.985C226.688 208.369 228.096 208.061 229.68 208.061C231.11 208.061 232.342 208.325 233.376 208.853C234.41 209.381 235.191 210.096 235.719 210.998C236.269 211.899 236.544 212.933 236.544 214.099C236.544 215.947 235.884 217.432 234.564 218.553C233.244 219.653 231.396 220.203 229.02 220.203L229.053 218.058C230.747 218.058 232.232 218.311 233.508 218.817C234.784 219.301 235.763 220.027 236.444 220.995C237.148 221.963 237.5 223.14 237.5 224.525C237.5 225.779 237.192 226.923 236.576 227.957C235.983 228.969 235.103 229.782 233.937 230.398C232.793 231.014 231.407 231.322 229.779 231.322Z" fill="#3D4091"/>
<path d="M247.54 231.322C245.824 231.322 244.372 231.036 243.184 230.464C242.018 229.892 241.138 229.1 240.544 228.089C239.951 227.077 239.654 225.933 239.654 224.657C239.654 223.689 239.874 222.788 240.313 221.952C240.775 221.094 241.435 220.357 242.293 219.741C243.151 219.103 244.185 218.641 245.395 218.355L245.362 220.401C244.218 220.093 243.261 219.631 242.491 219.015C241.721 218.377 241.138 217.662 240.742 216.871C240.346 216.057 240.149 215.232 240.149 214.396C240.149 213.23 240.423 212.174 240.973 211.229C241.545 210.261 242.37 209.491 243.448 208.919C244.548 208.347 245.912 208.061 247.54 208.061C249.168 208.061 250.521 208.347 251.599 208.919C252.699 209.491 253.524 210.261 254.074 211.229C254.623 212.174 254.898 213.23 254.898 214.396C254.898 215.188 254.723 215.98 254.371 216.772C254.019 217.541 253.48 218.245 252.754 218.883C252.028 219.499 251.126 219.972 250.048 220.302L249.982 218.454C251.17 218.74 252.16 219.202 252.952 219.84C253.766 220.456 254.382 221.182 254.799 222.018C255.217 222.854 255.426 223.733 255.426 224.657C255.426 225.933 255.129 227.077 254.536 228.089C253.942 229.1 253.051 229.892 251.863 230.464C250.697 231.036 249.256 231.322 247.54 231.322ZM247.54 226.802C248.464 226.802 249.19 226.56 249.718 226.076C250.268 225.592 250.543 224.943 250.543 224.129C250.543 223.293 250.268 222.634 249.718 222.15C249.19 221.644 248.464 221.391 247.54 221.391C246.616 221.391 245.879 221.644 245.329 222.15C244.801 222.634 244.537 223.293 244.537 224.129C244.537 224.943 244.801 225.592 245.329 226.076C245.879 226.56 246.616 226.802 247.54 226.802ZM247.54 216.937C248.31 216.937 248.926 216.728 249.388 216.31C249.872 215.892 250.114 215.364 250.114 214.726C250.114 214.088 249.872 213.571 249.388 213.175C248.926 212.779 248.31 212.581 247.54 212.581C246.77 212.581 246.143 212.779 245.659 213.175C245.197 213.571 244.966 214.088 244.966 214.726C244.966 215.364 245.197 215.892 245.659 216.31C246.143 216.728 246.77 216.937 247.54 216.937Z" fill="#3D4091"/>
<path d="M261.888 231.388L258.984 229.21L276.836 208.556L279.739 210.767L261.888 231.388ZM262.779 219.279C261.767 219.279 260.832 219.037 259.974 218.553C259.138 218.047 258.467 217.388 257.961 216.574C257.455 215.738 257.202 214.825 257.202 213.835C257.202 212.801 257.455 211.877 257.961 211.064C258.467 210.25 259.138 209.601 259.974 209.117C260.832 208.633 261.767 208.391 262.779 208.391C263.812 208.391 264.747 208.644 265.583 209.15C266.441 209.634 267.112 210.283 267.596 211.097C268.102 211.91 268.355 212.823 268.355 213.835C268.355 214.825 268.102 215.738 267.596 216.574C267.09 217.388 266.419 218.047 265.583 218.553C264.747 219.037 263.812 219.279 262.779 219.279ZM262.779 215.617C263.306 215.617 263.735 215.452 264.065 215.122C264.417 214.792 264.593 214.363 264.593 213.835C264.593 213.307 264.417 212.878 264.065 212.548C263.735 212.196 263.306 212.02 262.779 212.02C262.251 212.02 261.822 212.196 261.492 212.548C261.162 212.878 260.997 213.307 260.997 213.835C260.997 214.363 261.162 214.792 261.492 215.122C261.822 215.452 262.251 215.617 262.779 215.617ZM276.11 231.355C275.098 231.355 274.163 231.113 273.305 230.629C272.469 230.145 271.798 229.496 271.292 228.683C270.786 227.847 270.533 226.934 270.533 225.944C270.533 224.91 270.786 223.986 271.292 223.172C271.798 222.337 272.469 221.677 273.305 221.193C274.163 220.709 275.098 220.467 276.11 220.467C277.144 220.467 278.078 220.709 278.914 221.193C279.772 221.677 280.443 222.337 280.927 223.172C281.433 224.008 281.686 224.932 281.686 225.944C281.686 226.934 281.433 227.847 280.927 228.683C280.421 229.496 279.75 230.145 278.914 230.629C278.078 231.113 277.144 231.355 276.11 231.355ZM276.11 227.726C276.638 227.726 277.067 227.561 277.396 227.231C277.748 226.901 277.924 226.472 277.924 225.944C277.924 225.394 277.748 224.954 277.396 224.624C277.067 224.294 276.638 224.129 276.11 224.129C275.582 224.129 275.153 224.294 274.823 224.624C274.493 224.954 274.328 225.394 274.328 225.944C274.328 226.472 274.493 226.901 274.823 227.231C275.153 227.561 275.582 227.726 276.11 227.726Z" fill="#3D4091"/>
<path d="M221.723 270.991H216.906V248.522H221.723V270.991Z" fill="#3D4091"/>
<path d="M235.801 271.387C233.535 271.387 231.533 270.892 229.795 269.902C228.079 268.912 226.749 267.559 225.803 265.844C224.857 264.106 224.384 262.137 224.384 259.938C224.384 258.2 224.659 256.616 225.209 255.186C225.781 253.735 226.573 252.492 227.584 251.458C228.596 250.402 229.795 249.588 231.181 249.016C232.589 248.445 234.129 248.159 235.801 248.159C238.375 248.159 240.498 248.709 242.169 249.808C243.863 250.886 245.172 252.437 246.096 254.461L241.708 256.209C240.982 255.021 240.135 254.164 239.167 253.636C238.199 253.086 237.077 252.811 235.801 252.811C234.547 252.811 233.425 253.108 232.435 253.702C231.467 254.274 230.697 255.087 230.125 256.143C229.575 257.199 229.3 258.464 229.3 259.938C229.3 261.301 229.575 262.511 230.125 263.567C230.697 264.601 231.467 265.415 232.435 266.009C233.425 266.58 234.547 266.866 235.801 266.866C236.967 266.866 238.001 266.646 238.903 266.206C239.805 265.767 240.531 265.14 241.081 264.326C241.631 263.49 241.939 262.522 242.004 261.422L243.39 263.105H235.438V258.783H246.393C246.481 259.135 246.547 259.509 246.591 259.905C246.635 260.3 246.657 260.696 246.657 261.092C246.657 262.632 246.36 264.04 245.766 265.316C245.194 266.569 244.402 267.658 243.39 268.582C242.4 269.484 241.257 270.177 239.959 270.661C238.661 271.145 237.275 271.387 235.801 271.387Z" fill="#3D4091"/>
<path d="M252.493 262.016V257.43H261.732V262.016H252.493ZM252.394 253.108L254.077 251.161V268.351L252.229 266.404H263.547V270.991H249.259V248.522H263.547V253.108H252.394Z" fill="#3D4091"/>
<path d="M281.965 270.991L269.657 254.329L271.735 253.768V270.991H266.918V248.522H271.306L283.351 264.887L281.503 265.217V248.522H286.32V270.991H281.965Z" fill="#3D4091"/>
<path d="M196.75 344.653L198.165 345.784C198.051 346.123 197.769 346.463 197.316 346.802C196.882 347.123 196.317 347.396 195.619 347.622C194.94 347.83 194.148 347.933 193.243 347.933V344.031C193.96 344.031 194.62 343.917 195.223 343.691C195.845 343.465 196.373 343.144 196.807 342.73C197.241 342.315 197.542 341.834 197.712 341.287H200.88V360.547H196.75V344.653Z" fill="#7B1F85"/>
<path d="M207.081 344.653L208.495 345.784C208.382 346.123 208.099 346.463 207.646 346.802C207.213 347.123 206.647 347.396 205.949 347.622C205.27 347.83 204.478 347.933 203.573 347.933V344.031C204.29 344.031 204.95 343.917 205.553 343.691C206.175 343.465 206.703 343.144 207.137 342.73C207.571 342.315 207.872 341.834 208.042 341.287H211.21V360.547H207.081V344.653Z" fill="#7B1F85"/>
<path d="M217.75 360.942L215.261 359.076L230.563 341.372L233.052 343.267L217.75 360.942ZM218.514 350.563C217.646 350.563 216.845 350.356 216.11 349.941C215.393 349.508 214.818 348.942 214.384 348.244C213.951 347.528 213.734 346.745 213.734 345.897C213.734 345.011 213.951 344.219 214.384 343.522C214.818 342.824 215.393 342.268 216.11 341.853C216.845 341.438 217.646 341.231 218.514 341.231C219.4 341.231 220.201 341.448 220.918 341.881C221.653 342.296 222.228 342.852 222.643 343.55C223.077 344.247 223.294 345.03 223.294 345.897C223.294 346.745 223.077 347.528 222.643 348.244C222.21 348.942 221.634 349.508 220.918 349.941C220.201 350.356 219.4 350.563 218.514 350.563ZM218.514 347.424C218.966 347.424 219.334 347.283 219.617 347C219.919 346.717 220.069 346.35 220.069 345.897C220.069 345.445 219.919 345.077 219.617 344.794C219.334 344.492 218.966 344.342 218.514 344.342C218.061 344.342 217.694 344.492 217.411 344.794C217.128 345.077 216.986 345.445 216.986 345.897C216.986 346.35 217.128 346.717 217.411 347C217.694 347.283 218.061 347.424 218.514 347.424ZM229.94 360.914C229.073 360.914 228.272 360.707 227.536 360.292C226.82 359.877 226.245 359.321 225.811 358.623C225.377 357.907 225.16 357.125 225.16 356.276C225.16 355.39 225.377 354.598 225.811 353.901C226.245 353.184 226.82 352.619 227.536 352.204C228.272 351.789 229.073 351.582 229.94 351.582C230.827 351.582 231.628 351.789 232.345 352.204C233.08 352.619 233.655 353.184 234.07 353.901C234.504 354.617 234.72 355.409 234.72 356.276C234.72 357.125 234.504 357.907 234.07 358.623C233.636 359.321 233.061 359.877 232.345 360.292C231.628 360.707 230.827 360.914 229.94 360.914ZM229.94 357.803C230.393 357.803 230.761 357.662 231.044 357.379C231.345 357.096 231.496 356.729 231.496 356.276C231.496 355.805 231.345 355.428 231.044 355.145C230.761 354.862 230.393 354.721 229.94 354.721C229.488 354.721 229.12 354.862 228.837 355.145C228.555 355.428 228.413 355.805 228.413 356.276C228.413 356.729 228.555 357.096 228.837 357.379C229.12 357.662 229.488 357.803 229.94 357.803Z" fill="#7B1F85"/>
<path d="M198.707 394.719L188.157 380.437L189.939 379.957V394.719H185.809V375.46H189.571L199.895 389.487L198.311 389.77V375.46H202.44V394.719H198.707Z" fill="#7B1F85"/>
<path d="M208.606 387.027V383.096H216.526V387.027H208.606ZM208.521 379.391L209.964 377.722V392.457L208.38 390.788H218.081V394.719H205.834V375.46H218.081V379.391H208.521Z" fill="#7B1F85"/>
<path d="M219.868 394.719L223.262 375.46H226.967L231.577 388.639H231.379L235.989 375.46H239.695L243.117 394.719H238.959L237.63 386.122C237.46 384.972 237.3 383.831 237.149 382.7C237.017 381.55 236.904 380.4 236.81 379.25H237.969C237.668 380.494 237.366 381.663 237.064 382.756C236.781 383.85 236.442 384.953 236.046 386.065L233.104 394.493H229.852L226.91 386.065C226.514 384.934 226.166 383.831 225.864 382.756C225.581 381.663 225.289 380.494 224.987 379.25H226.147C226.052 380.4 225.939 381.55 225.807 382.7C225.675 383.831 225.515 384.972 225.326 386.122L223.997 394.719H219.868Z" fill="#7B1F85"/>
<path d="M72.6408 243.085L69.0558 242.257V230.094H81.9249V234.445H71.7828L73.3455 232.576V241.093L71.6603 240.174C72.2527 239.194 72.9676 238.468 73.8051 237.999C74.6631 237.529 75.7049 237.294 76.9305 237.294C78.054 237.294 79.0856 237.57 80.0252 238.121C80.9648 238.673 81.7104 239.459 82.262 240.48C82.8339 241.502 83.1199 242.717 83.1199 244.126C83.1199 245.658 82.7931 246.965 82.1394 248.048C81.5062 249.11 80.638 249.927 79.5349 250.499C78.4319 251.05 77.1654 251.326 75.7355 251.326C74.1626 251.326 72.7531 251.02 71.5071 250.407C70.2814 249.774 69.3111 248.916 68.5962 247.833L72.365 245.474C72.7736 246.026 73.2536 246.444 73.8051 246.73C74.3567 246.996 74.9388 247.129 75.5516 247.129C76.5117 247.129 77.2471 246.873 77.7578 246.363C78.2685 245.832 78.5238 245.137 78.5238 244.279C78.5238 243.483 78.2582 242.829 77.7271 242.319C77.196 241.808 76.5015 241.553 75.6436 241.553C75.0716 241.553 74.5303 241.675 74.0196 241.92C73.5294 242.145 73.0697 242.533 72.6408 243.085Z" fill="#967B3F"/>
<path d="M88.2453 233.74L89.7773 234.966C89.6548 235.333 89.3484 235.701 88.8581 236.069C88.3883 236.416 87.7755 236.712 87.0197 236.957C86.2843 237.182 85.4263 237.294 84.4458 237.294V233.066C85.2221 233.066 85.937 232.944 86.5907 232.698C87.2648 232.453 87.8368 232.106 88.3066 231.657C88.7764 231.207 89.1032 230.687 89.2871 230.094H92.7189V250.958H88.2453V233.74Z" fill="#967B3F"/>
<path d="M99.804 251.387L97.1077 249.365L113.684 230.186L116.381 232.239L99.804 251.387ZM100.631 240.143C99.6917 240.143 98.8235 239.919 98.0269 239.469C97.2506 239 96.6276 238.387 96.1578 237.631C95.688 236.855 95.4531 236.007 95.4531 235.088C95.4531 234.128 95.688 233.27 96.1578 232.515C96.6276 231.759 97.2506 231.156 98.0269 230.707C98.8235 230.258 99.6917 230.033 100.631 230.033C101.591 230.033 102.46 230.268 103.236 230.738C104.032 231.187 104.656 231.79 105.105 232.545C105.575 233.301 105.81 234.149 105.81 235.088C105.81 236.007 105.575 236.855 105.105 237.631C104.635 238.387 104.012 239 103.236 239.469C102.46 239.919 101.591 240.143 100.631 240.143ZM100.631 236.743C101.122 236.743 101.52 236.589 101.826 236.283C102.153 235.977 102.317 235.578 102.317 235.088C102.317 234.598 102.153 234.2 101.826 233.893C101.52 233.566 101.122 233.403 100.631 233.403C100.141 233.403 99.7428 233.566 99.4364 233.893C99.1299 234.2 98.9767 234.598 98.9767 235.088C98.9767 235.578 99.1299 235.977 99.4364 236.283C99.7428 236.589 100.141 236.743 100.631 236.743ZM113.01 251.357C112.071 251.357 111.202 251.132 110.406 250.683C109.63 250.233 109.006 249.631 108.537 248.875C108.067 248.099 107.832 247.251 107.832 246.332C107.832 245.372 108.067 244.514 108.537 243.759C109.006 242.982 109.63 242.37 110.406 241.92C111.202 241.471 112.071 241.246 113.01 241.246C113.97 241.246 114.838 241.471 115.615 241.92C116.411 242.37 117.034 242.982 117.484 243.759C117.954 244.535 118.189 245.393 118.189 246.332C118.189 247.251 117.954 248.099 117.484 248.875C117.014 249.631 116.391 250.233 115.615 250.683C114.838 251.132 113.97 251.357 113.01 251.357ZM113.01 247.987C113.5 247.987 113.899 247.833 114.205 247.527C114.532 247.221 114.695 246.822 114.695 246.332C114.695 245.822 114.532 245.413 114.205 245.107C113.899 244.8 113.5 244.647 113.01 244.647C112.52 244.647 112.122 244.8 111.815 245.107C111.509 245.413 111.356 245.822 111.356 246.332C111.356 246.822 111.509 247.221 111.815 247.527C112.122 247.833 112.52 247.987 113.01 247.987Z" fill="#967B3F"/>
<path d="M53.9244 287.488V268.738H58.4286V287.488H53.9244ZM47.735 270.944V266.624H64.7406V270.944H47.735Z" fill="#967B3F"/>
<path d="M67.1734 279.461H76.9785V283.597H67.1734V279.461ZM62.608 287.488L70.023 266.624H74.9562L82.0036 287.488H77.4687L71.7695 269.687H73.2403L67.1122 287.488H62.608Z" fill="#967B3F"/>
<path d="M96.6034 287.488H83.9181V266.624H88.3917V284.853L87.258 283.168H96.6034V287.488Z" fill="#967B3F"/>
<path d="M102.153 279.461H111.958V283.597H102.153V279.461ZM97.5875 287.488L105.003 266.624H109.936L116.983 287.488H112.448L106.749 269.687H108.22L102.092 287.488H97.5875ZM107.301 264.816L105.186 262.61L110.058 258.106L112.234 260.282L107.301 264.816Z" fill="#967B3F"/>
<path d="M132.87 287.488L121.441 272.016L123.371 271.495V287.488H118.898V266.624H122.973L134.157 281.82L132.441 282.126V266.624H136.914V287.488H132.87Z" fill="#967B3F"/>
</svg>
