<svg width="329" height="516" viewBox="0 0 329 516" fill="none" xmlns="http://www.w3.org/2000/svg">
<path d="M22.9047 23.5851L26.5944 2.64448H30.6224L35.6343 16.9739H35.419L40.4309 2.64448H44.4588L48.1793 23.5851H43.6594L42.2143 14.2372C42.0298 12.9867 41.8555 11.7464 41.6916 10.5164C41.5481 9.26594 41.4251 8.01545 41.3226 6.76495H42.5832C42.2553 8.11795 41.9273 9.38894 41.5993 10.5779C41.2918 11.7669 40.9229 12.9662 40.4924 14.1757L37.2946 23.3391H33.7587L30.5609 14.1757C30.1304 12.9457 29.7512 11.7464 29.4232 10.5779C29.1158 9.38894 28.798 8.11795 28.4701 6.76495H29.7307C29.6282 8.01545 29.5052 9.26594 29.3617 10.5164C29.2182 11.7464 29.044 12.9867 28.839 14.2372L27.3939 23.5851H22.9047Z" fill="#DA93E2"/>
<path d="M54.9524 23.5851H50.4633V8.54844H54.9524V23.5851ZM50.0636 3.81298C50.0636 3.01348 50.2993 2.36773 50.7708 1.87574C51.2627 1.38374 51.9084 1.13774 52.7079 1.13774C53.5073 1.13774 54.1428 1.38374 54.6142 1.87574C55.1062 2.36773 55.3522 3.01348 55.3522 3.81298C55.3522 4.59197 55.1062 5.22747 54.6142 5.71946C54.1428 6.19096 53.5073 6.42671 52.7079 6.42671C51.9084 6.42671 51.2627 6.19096 50.7708 5.71946C50.2993 5.22747 50.0636 4.59197 50.0636 3.81298Z" fill="#DA93E2"/>
<path d="M62.4212 23.7388C61.6628 23.7388 60.9659 23.5851 60.3304 23.2776C59.695 22.9701 59.1825 22.4986 58.793 21.8631C58.4035 21.2071 58.2088 20.3359 58.2088 19.2494V2.64448H62.6672V17.6504C62.6672 18.4089 62.8005 18.9009 63.0669 19.1264C63.3539 19.3314 63.7126 19.4339 64.1431 19.4339V23.5851C63.9381 23.6261 63.6614 23.6568 63.3129 23.6773C62.9849 23.7183 62.6877 23.7388 62.4212 23.7388Z" fill="#DA93E2"/>
<path d="M70.7803 22.4474L64.7537 8.54844H69.3044L75.0235 21.7709L70.7803 22.4474ZM67.5518 29.4276L76.6223 8.54844H81.173L72.1332 29.4276H67.5518Z" fill="#DA93E2"/>
<path d="M88.6317 23.8618C87.1353 23.8618 85.8132 23.5441 84.6653 22.9086C83.5378 22.2731 82.6564 21.3711 82.021 20.2026C81.406 19.0341 81.0985 17.6606 81.0985 16.0821C81.0985 14.5242 81.406 13.1507 82.021 11.9617C82.6564 10.7727 83.5378 9.85018 84.6653 9.19419C85.8132 8.51769 87.1353 8.17945 88.6317 8.17945C90.1691 8.17945 91.5015 8.52794 92.6289 9.22494C93.7563 9.92193 94.6275 10.8649 95.2425 12.0539C95.8574 13.2224 96.1649 14.5447 96.1649 16.0206C96.1649 16.2871 96.1546 16.5434 96.1341 16.7894C96.1136 17.0354 96.0931 17.2301 96.0726 17.3736H84.6038V14.1757H92.6289L92.1062 15.4979C92.1062 14.3704 91.8192 13.4479 91.2453 12.7304C90.6918 12.0129 89.8309 11.6542 88.6625 11.6542C87.617 11.6542 86.7766 11.9719 86.1411 12.6074C85.5262 13.2429 85.2187 14.0834 85.2187 15.1289V16.8201C85.2187 17.9476 85.5364 18.8291 86.1719 19.4646C86.8278 20.0796 87.7298 20.3871 88.8777 20.3871C89.8411 20.3871 90.5996 20.1924 91.153 19.8029C91.727 19.4134 92.2087 18.9316 92.5981 18.3576L95.6422 20.0489C94.9862 21.2584 94.0638 22.2014 92.8749 22.8778C91.686 23.5338 90.2716 23.8618 88.6317 23.8618Z" fill="#DA93E2"/>
<path d="M107.67 8.17945C108.674 8.17945 109.494 8.35369 110.13 8.70219C110.765 9.03019 111.247 9.49144 111.575 10.0859C111.923 10.6804 112.149 11.3569 112.251 12.1154C112.374 12.8534 112.436 13.6222 112.436 14.4217V23.5851H107.947V14.6677C107.947 13.8067 107.793 13.2429 107.486 12.9764C107.178 12.6894 106.768 12.5459 106.256 12.5459C105.825 12.5459 105.374 12.6382 104.903 12.8227C104.452 12.9867 104.011 13.2224 103.581 13.5299C103.15 13.8374 102.771 14.1859 102.443 14.5754L101.643 12.2999H102.904V23.5851H98.415V8.54844H101.736L102.658 11.5312L101.121 11.4082C101.654 10.8137 102.258 10.2704 102.935 9.77843C103.611 9.28644 104.349 8.89694 105.149 8.60994C105.948 8.32294 106.789 8.17945 107.67 8.17945Z" fill="#DA93E2"/>
<path d="M123.397 23.5851V8.54844H126.718L127.641 11.5312L126.103 11.4082C126.616 10.8137 127.2 10.2704 127.856 9.77843C128.512 9.28644 129.229 8.89694 130.008 8.60994C130.787 8.32294 131.597 8.17945 132.437 8.17945C133.442 8.17945 134.241 8.35369 134.836 8.70219C135.451 9.03019 135.912 9.49144 136.219 10.0859C136.547 10.6804 136.762 11.3569 136.865 12.1154C136.988 12.8534 137.049 13.6222 137.049 14.4217V23.5851H132.56V14.6677C132.56 13.8067 132.407 13.2429 132.099 12.9764C131.792 12.6894 131.412 12.5459 130.961 12.5459C130.326 12.5459 129.701 12.7407 129.086 13.1302C128.471 13.4992 127.917 13.9809 127.425 14.5754L126.626 12.2999H127.887V23.5851H123.397ZM141.723 23.5851V14.6677C141.723 13.8067 141.569 13.2429 141.262 12.9764C140.975 12.6894 140.606 12.5459 140.155 12.5459C139.499 12.5459 138.864 12.7407 138.249 13.1302C137.634 13.4992 137.08 13.9809 136.588 14.5754L135.266 11.4082C135.799 10.8137 136.393 10.2704 137.049 9.77843C137.705 9.28644 138.413 8.89694 139.171 8.60994C139.95 8.32294 140.76 8.17945 141.6 8.17945C142.605 8.17945 143.414 8.35369 144.029 8.70219C144.644 9.03019 145.105 9.49144 145.413 10.0859C145.72 10.6804 145.935 11.3569 146.058 12.1154C146.181 12.8534 146.243 13.6222 146.243 14.4217V23.5851H141.723Z" fill="#DA93E2"/>
<path d="M155.712 23.8618C154.216 23.8618 152.894 23.5441 151.746 22.9086C150.618 22.2731 149.737 21.3711 149.101 20.2026C148.486 19.0341 148.179 17.6606 148.179 16.0821C148.179 14.5242 148.486 13.1507 149.101 11.9617C149.737 10.7727 150.618 9.85018 151.746 9.19419C152.894 8.51769 154.216 8.17945 155.712 8.17945C157.249 8.17945 158.582 8.52794 159.709 9.22494C160.837 9.92193 161.708 10.8649 162.323 12.0539C162.938 13.2224 163.245 14.5447 163.245 16.0206C163.245 16.2871 163.235 16.5434 163.214 16.7894C163.194 17.0354 163.173 17.2301 163.153 17.3736H151.684V14.1757H159.709L159.187 15.4979C159.187 14.3704 158.9 13.4479 158.326 12.7304C157.772 12.0129 156.911 11.6542 155.743 11.6542C154.697 11.6542 153.857 11.9719 153.221 12.6074C152.607 13.2429 152.299 14.0834 152.299 15.1289V16.8201C152.299 17.9476 152.617 18.8291 153.252 19.4646C153.908 20.0796 154.81 20.3871 155.958 20.3871C156.921 20.3871 157.68 20.1924 158.233 19.8029C158.807 19.4134 159.289 18.9316 159.679 18.3576L162.723 20.0489C162.067 21.2584 161.144 22.2014 159.955 22.8778C158.766 23.5338 157.352 23.8618 155.712 23.8618Z" fill="#DA93E2"/>
<path d="M174.75 8.17945C175.755 8.17945 176.575 8.35369 177.21 8.70219C177.846 9.03019 178.327 9.49144 178.655 10.0859C179.004 10.6804 179.229 11.3569 179.332 12.1154C179.455 12.8534 179.516 13.6222 179.516 14.4217V23.5851H175.027V14.6677C175.027 13.8067 174.873 13.2429 174.566 12.9764C174.258 12.6894 173.848 12.5459 173.336 12.5459C172.906 12.5459 172.455 12.6382 171.983 12.8227C171.532 12.9867 171.091 13.2224 170.661 13.5299C170.23 13.8374 169.851 14.1859 169.523 14.5754L168.724 12.2999H169.984V23.5851H165.495V8.54844H168.816L169.739 11.5312L168.201 11.4082C168.734 10.8137 169.339 10.2704 170.015 9.77843C170.692 9.28644 171.43 8.89694 172.229 8.60994C173.029 8.32294 173.869 8.17945 174.75 8.17945Z" fill="#DA93E2"/>
<path d="M187.934 24.0463C186.725 24.0463 185.587 23.8106 184.521 23.3391C183.476 22.8676 182.523 22.0579 181.662 20.9099L184.214 18.4499C184.911 19.1674 185.577 19.6799 186.213 19.9874C186.848 20.2949 187.545 20.4486 188.303 20.4486C188.754 20.4486 189.113 20.3564 189.38 20.1719C189.667 19.9669 189.81 19.7209 189.81 19.4339C189.81 19.1879 189.728 18.9829 189.564 18.8189C189.4 18.6549 189.093 18.4909 188.642 18.3269C188.191 18.1629 187.535 17.9681 186.674 17.7426C185.095 17.3531 183.917 16.7894 183.138 16.0514C182.379 15.2929 182 14.2884 182 13.0379C182 12.1359 182.236 11.3159 182.707 10.5779C183.179 9.81943 183.855 9.21469 184.737 8.76369C185.618 8.31269 186.664 8.0872 187.873 8.0872C189.308 8.0872 190.527 8.36394 191.532 8.91744C192.536 9.45044 193.366 10.1064 194.022 10.8854L191.255 13.2532C190.804 12.8432 190.261 12.4947 189.626 12.2077C188.99 11.9207 188.273 11.7772 187.473 11.7772C187.043 11.7772 186.674 11.8592 186.366 12.0232C186.059 12.1872 185.905 12.4332 185.905 12.7612C185.905 13.0687 186.09 13.3249 186.459 13.5299C186.827 13.7349 187.565 13.9707 188.672 14.2372C190.538 14.6882 191.87 15.2929 192.67 16.0514C193.489 16.8099 193.899 17.8246 193.899 19.0956C193.899 20.0796 193.643 20.9509 193.131 21.7094C192.618 22.4474 191.911 23.0213 191.009 23.4313C190.107 23.8413 189.082 24.0463 187.934 24.0463Z" fill="#DA93E2"/>
<path d="M203.037 23.8311C201.376 23.8311 200.065 23.4211 199.101 22.6011C198.158 21.7811 197.687 20.4384 197.687 18.5729V8.73294L197.625 8.54844L198.548 4.91997H202.176V17.5889C202.176 18.2859 202.34 18.7881 202.668 19.0956C202.996 19.3826 203.426 19.5261 203.959 19.5261C204.267 19.5261 204.554 19.5056 204.82 19.4646C205.107 19.4031 205.343 19.3416 205.527 19.2801V23.4928C205.179 23.5953 204.8 23.6773 204.39 23.7388C204 23.8003 203.549 23.8311 203.037 23.8311ZM195.35 12.6689V8.54844H205.527V12.6689H195.35Z" fill="#DA93E2"/>
<path d="M211.845 8.54844L213.013 12.6997V23.5851H208.524V8.54844H211.845ZM212.029 15.1904L211.261 14.8522V11.3774L211.537 11.0084C211.783 10.6599 212.132 10.2602 212.583 9.80918C213.054 9.35819 213.597 8.97894 214.212 8.67144C214.848 8.34344 215.494 8.17945 216.149 8.17945C216.477 8.17945 216.775 8.19994 217.041 8.24095C217.308 8.28195 217.523 8.35369 217.687 8.45619V12.5459H216.672C215.36 12.5459 214.325 12.7612 213.567 13.1917C212.829 13.6017 212.316 14.2679 212.029 15.1904Z" fill="#DA93E2"/>
<path d="M224.828 23.9541C223.721 23.9541 222.819 23.7901 222.122 23.4621C221.445 23.1341 220.912 22.6831 220.523 22.1091C220.154 21.5146 219.898 20.8484 219.754 20.1104C219.631 19.3519 219.57 18.5524 219.57 17.7119V8.54844H224.059V17.4659C224.059 18.3064 224.233 18.8701 224.582 19.1571C224.93 19.4236 225.36 19.5569 225.873 19.5569C226.324 19.5569 226.765 19.4851 227.195 19.3416C227.626 19.1776 228.046 18.9521 228.456 18.6651C228.866 18.3576 229.235 17.9886 229.563 17.5581L230.331 19.8336H229.071V8.54844H233.591V23.5851H230.239L229.317 20.6024L230.854 20.7254C230.362 21.2994 229.788 21.8426 229.132 22.3551C228.497 22.8471 227.82 23.2366 227.103 23.5236C226.385 23.8106 225.627 23.9541 224.828 23.9541Z" fill="#DA93E2"/>
<path d="M241.241 23.9848C240.154 23.9848 239.191 23.7798 238.35 23.3698C237.531 22.9393 236.895 22.3449 236.444 21.5864C235.993 20.8279 235.768 19.9464 235.768 18.9419C235.768 17.8759 236.014 16.9739 236.506 16.2359C236.998 15.4774 237.654 14.8932 238.473 14.4832C239.314 14.0732 240.247 13.8682 241.272 13.8682C242.768 13.8682 243.977 14.2064 244.9 14.8829C245.822 15.5594 246.437 16.5331 246.745 17.8041L244.807 17.4659V13.9604C244.807 13.4069 244.613 12.9252 244.223 12.5152C243.834 12.1052 243.209 11.9002 242.348 11.9002C241.794 11.9002 241.159 11.9719 240.441 12.1154C239.724 12.2384 238.986 12.4844 238.227 12.8534L236.905 9.65544C237.807 9.20444 238.771 8.84569 239.796 8.57919C240.841 8.31269 241.907 8.17945 242.993 8.17945C244.387 8.17945 245.556 8.42544 246.499 8.91744C247.442 9.40944 248.138 10.1064 248.589 11.0084C249.061 11.9104 249.297 12.9559 249.297 14.1449V23.5851H245.638L244.746 20.6639L246.745 20.0489C246.417 21.2789 245.791 22.2424 244.869 22.9393C243.947 23.6363 242.737 23.9848 241.241 23.9848ZM242.624 20.7869C243.301 20.7869 243.834 20.6126 244.223 20.2641C244.633 19.9156 244.838 19.4749 244.838 18.9419C244.838 18.3679 244.633 17.9169 244.223 17.5889C243.834 17.2609 243.301 17.0969 242.624 17.0969C241.948 17.0969 241.415 17.2609 241.026 17.5889C240.636 17.9169 240.441 18.3679 240.441 18.9419C240.441 19.4749 240.636 19.9156 241.026 20.2641C241.415 20.6126 241.948 20.7869 242.624 20.7869ZM242.84 6.7342L240.718 4.52022L245.607 0L247.79 2.18323L242.84 6.7342Z" fill="#DA93E2"/>
<path d="M259.069 23.9541C257.531 23.9541 256.178 23.6158 255.01 22.9393C253.862 22.2629 252.97 21.3301 252.335 20.1411C251.699 18.9521 251.382 17.5889 251.382 16.0514C251.382 14.5139 251.699 13.1609 252.335 11.9924C252.97 10.8034 253.862 9.87068 255.01 9.19419C256.178 8.51769 257.531 8.17945 259.069 8.17945C260.75 8.17945 262.205 8.58944 263.435 9.40944C264.665 10.2294 265.546 11.3364 266.079 12.7304L262.02 14.5447C261.733 13.9092 261.354 13.4172 260.883 13.0687C260.411 12.6997 259.817 12.5152 259.099 12.5152C258.197 12.5152 257.439 12.8329 256.824 13.4684C256.209 14.0834 255.902 14.9444 255.902 16.0514C255.902 17.1584 256.209 18.0296 256.824 18.6651C257.439 19.2801 258.197 19.5876 259.099 19.5876C259.817 19.5876 260.411 19.4134 260.883 19.0649C261.354 18.7164 261.733 18.2244 262.02 17.5889L266.079 19.3724C265.546 20.7664 264.654 21.8836 263.404 22.7241C262.154 23.5441 260.709 23.9541 259.069 23.9541Z" fill="#DA93E2"/>
<path d="M272.528 23.5851H268.039V8.54844H272.528V23.5851ZM267.639 3.81298C267.639 3.01348 267.875 2.36773 268.347 1.87574C268.838 1.38374 269.484 1.13774 270.284 1.13774C271.083 1.13774 271.719 1.38374 272.19 1.87574C272.682 2.36773 272.928 3.01348 272.928 3.81298C272.928 4.59197 272.682 5.22747 272.19 5.71946C271.719 6.19096 271.083 6.42671 270.284 6.42671C269.484 6.42671 268.838 6.19096 268.347 5.71946C267.875 5.22747 267.639 4.59197 267.639 3.81298Z" fill="#DA93E2"/>
<path d="M282.795 23.9541C281.237 23.9541 279.864 23.6261 278.675 22.9701C277.486 22.2936 276.563 21.3609 275.908 20.1719C275.252 18.9829 274.924 17.6196 274.924 16.0821C274.924 14.5242 275.252 13.1507 275.908 11.9617C276.563 10.7727 277.486 9.85018 278.675 9.19419C279.864 8.51769 281.237 8.17945 282.795 8.17945C284.373 8.17945 285.757 8.51769 286.946 9.19419C288.135 9.85018 289.057 10.7727 289.713 11.9617C290.39 13.1507 290.728 14.5242 290.728 16.0821C290.728 17.6196 290.39 18.9829 289.713 20.1719C289.057 21.3609 288.135 22.2936 286.946 22.9701C285.757 23.6261 284.373 23.9541 282.795 23.9541ZM282.795 19.5876C283.799 19.5876 284.609 19.2699 285.224 18.6344C285.86 17.9784 286.177 17.1276 286.177 16.0821C286.177 15.0162 285.86 14.1552 285.224 13.4992C284.609 12.8432 283.799 12.5152 282.795 12.5152C281.832 12.5152 281.032 12.8432 280.397 13.4992C279.782 14.1347 279.474 14.9854 279.474 16.0514C279.474 17.1174 279.782 17.9784 280.397 18.6344C281.032 19.2699 281.832 19.5876 282.795 19.5876ZM282.641 6.7342L280.52 4.52022L285.409 0L287.592 2.18323L282.641 6.7342Z" fill="#DA93E2"/>
<path d="M298.434 24.0463C297.224 24.0463 296.087 23.8106 295.021 23.3391C293.975 22.8676 293.022 22.0579 292.161 20.9099L294.713 18.4499C295.41 19.1674 296.077 19.6799 296.712 19.9874C297.347 20.2949 298.044 20.4486 298.803 20.4486C299.254 20.4486 299.612 20.3564 299.879 20.1719C300.166 19.9669 300.309 19.7209 300.309 19.4339C300.309 19.1879 300.227 18.9829 300.063 18.8189C299.899 18.6549 299.592 18.4909 299.141 18.3269C298.69 18.1629 298.034 17.9681 297.173 17.7426C295.595 17.3531 294.416 16.7894 293.637 16.0514C292.879 15.2929 292.5 14.2884 292.5 13.0379C292.5 12.1359 292.735 11.3159 293.207 10.5779C293.678 9.81943 294.355 9.21469 295.236 8.76369C296.117 8.31269 297.163 8.0872 298.372 8.0872C299.807 8.0872 301.027 8.36394 302.031 8.91744C303.036 9.45044 303.866 10.1064 304.522 10.8854L301.755 13.2532C301.304 12.8432 300.76 12.4947 300.125 12.2077C299.489 11.9207 298.772 11.7772 297.973 11.7772C297.542 11.7772 297.173 11.8592 296.866 12.0232C296.558 12.1872 296.404 12.4332 296.404 12.7612C296.404 13.0687 296.589 13.3249 296.958 13.5299C297.327 13.7349 298.065 13.9707 299.172 14.2372C301.037 14.6882 302.37 15.2929 303.169 16.0514C303.989 16.8099 304.399 17.8246 304.399 19.0956C304.399 20.0796 304.143 20.9509 303.63 21.7094C303.118 22.4474 302.411 23.0213 301.509 23.4313C300.607 23.8413 299.582 24.0463 298.434 24.0463Z" fill="#DA93E2"/>
<path d="M13.0258 60.7308C11.3655 60.7308 10.0536 60.3208 9.09014 59.5009C8.14721 58.6809 7.67575 57.3381 7.67575 55.4726V45.6327L7.61425 45.4482L8.53668 41.8197H12.1649V54.4886C12.1649 55.1856 12.3289 55.6879 12.6569 55.9954C12.9848 56.2824 13.4153 56.4259 13.9483 56.4259C14.2557 56.4259 14.5427 56.4054 14.8092 56.3644C15.0962 56.3029 15.3319 56.2414 15.5164 56.1799V60.3926C15.1679 60.4951 14.7887 60.5771 14.3787 60.6386C13.9893 60.7001 13.5383 60.7308 13.0258 60.7308ZM5.33892 49.5687V45.4482H15.5164V49.5687H5.33892Z" fill="#DA93E2"/>
<path d="M24.9444 60.7616C23.448 60.7616 22.1259 60.4439 20.978 59.8084C19.8505 59.1729 18.9691 58.2709 18.3337 57.1024C17.7187 55.9339 17.4112 54.5604 17.4112 52.9819C17.4112 51.4239 17.7187 50.0504 18.3337 48.8614C18.9691 47.6724 19.8505 46.7499 20.978 46.0939C22.1259 45.4174 23.448 45.0792 24.9444 45.0792C26.4818 45.0792 27.8142 45.4277 28.9416 46.1247C30.069 46.8217 30.9402 47.7647 31.5552 48.9537C32.1701 50.1222 32.4776 51.4444 32.4776 52.9204C32.4776 53.1869 32.4673 53.4431 32.4468 53.6891C32.4263 53.9351 32.4058 54.1299 32.3853 54.2734H20.9165V51.0754H28.9416L28.4189 52.3977C28.4189 51.2702 28.1319 50.3477 27.558 49.6302C27.0045 48.9127 26.1436 48.5539 24.9752 48.5539C23.9297 48.5539 23.0893 48.8717 22.4538 49.5072C21.8389 50.1427 21.5314 50.9832 21.5314 52.0287V53.7199C21.5314 54.8474 21.8491 55.7289 22.4846 56.3644C23.1405 56.9794 24.0425 57.2869 25.1904 57.2869C26.1538 57.2869 26.9123 57.0921 27.4657 56.7026C28.0397 56.3131 28.5214 55.8314 28.9109 55.2574L31.9549 56.9486C31.2989 58.1581 30.3765 59.1011 29.1876 59.7776C27.9987 60.4336 26.5843 60.7616 24.9444 60.7616Z" fill="#DA93E2"/>
<path d="M38.0484 45.4482L39.2168 49.5994V60.4848H34.7277V45.4482H38.0484ZM38.2329 52.0902L37.4642 51.7519V48.2772L37.741 47.9082C37.9869 47.5597 38.3354 47.1599 38.7864 46.7089C39.2578 46.2579 39.801 45.8787 40.416 45.5712C41.0515 45.2432 41.6972 45.0792 42.3531 45.0792C42.6811 45.0792 42.9783 45.0997 43.2448 45.1407C43.5113 45.1817 43.7265 45.2534 43.8905 45.3559V49.4457H42.8758C41.5639 49.4457 40.5287 49.6609 39.7703 50.0914C39.0324 50.5014 38.5199 51.1677 38.2329 52.0902Z" fill="#DA93E2"/>
<path d="M46.0178 60.4848V45.4482H49.3386L50.261 48.4309L48.7236 48.3079C49.2361 47.7134 49.8203 47.1702 50.4763 46.6782C51.1322 46.1862 51.8496 45.7967 52.6286 45.5097C53.4075 45.2227 54.2172 45.0792 55.0577 45.0792C56.0621 45.0792 56.8615 45.2534 57.456 45.6019C58.0709 45.9299 58.5321 46.3912 58.8396 46.9857C59.1676 47.5802 59.3828 48.2567 59.4853 49.0152C59.6083 49.7532 59.6698 50.5219 59.6698 51.3214V60.4848H55.1806V51.5674C55.1806 50.7064 55.0269 50.1427 54.7194 49.8762C54.412 49.5892 54.0327 49.4457 53.5818 49.4457C52.9463 49.4457 52.3211 49.6404 51.7062 50.0299C51.0912 50.3989 50.5377 50.8807 50.0458 51.4752L49.2463 49.1997H50.507V60.4848H46.0178ZM64.3434 60.4848V51.5674C64.3434 50.7064 64.1897 50.1427 63.8822 49.8762C63.5953 49.5892 63.2263 49.4457 62.7753 49.4457C62.1194 49.4457 61.4839 49.6404 60.869 50.0299C60.254 50.3989 59.7006 50.8807 59.2086 51.4752L57.8864 48.3079C58.4194 47.7134 59.0139 47.1702 59.6698 46.6782C60.3258 46.1862 61.033 45.7967 61.7914 45.5097C62.5703 45.2227 63.38 45.0792 64.2205 45.0792C65.2249 45.0792 66.0346 45.2534 66.6495 45.6019C67.2645 45.9299 67.7257 46.3912 68.0332 46.9857C68.3406 47.5802 68.5559 48.2567 68.6789 49.0152C68.8019 49.7532 68.8634 50.5219 68.8634 51.3214V60.4848H64.3434Z" fill="#DA93E2"/>
<path d="M78.3324 60.7616C76.8361 60.7616 75.5139 60.4439 74.366 59.8084C73.2386 59.1729 72.3571 58.2709 71.7217 57.1024C71.1067 55.9339 70.7993 54.5604 70.7993 52.9819C70.7993 51.4239 71.1067 50.0504 71.7217 48.8614C72.3571 47.6724 73.2386 46.7499 74.366 46.0939C75.5139 45.4174 76.8361 45.0792 78.3324 45.0792C79.8698 45.0792 81.2022 45.4277 82.3296 46.1247C83.457 46.8217 84.3282 47.7647 84.9432 48.9537C85.5581 50.1222 85.8656 51.4444 85.8656 52.9204C85.8656 53.1869 85.8554 53.4431 85.8349 53.6891C85.8144 53.9351 85.7939 54.1299 85.7734 54.2734H74.3045V51.0754H82.3296L81.8069 52.3977C81.8069 51.2702 81.5199 50.3477 80.946 49.6302C80.3925 48.9127 79.5316 48.5539 78.3632 48.5539C77.3178 48.5539 76.4773 48.8717 75.8419 49.5072C75.2269 50.1427 74.9194 50.9832 74.9194 52.0287V53.7199C74.9194 54.8474 75.2372 55.7289 75.8726 56.3644C76.5286 56.9794 77.4305 57.2869 78.5784 57.2869C79.5418 57.2869 80.3003 57.0921 80.8537 56.7026C81.4277 56.3131 81.9094 55.8314 82.2989 55.2574L85.3429 56.9486C84.687 58.1581 83.7645 59.1011 82.5756 59.7776C81.3867 60.4336 79.9723 60.7616 78.3324 60.7616ZM78.1787 43.634L76.0571 41.42L80.946 36.8998L83.1291 39.083L78.1787 43.634Z" fill="#DA93E2"/>
<path d="M91.2212 52.9204V52.3362L97.3708 45.4482H102.413L95.5874 53.1664L95.4644 51.6904L102.567 60.4848H97.34L91.2212 52.9204ZM88.1157 39.5442H92.5741V60.4848H88.1157V39.5442Z" fill="#DA93E2"/>
<path d="M109.531 60.7616C108.034 60.7616 106.712 60.4439 105.564 59.8084C104.437 59.1729 103.555 58.2709 102.92 57.1024C102.305 55.9339 101.997 54.5604 101.997 52.9819C101.997 51.4239 102.305 50.0504 102.92 48.8614C103.555 47.6724 104.437 46.7499 105.564 46.0939C106.712 45.4174 108.034 45.0792 109.531 45.0792C111.068 45.0792 112.4 45.4277 113.528 46.1247C114.655 46.8217 115.526 47.7647 116.141 48.9537C116.756 50.1222 117.064 51.4444 117.064 52.9204C117.064 53.1869 117.053 53.4431 117.033 53.6891C117.012 53.9351 116.992 54.1299 116.971 54.2734H105.503V51.0754H113.528L113.005 52.3977C113.005 51.2702 112.718 50.3477 112.144 49.6302C111.591 48.9127 110.73 48.5539 109.561 48.5539C108.516 48.5539 107.675 48.8717 107.04 49.5072C106.425 50.1427 106.118 50.9832 106.118 52.0287V53.7199C106.118 54.8474 106.435 55.7289 107.071 56.3644C107.727 56.9794 108.629 57.2869 109.776 57.2869C110.74 57.2869 111.498 57.0921 112.052 56.7026C112.626 56.3131 113.107 55.8314 113.497 55.2574L116.541 56.9486C115.885 58.1581 114.963 59.1011 113.774 59.7776C112.585 60.4336 111.17 60.7616 109.531 60.7616Z" fill="#DA93E2"/>
<path d="M122.419 52.9204V52.3362L128.569 45.4482H133.611L126.785 53.1664L126.662 51.6904L133.765 60.4848H128.538L122.419 52.9204ZM119.314 39.5442H123.772V60.4848H119.314V39.5442Z" fill="#DA93E2"/>
<path d="M140.729 60.7616C139.232 60.7616 137.91 60.4439 136.762 59.8084C135.635 59.1729 134.753 58.2709 134.118 57.1024C133.503 55.9339 133.195 54.5604 133.195 52.9819C133.195 51.4239 133.503 50.0504 134.118 48.8614C134.753 47.6724 135.635 46.7499 136.762 46.0939C137.91 45.4174 139.232 45.0792 140.729 45.0792C142.266 45.0792 143.598 45.4277 144.726 46.1247C145.853 46.8217 146.724 47.7647 147.339 48.9537C147.954 50.1222 148.262 51.4444 148.262 52.9204C148.262 53.1869 148.251 53.4431 148.231 53.6891C148.211 53.9351 148.19 54.1299 148.17 54.2734H136.701V51.0754H144.726L144.203 52.3977C144.203 51.2702 143.916 50.3477 143.342 49.6302C142.789 48.9127 141.928 48.5539 140.759 48.5539C139.714 48.5539 138.873 48.8717 138.238 49.5072C137.623 50.1427 137.316 50.9832 137.316 52.0287V53.7199C137.316 54.8474 137.633 55.7289 138.269 56.3644C138.925 56.9794 139.827 57.2869 140.975 57.2869C141.938 57.2869 142.696 57.0921 143.25 56.7026C143.824 56.3131 144.306 55.8314 144.695 55.2574L147.739 56.9486C147.083 58.1581 146.161 59.1011 144.972 59.7776C143.783 60.4336 142.368 60.7616 140.729 60.7616Z" fill="#DA93E2"/>
<path d="M157.186 60.7308C155.525 60.7308 154.213 60.3208 153.25 59.5009C152.307 58.6809 151.835 57.3381 151.835 55.4726V45.6327L151.774 45.4482L152.696 41.8197H156.325V54.4886C156.325 55.1856 156.489 55.6879 156.817 55.9954C157.145 56.2824 157.575 56.4259 158.108 56.4259C158.415 56.4259 158.702 56.4054 158.969 56.3644C159.256 56.3029 159.492 56.2414 159.676 56.1799V60.3926C159.328 60.4951 158.948 60.5771 158.538 60.6386C158.149 60.7001 157.698 60.7308 157.186 60.7308ZM149.499 49.5687V45.4482H159.676V49.5687H149.499Z" fill="#DA93E2"/>
<path d="M170.66 60.4848V39.5442H175.149V60.4848H170.66ZM180.192 60.4848V51.5674C180.192 50.7064 180.038 50.1427 179.731 49.8762C179.423 49.5892 179.013 49.4457 178.501 49.4457C178.07 49.4457 177.619 49.5379 177.148 49.7224C176.697 49.8864 176.256 50.1222 175.826 50.4297C175.395 50.7372 175.016 51.0857 174.688 51.4752L173.366 48.3079C173.899 47.7134 174.503 47.1702 175.18 46.6782C175.856 46.1862 176.594 45.7967 177.394 45.5097C178.193 45.2227 179.034 45.0792 179.915 45.0792C180.919 45.0792 181.739 45.2534 182.375 45.6019C183.01 45.9299 183.492 46.3912 183.82 46.9857C184.168 47.5802 184.394 48.2567 184.496 49.0152C184.619 49.7532 184.681 50.5219 184.681 51.3214V60.4848H180.192Z" fill="#DA93E2"/>
<path d="M192.207 60.8846C191.12 60.8846 190.157 60.6796 189.316 60.2696C188.496 59.8391 187.861 59.2446 187.41 58.4861C186.959 57.7276 186.734 56.8461 186.734 55.8416C186.734 54.7756 186.98 53.8736 187.472 53.1356C187.963 52.3772 188.619 51.7929 189.439 51.3829C190.28 50.9729 191.212 50.7679 192.237 50.7679C193.734 50.7679 194.943 51.1062 195.866 51.7827C196.788 52.4592 197.403 53.4329 197.71 54.7039L195.773 54.3656V50.8602C195.773 50.3067 195.579 49.8249 195.189 49.4149C194.8 49.0049 194.174 48.7999 193.314 48.7999C192.76 48.7999 192.125 48.8717 191.407 49.0152C190.69 49.1382 189.952 49.3842 189.193 49.7532L187.871 46.5552C188.773 46.1042 189.737 45.7454 190.762 45.4789C191.807 45.2124 192.873 45.0792 193.959 45.0792C195.353 45.0792 196.522 45.3252 197.465 45.8172C198.407 46.3092 199.104 47.0062 199.555 47.9082C200.027 48.8102 200.263 49.8557 200.263 51.0447V60.4848H196.604L195.712 57.5636L197.71 56.9486C197.383 58.1786 196.757 59.1421 195.835 59.8391C194.912 60.5361 193.703 60.8846 192.207 60.8846ZM193.59 57.6866C194.267 57.6866 194.8 57.5124 195.189 57.1639C195.599 56.8154 195.804 56.3746 195.804 55.8416C195.804 55.2676 195.599 54.8166 195.189 54.4886C194.8 54.1606 194.267 53.9966 193.59 53.9966C192.914 53.9966 192.381 54.1606 191.991 54.4886C191.602 54.8166 191.407 55.2676 191.407 55.8416C191.407 56.3746 191.602 56.8154 191.991 57.1639C192.381 57.5124 192.914 57.6866 193.59 57.6866Z" fill="#DA93E2"/>
<path d="M208.683 60.9461C207.474 60.9461 206.336 60.7103 205.27 60.2388C204.225 59.7674 203.271 58.9576 202.411 57.8096L204.963 55.3496C205.66 56.0671 206.326 56.5796 206.961 56.8871C207.597 57.1946 208.294 57.3484 209.052 57.3484C209.503 57.3484 209.862 57.2561 210.128 57.0716C210.415 56.8666 210.559 56.6206 210.559 56.3336C210.559 56.0876 210.477 55.8826 210.313 55.7186C210.149 55.5546 209.841 55.3906 209.39 55.2266C208.939 55.0626 208.283 54.8679 207.422 54.6424C205.844 54.2529 204.665 53.6891 203.886 52.9511C203.128 52.1927 202.749 51.1882 202.749 49.9377C202.749 49.0357 202.985 48.2157 203.456 47.4777C203.927 46.7192 204.604 46.1144 205.485 45.6634C206.367 45.2125 207.412 44.987 208.622 44.987C210.056 44.987 211.276 45.2637 212.281 45.8172C213.285 46.3502 214.115 47.0062 214.771 47.7852L212.004 50.1529C211.553 49.7429 211.01 49.3944 210.374 49.1074C209.739 48.8204 209.021 48.6769 208.222 48.6769C207.791 48.6769 207.422 48.7589 207.115 48.9229C206.807 49.0869 206.654 49.3329 206.654 49.6609C206.654 49.9684 206.838 50.2247 207.207 50.4297C207.576 50.6347 208.314 50.8704 209.421 51.1369C211.286 51.5879 212.619 52.1927 213.418 52.9511C214.238 53.7096 214.648 54.7244 214.648 55.9954C214.648 56.9794 214.392 57.8506 213.879 58.6091C213.367 59.3471 212.66 59.9211 211.758 60.3311C210.856 60.7411 209.831 60.9461 208.683 60.9461Z" fill="#DA93E2"/>
<path d="M228.923 56.5181V60.4848H216.47V57.0101L225.141 47.3547L226.832 49.4149H216.624V45.4482H228.8V48.9229L220.099 58.6091L218.715 56.5181H228.923Z" fill="#DA93E2"/>
<path d="M240.9 45.0792C241.904 45.0792 242.724 45.2534 243.36 45.6019C243.995 45.9299 244.477 46.3912 244.805 46.9857C245.153 47.5802 245.379 48.2567 245.481 49.0152C245.604 49.7532 245.666 50.5219 245.666 51.3214V60.4848H241.177V51.5674C241.177 50.7064 241.023 50.1427 240.715 49.8762C240.408 49.5892 239.998 49.4457 239.486 49.4457C239.055 49.4457 238.604 49.5379 238.133 49.7224C237.682 49.8864 237.241 50.1222 236.81 50.4297C236.38 50.7372 236.001 51.0857 235.673 51.4752L234.873 49.1997H236.134V60.4848H231.645V45.4482H234.966L235.888 48.4309L234.351 48.3079C234.884 47.7134 235.488 47.1702 236.165 46.6782C236.841 46.1862 237.579 45.7967 238.379 45.5097C239.178 45.2227 240.018 45.0792 240.9 45.0792Z" fill="#DA93E2"/>
<path d="M253.161 60.8846C252.075 60.8846 251.112 60.6796 250.271 60.2696C249.451 59.8391 248.816 59.2446 248.365 58.4861C247.914 57.7276 247.688 56.8461 247.688 55.8416C247.688 54.7756 247.934 53.8736 248.426 53.1356C248.918 52.3772 249.574 51.7929 250.394 51.3829C251.235 50.9729 252.167 50.7679 253.192 50.7679C254.689 50.7679 255.898 51.1062 256.82 51.7827C257.743 52.4592 258.358 53.4329 258.665 54.7039L256.728 54.3656V50.8602C256.728 50.3067 256.533 49.8249 256.144 49.4149C255.755 49.0049 255.129 48.7999 254.268 48.7999C253.715 48.7999 253.079 48.8717 252.362 49.0152C251.645 49.1382 250.907 49.3842 250.148 49.7532L248.826 46.5552C249.728 46.1042 250.691 45.7454 251.716 45.4789C252.762 45.2124 253.828 45.0792 254.914 45.0792C256.308 45.0792 257.476 45.3252 258.419 45.8172C259.362 46.3092 260.059 47.0062 260.51 47.9082C260.982 48.8102 261.217 49.8557 261.217 51.0447V60.4848H257.558L256.667 57.5636L258.665 56.9486C258.337 58.1786 257.712 59.1421 256.79 59.8391C255.867 60.5361 254.658 60.8846 253.161 60.8846ZM254.545 57.6866C255.222 57.6866 255.755 57.5124 256.144 57.1639C256.554 56.8154 256.759 56.3746 256.759 55.8416C256.759 55.2676 256.554 54.8166 256.144 54.4886C255.755 54.1606 255.222 53.9966 254.545 53.9966C253.869 53.9966 253.336 54.1606 252.946 54.4886C252.557 54.8166 252.362 55.2676 252.362 55.8416C252.362 56.3746 252.557 56.8154 252.946 57.1639C253.336 57.5124 253.869 57.6866 254.545 57.6866ZM254.76 43.634L252.639 41.42L257.528 36.8998L259.711 39.083L254.76 43.634Z" fill="#DA93E2"/>
<path d="M268.226 60.6386C267.468 60.6386 266.771 60.4848 266.136 60.1773C265.5 59.8699 264.988 59.3984 264.598 58.7629C264.209 58.1069 264.014 57.2356 264.014 56.1491V39.5442H268.472V54.5501C268.472 55.3086 268.606 55.8006 268.872 56.0261C269.159 56.2311 269.518 56.3336 269.948 56.3336V60.4848C269.743 60.5258 269.467 60.5566 269.118 60.5771C268.79 60.6181 268.493 60.6386 268.226 60.6386Z" fill="#DA93E2"/>
<path d="M277.805 60.9461C276.596 60.9461 275.458 60.7103 274.392 60.2388C273.347 59.7674 272.394 58.9576 271.533 57.8096L274.085 55.3496C274.782 56.0671 275.448 56.5796 276.083 56.8871C276.719 57.1946 277.416 57.3484 278.174 57.3484C278.625 57.3484 278.984 57.2561 279.25 57.0716C279.537 56.8666 279.681 56.6206 279.681 56.3336C279.681 56.0876 279.599 55.8826 279.435 55.7186C279.271 55.5546 278.963 55.3906 278.512 55.2266C278.061 55.0626 277.406 54.8679 276.545 54.6424C274.966 54.2529 273.788 53.6891 273.009 52.9511C272.25 52.1927 271.871 51.1882 271.871 49.9377C271.871 49.0357 272.107 48.2157 272.578 47.4777C273.05 46.7192 273.726 46.1144 274.607 45.6634C275.489 45.2125 276.534 44.987 277.744 44.987C279.179 44.987 280.398 45.2637 281.403 45.8172C282.407 46.3502 283.237 47.0062 283.893 47.7852L281.126 50.1529C280.675 49.7429 280.132 49.3944 279.496 49.1074C278.861 48.8204 278.144 48.6769 277.344 48.6769C276.914 48.6769 276.545 48.7589 276.237 48.9229C275.93 49.0869 275.776 49.3329 275.776 49.6609C275.776 49.9684 275.96 50.2247 276.329 50.4297C276.698 50.6347 277.436 50.8704 278.543 51.1369C280.409 51.5879 281.741 52.1927 282.54 52.9511C283.36 53.7096 283.77 54.7244 283.77 55.9954C283.77 56.9794 283.514 57.8506 283.002 58.6091C282.489 59.3471 281.782 59.9211 280.88 60.3311C279.978 60.7411 278.953 60.9461 277.805 60.9461Z" fill="#DA93E2"/>
<path d="M298.045 56.5181V60.4848H285.593V57.0101L294.263 47.3547L295.955 49.4149H285.746V45.4482H297.922V48.9229L289.221 58.6091L287.837 56.5181H298.045Z" fill="#DA93E2"/>
<path d="M313.336 60.8846C312.249 60.8846 311.286 60.6796 310.445 60.2696C309.625 59.8391 308.99 59.2446 308.539 58.4861C308.088 57.7276 307.863 56.8461 307.863 55.8416C307.863 54.7756 308.109 53.8736 308.6 53.1356C309.092 52.3772 309.748 51.7929 310.568 51.3829C311.409 50.9729 312.341 50.7679 313.366 50.7679C314.863 50.7679 316.072 51.1062 316.995 51.7827C317.917 52.4592 318.532 53.4329 318.839 54.7039L316.902 54.3656V50.8602C316.902 50.3067 316.708 49.8249 316.318 49.4149C315.929 49.0049 315.303 48.7999 314.443 48.7999C313.889 48.7999 313.254 48.8717 312.536 49.0152C311.819 49.1382 311.081 49.3842 310.322 49.7532L309 46.5552C309.902 46.1042 310.866 45.7454 311.89 45.4789C312.936 45.2124 314.002 45.0792 315.088 45.0792C316.482 45.0792 317.651 45.3252 318.593 45.8172C319.536 46.3092 320.233 47.0062 320.684 47.9082C321.156 48.8102 321.392 49.8557 321.392 51.0447V60.4848H317.733L316.841 57.5636L318.839 56.9486C318.511 58.1786 317.886 59.1421 316.964 59.8391C316.041 60.5361 314.832 60.8846 313.336 60.8846ZM314.719 57.6866C315.396 57.6866 315.929 57.5124 316.318 57.1639C316.728 56.8154 316.933 56.3746 316.933 55.8416C316.933 55.2676 316.728 54.8166 316.318 54.4886C315.929 54.1606 315.396 53.9966 314.719 53.9966C314.043 53.9966 313.51 54.1606 313.12 54.4886C312.731 54.8166 312.536 55.2676 312.536 55.8416C312.536 56.3746 312.731 56.8154 313.12 57.1639C313.51 57.5124 314.043 57.6866 314.719 57.6866Z" fill="#DA93E2"/>
<path d="M61.5655 97.5383C60.807 97.5383 60.1101 97.3846 59.4746 97.0771C58.8392 96.7696 58.3267 96.2981 57.9372 95.6626C57.5478 95.0066 57.353 94.1354 57.353 93.0489V76.444H61.8115V91.4499C61.8115 92.2084 61.9447 92.7004 62.2112 92.9259C62.4982 93.1309 62.8569 93.2334 63.2873 93.2334V97.3846C63.0824 97.4256 62.8056 97.4564 62.4572 97.4769C62.1292 97.5179 61.8319 97.5383 61.5655 97.5383Z" fill="#DA93E2"/>
<path d="M72.282 97.6614C70.7856 97.6614 69.4635 97.3436 68.3155 96.7081C67.1881 96.0726 66.3067 95.1706 65.6712 94.0021C65.0563 92.8336 64.7488 91.4601 64.7488 89.8817C64.7488 88.3237 65.0563 86.9502 65.6712 85.7612C66.3067 84.5722 67.1881 83.6497 68.3155 82.9937C69.4635 82.3172 70.7856 81.979 72.282 81.979C73.8194 81.979 75.1518 82.3275 76.2792 83.0244C77.4066 83.7214 78.2778 84.6644 78.8927 85.8534C79.5077 87.0219 79.8152 88.3442 79.8152 89.8202C79.8152 90.0867 79.8049 90.3429 79.7844 90.5889C79.7639 90.8349 79.7434 91.0296 79.7229 91.1731H68.2541V87.9752H76.2792L75.7565 89.2974C75.7565 88.1699 75.4695 87.2474 74.8955 86.5299C74.3421 85.8124 73.4812 85.4537 72.3127 85.4537C71.2673 85.4537 70.4269 85.7714 69.7914 86.4069C69.1765 87.0424 68.869 87.8829 68.869 88.9284V90.6196C68.869 91.7471 69.1867 92.6286 69.8222 93.2641C70.4781 93.8791 71.3801 94.1866 72.528 94.1866C73.4914 94.1866 74.2498 93.9919 74.8033 93.6024C75.3773 93.2129 75.859 92.7311 76.2484 92.1571L79.2925 93.8484C78.6365 95.0579 77.7141 96.0009 76.5252 96.6774C75.3363 97.3334 73.9219 97.6614 72.282 97.6614Z" fill="#DA93E2"/>
<path d="M88.7683 103.535C87.9688 103.535 87.1489 103.412 86.3085 103.166C85.4885 102.94 84.7301 102.54 84.0331 101.966C83.3362 101.413 82.752 100.675 82.2805 99.7523L82.0345 99.2296L85.263 97.5691C85.7755 98.3686 86.288 98.9426 86.8004 99.2911C87.3334 99.6396 88.0098 99.8138 88.8298 99.8138C89.7727 99.8138 90.5414 99.5063 91.1358 98.8913C91.7303 98.2968 92.0275 97.3949 92.0275 96.1854V92.1264H92.335V86.1302H92.0275L93.1652 82.348H96.5167V95.2321C96.5167 96.9951 96.2092 98.5018 95.5942 99.7523C94.9793 101.003 94.0876 101.946 92.9192 102.581C91.7713 103.217 90.3876 103.535 88.7683 103.535ZM88.1841 96.5851C86.8312 96.5851 85.632 96.2776 84.5866 95.6626C83.5617 95.0476 82.7417 94.1866 82.1268 93.0796C81.5323 91.9726 81.2351 90.7119 81.2351 89.2974C81.2351 87.8624 81.5221 86.6017 82.096 85.5152C82.6905 84.4082 83.5104 83.5472 84.5558 82.9322C85.6013 82.2967 86.7902 81.979 88.1226 81.979C89.373 81.979 90.4696 82.2864 91.4126 82.9014C92.3555 83.5164 93.0934 84.3672 93.6264 85.4537C94.1594 86.5402 94.4258 87.8214 94.4258 89.2974C94.4258 90.8144 94.1696 92.1161 93.6571 93.2026C93.1447 94.2891 92.417 95.1296 91.4741 95.7241C90.5516 96.2981 89.455 96.5851 88.1841 96.5851ZM89.045 92.6491C89.9879 92.6491 90.7566 92.3314 91.3511 91.6959C91.966 91.0604 92.2735 90.2609 92.2735 89.2974C92.2735 88.2929 91.966 87.4729 91.3511 86.8374C90.7566 86.2019 89.9879 85.8842 89.045 85.8842C88.1021 85.8842 87.3231 86.2019 86.7082 86.8374C86.1137 87.4729 85.8165 88.2929 85.8165 89.2974C85.8165 90.2609 86.1137 91.0604 86.7082 91.6959C87.3231 92.3314 88.1021 92.6491 89.045 92.6491Z" fill="#DA93E2"/>
<path d="M106.274 103.535C105.475 103.535 104.655 103.412 103.814 103.166C102.994 102.94 102.236 102.54 101.539 101.966C100.842 101.413 100.258 100.675 99.7863 99.7523L99.5403 99.2296L102.769 97.5691C103.281 98.3686 103.794 98.9426 104.306 99.2911C104.839 99.6396 105.516 99.8138 106.336 99.8138C107.278 99.8138 108.047 99.5063 108.642 98.8913C109.236 98.2968 109.533 97.3949 109.533 96.1854V92.1264H109.841V86.1302H109.533L110.671 82.348H114.022V95.2321C114.022 96.9951 113.715 98.5018 113.1 99.7523C112.485 101.003 111.593 101.946 110.425 102.581C109.277 103.217 107.893 103.535 106.274 103.535ZM105.69 96.5851C104.337 96.5851 103.138 96.2776 102.092 95.6626C101.067 95.0476 100.247 94.1866 99.6325 93.0796C99.0381 91.9726 98.7408 90.7119 98.7408 89.2974C98.7408 87.8624 99.0278 86.6017 99.6018 85.5152C100.196 84.4082 101.016 83.5472 102.062 82.9322C103.107 82.2967 104.296 81.979 105.628 81.979C106.879 81.979 107.975 82.2864 108.918 82.9014C109.861 83.5164 110.599 84.3672 111.132 85.4537C111.665 86.5402 111.932 87.8214 111.932 89.2974C111.932 90.8144 111.675 92.1161 111.163 93.2026C110.65 94.2891 109.923 95.1296 108.98 95.7241C108.057 96.2981 106.961 96.5851 105.69 96.5851ZM106.551 92.6491C107.494 92.6491 108.262 92.3314 108.857 91.6959C109.472 91.0604 109.779 90.2609 109.779 89.2974C109.779 88.2929 109.472 87.4729 108.857 86.8374C108.262 86.2019 107.494 85.8842 106.551 85.8842C105.608 85.8842 104.829 86.2019 104.214 86.8374C103.619 87.4729 103.322 88.2929 103.322 89.2974C103.322 90.2609 103.619 91.0604 104.214 91.6959C104.829 92.3314 105.608 92.6491 106.551 92.6491Z" fill="#DA93E2"/>
<path d="M121.931 96.2469L115.905 82.348H120.455L126.174 95.5704L121.931 96.2469ZM118.703 103.227L127.773 82.348H132.324L123.284 103.227H118.703Z" fill="#DA93E2"/>
<path d="M137.843 97.7844C136.756 97.7844 135.793 97.5794 134.952 97.1694C134.133 96.7389 133.497 96.1444 133.046 95.3859C132.595 94.6274 132.37 93.7459 132.37 92.7414C132.37 91.6754 132.616 90.7734 133.108 90.0354C133.6 89.2769 134.256 88.6927 135.075 88.2827C135.916 87.8727 136.849 87.6677 137.873 87.6677C139.37 87.6677 140.579 88.0059 141.502 88.6824C142.424 89.3589 143.039 90.3327 143.347 91.6036L141.409 91.2654V87.7599C141.409 87.2064 141.215 86.7247 140.825 86.3147C140.436 85.9047 139.811 85.6997 138.95 85.6997C138.396 85.6997 137.761 85.7714 137.043 85.9149C136.326 86.0379 135.588 86.2839 134.829 86.6529L133.507 83.4549C134.409 83.0039 135.373 82.6452 136.398 82.3787C137.443 82.1122 138.509 81.979 139.595 81.979C140.989 81.979 142.158 82.225 143.101 82.7169C144.044 83.2089 144.74 83.9059 145.191 84.8079C145.663 85.7099 145.899 86.7554 145.899 87.9444V97.3846H142.24L141.348 94.4634L143.347 93.8484C143.019 95.0784 142.393 96.0419 141.471 96.7389C140.549 97.4359 139.339 97.7844 137.843 97.7844ZM139.226 94.5864C139.903 94.5864 140.436 94.4121 140.825 94.0636C141.235 93.7151 141.44 93.2744 141.44 92.7414C141.44 92.1674 141.235 91.7164 140.825 91.3884C140.436 91.0604 139.903 90.8964 139.226 90.8964C138.55 90.8964 138.017 91.0604 137.628 91.3884C137.238 91.7164 137.043 92.1674 137.043 92.7414C137.043 93.2744 137.238 93.7151 137.628 94.0636C138.017 94.4121 138.55 94.5864 139.226 94.5864Z" fill="#DA93E2"/>
<path d="M151.981 89.8202V89.2359L158.13 82.348H163.173L156.347 90.0662L156.224 88.5902L163.327 97.3846H158.1L151.981 89.8202ZM148.875 76.444H153.334V97.3846H148.875V76.444Z" fill="#DA93E2"/>
<path d="M167.93 82.348L169.099 86.4992V97.3846H164.61V82.348H167.93ZM168.115 88.9899L167.346 88.6517V85.1769L167.623 84.8079C167.869 84.4594 168.217 84.0597 168.668 83.6087C169.14 83.1577 169.683 82.7784 170.298 82.471C170.933 82.143 171.579 81.979 172.235 81.979C172.563 81.979 172.86 81.9995 173.127 82.0405C173.393 82.0815 173.608 82.1532 173.772 82.2557V86.3454H172.758C171.446 86.3454 170.411 86.5607 169.652 86.9912C168.914 87.4012 168.402 88.0674 168.115 88.9899Z" fill="#DA93E2"/>
<path d="M179.73 97.7844C178.644 97.7844 177.681 97.5794 176.84 97.1694C176.02 96.7389 175.385 96.1444 174.934 95.3859C174.483 94.6274 174.257 93.7459 174.257 92.7414C174.257 91.6754 174.503 90.7734 174.995 90.0354C175.487 89.2769 176.143 88.6927 176.963 88.2827C177.804 87.8727 178.736 87.6677 179.761 87.6677C181.258 87.6677 182.467 88.0059 183.389 88.6824C184.312 89.3589 184.927 90.3327 185.234 91.6036L183.297 91.2654V87.7599C183.297 87.2064 183.102 86.7247 182.713 86.3147C182.323 85.9047 181.698 85.6997 180.837 85.6997C180.284 85.6997 179.648 85.7714 178.931 85.9149C178.214 86.0379 177.476 86.2839 176.717 86.6529L175.395 83.4549C176.297 83.0039 177.26 82.6452 178.285 82.3787C179.331 82.1122 180.397 81.979 181.483 81.979C182.877 81.979 184.045 82.225 184.988 82.7169C185.931 83.2089 186.628 83.9059 187.079 84.8079C187.551 85.7099 187.786 86.7554 187.786 87.9444V97.3846H184.127L183.236 94.4634L185.234 93.8484C184.906 95.0784 184.281 96.0419 183.359 96.7389C182.436 97.4359 181.227 97.7844 179.73 97.7844ZM181.114 94.5864C181.791 94.5864 182.323 94.4121 182.713 94.0636C183.123 93.7151 183.328 93.2744 183.328 92.7414C183.328 92.1674 183.123 91.7164 182.713 91.3884C182.323 91.0604 181.791 90.8964 181.114 90.8964C180.438 90.8964 179.905 91.0604 179.515 91.3884C179.126 91.7164 178.931 92.1674 178.931 92.7414C178.931 93.2744 179.126 93.7151 179.515 94.0636C179.905 94.4121 180.438 94.5864 181.114 94.5864Z" fill="#DA93E2"/>
<path d="M199.096 97.7536C197.784 97.7536 196.636 97.4359 195.652 96.8004C194.668 96.1444 193.899 95.2321 193.346 94.0636C192.813 92.8746 192.546 91.4704 192.546 89.8509C192.546 88.1494 192.813 86.7144 193.346 85.5459C193.879 84.3774 194.627 83.4959 195.59 82.9014C196.574 82.2864 197.733 81.979 199.065 81.979C200.418 81.979 201.617 82.3172 202.662 82.9937C203.708 83.6497 204.528 84.5722 205.122 85.7612C205.717 86.9502 206.014 88.3134 206.014 89.8509C206.014 91.3884 205.717 92.7619 205.122 93.9714C204.548 95.1604 203.739 96.0931 202.693 96.7696C201.668 97.4256 200.469 97.7536 199.096 97.7536ZM190.763 97.3846V76.444H195.252V86.5299H194.975V93.5409H195.252L194.115 97.3846H190.763ZM198.235 93.5409C199.157 93.5409 199.916 93.2026 200.51 92.5261C201.125 91.8291 201.433 90.9374 201.433 89.8509C201.433 88.7849 201.125 87.9137 200.51 87.2372C199.916 86.5402 199.157 86.1917 198.235 86.1917C197.333 86.1917 196.574 86.5402 195.959 87.2372C195.344 87.9137 195.037 88.7849 195.037 89.8509C195.037 90.9374 195.344 91.8291 195.959 92.5261C196.574 93.2026 197.333 93.5409 198.235 93.5409Z" fill="#DA93E2"/>
<path d="M216.421 97.7536C215.109 97.7536 213.961 97.4359 212.978 96.8004C211.994 96.1444 211.225 95.2321 210.671 94.0636C210.139 92.8746 209.872 91.4704 209.872 89.8509C209.872 88.1494 210.139 86.7144 210.671 85.5459C211.204 84.3774 211.953 83.4959 212.916 82.9014C213.9 82.2864 215.058 81.979 216.391 81.979C217.743 81.979 218.943 82.3172 219.988 82.9937C221.033 83.6497 221.853 84.5722 222.448 85.7612C223.042 86.9502 223.34 88.3134 223.34 89.8509C223.34 91.3884 223.042 92.7619 222.448 93.9714C221.874 95.1604 221.064 96.0931 220.019 96.7696C218.994 97.4256 217.795 97.7536 216.421 97.7536ZM208.089 97.3846V76.444H212.578V86.5299H212.301V93.5409H212.578L211.44 97.3846H208.089ZM215.56 93.5409C216.483 93.5409 217.241 93.2026 217.836 92.5261C218.451 91.8291 218.758 90.9374 218.758 89.8509C218.758 88.7849 218.451 87.9137 217.836 87.2372C217.241 86.5402 216.483 86.1917 215.56 86.1917C214.658 86.1917 213.9 86.5402 213.285 87.2372C212.67 87.9137 212.363 88.7849 212.363 89.8509C212.363 90.9374 212.67 91.8291 213.285 92.5261C213.9 93.2026 214.658 93.5409 215.56 93.5409Z" fill="#DA93E2"/>
<path d="M229.876 97.7844C228.789 97.7844 227.826 97.5794 226.985 97.1694C226.165 96.7389 225.53 96.1444 225.079 95.3859C224.628 94.6274 224.402 93.7459 224.402 92.7414C224.402 91.6754 224.648 90.7734 225.14 90.0354C225.632 89.2769 226.288 88.6927 227.108 88.2827C227.949 87.8727 228.881 87.6677 229.906 87.6677C231.403 87.6677 232.612 88.0059 233.535 88.6824C234.457 89.3589 235.072 90.3327 235.379 91.6036L233.442 91.2654V87.7599C233.442 87.2064 233.248 86.7247 232.858 86.3147C232.469 85.9047 231.843 85.6997 230.982 85.6997C230.429 85.6997 229.794 85.7714 229.076 85.9149C228.359 86.0379 227.621 86.2839 226.862 86.6529L225.54 83.4549C226.442 83.0039 227.405 82.6452 228.43 82.3787C229.476 82.1122 230.542 81.979 231.628 81.979C233.022 81.979 234.19 82.225 235.133 82.7169C236.076 83.2089 236.773 83.9059 237.224 84.8079C237.696 85.7099 237.931 86.7554 237.931 87.9444V97.3846H234.272L233.381 94.4634L235.379 93.8484C235.051 95.0784 234.426 96.0419 233.504 96.7389C232.581 97.4359 231.372 97.7844 229.876 97.7844ZM231.259 94.5864C231.936 94.5864 232.469 94.4121 232.858 94.0636C233.268 93.7151 233.473 93.2744 233.473 92.7414C233.473 92.1674 233.268 91.7164 232.858 91.3884C232.469 91.0604 231.936 90.8964 231.259 90.8964C230.583 90.8964 230.05 91.0604 229.66 91.3884C229.271 91.7164 229.076 92.1674 229.076 92.7414C229.076 93.2744 229.271 93.7151 229.66 94.0636C230.05 94.4121 230.583 94.5864 231.259 94.5864Z" fill="#DA93E2"/>
<path d="M250.163 81.979C251.168 81.979 251.988 82.1532 252.623 82.5017C253.259 82.8297 253.74 83.2909 254.068 83.8854C254.417 84.4799 254.642 85.1564 254.745 85.9149C254.868 86.6529 254.929 87.4217 254.929 88.2212V97.3846H250.44V88.4672C250.44 87.6062 250.286 87.0424 249.979 86.7759C249.671 86.4889 249.261 86.3454 248.749 86.3454C248.318 86.3454 247.867 86.4377 247.396 86.6222C246.945 86.7862 246.504 87.0219 246.074 87.3294C245.643 87.6369 245.264 87.9854 244.936 88.3749L244.137 86.0994H245.397V97.3846H240.908V82.348H244.229L245.151 85.3307L243.614 85.2077C244.147 84.6132 244.752 84.0699 245.428 83.5779C246.105 83.0859 246.842 82.6964 247.642 82.4094C248.441 82.1225 249.282 81.979 250.163 81.979Z" fill="#DA93E2"/>
<path d="M262.485 90.8349L260.241 87.3909L262.362 85.9457C263.244 85.3512 263.941 84.8489 264.453 84.4389C264.965 84.0084 265.334 83.5984 265.56 83.2089C265.785 82.7989 265.898 82.348 265.898 81.856C265.898 81.241 265.683 80.7387 265.252 80.3492C264.822 79.9392 264.279 79.7342 263.623 79.7342C263.069 79.7342 262.475 79.8777 261.839 80.1647C261.204 80.4312 260.456 80.9642 259.595 81.7637L258.611 82.6247L255.874 79.3652L256.551 78.7195C257.514 77.715 258.59 76.9052 259.779 76.2902C260.968 75.6752 262.28 75.3677 263.715 75.3677C265.088 75.3677 266.277 75.6445 267.282 76.198C268.307 76.7515 269.096 77.51 269.649 78.4735C270.203 79.4165 270.48 80.4722 270.48 81.6407C270.48 82.6247 270.305 83.5267 269.957 84.3467C269.629 85.1667 269.075 85.9559 268.296 86.7144C267.517 87.4729 266.482 88.2622 265.191 89.0822L262.485 90.8349ZM263.254 97.5999C262.454 97.5999 261.768 97.3231 261.194 96.7696C260.64 96.2161 260.364 95.5396 260.364 94.7401C260.364 93.9406 260.64 93.2641 261.194 92.7106C261.768 92.1366 262.454 91.8496 263.254 91.8496C264.053 91.8496 264.73 92.1366 265.283 92.7106C265.857 93.2641 266.144 93.9406 266.144 94.7401C266.144 95.5396 265.857 96.2161 265.283 96.7696C264.73 97.3231 264.053 97.5999 263.254 97.5999Z" fill="#DA93E2"/>
<path d="M325.977 258.803C333.621 298.31 326.654 339.263 306.383 373.977C286.113 408.691 253.932 434.78 215.879 447.351L164.5 290.34L325.977 258.803Z" fill="#6165E5"/>
<path d="M218.056 446.615C208.276 449.998 198.2 452.448 187.962 453.93L164.5 290.34L218.056 446.615Z" fill="#3D4091"/>
<path d="M190.233 453.585C180.017 455.211 169.671 455.865 159.333 455.538L164.5 290.34L190.233 453.585Z" fill="#DA93E2"/>
<path d="M173.109 455.393C141.497 457.058 110.079 449.523 82.6232 433.692C55.1677 417.862 32.8412 394.408 18.3225 366.145C3.80389 337.882 -2.29027 306.011 0.771243 274.355C3.83276 242.698 15.9199 212.602 35.5825 187.676C55.245 162.751 81.6479 144.054 111.623 133.831C141.598 123.607 173.873 122.291 204.574 130.039C235.276 137.787 263.1 154.271 284.709 177.513C306.318 200.755 320.794 229.768 326.4 261.071L164.5 290.34L173.109 455.393Z" fill="#F1C768"/>
<path d="M233.869 292.084C233.869 293.012 233.737 293.908 233.473 294.771C233.23 295.633 232.801 296.518 232.185 297.425C231.591 298.331 230.765 299.349 229.709 300.477L224.492 306.216L223.93 304.026H234.067V308.704H219.704V304.657L225.647 298.32C226.572 297.325 227.287 296.507 227.794 295.865C228.3 295.202 228.641 294.627 228.817 294.14C229.015 293.632 229.114 293.145 229.114 292.681C229.114 291.973 228.905 291.42 228.487 291.022C228.069 290.624 227.551 290.425 226.935 290.425C226.253 290.425 225.548 290.657 224.822 291.122C224.118 291.586 223.369 292.36 222.577 293.444L219.143 290.823C219.759 289.828 220.442 288.954 221.19 288.202C221.96 287.428 222.83 286.82 223.798 286.378C224.789 285.935 225.879 285.714 227.067 285.714C228.498 285.714 229.72 286.002 230.732 286.577C231.745 287.152 232.515 287.926 233.043 288.899C233.594 289.85 233.869 290.911 233.869 292.084Z" fill="#3D4091"/>
<path d="M250.926 292.084C250.926 293.012 250.794 293.908 250.53 294.771C250.288 295.633 249.858 296.518 249.242 297.425C248.648 298.331 247.822 299.349 246.766 300.477L241.549 306.216L240.988 304.026H251.124V308.704H236.761V304.657L242.704 298.32C243.629 297.325 244.344 296.507 244.851 295.865C245.357 295.202 245.698 294.627 245.874 294.14C246.072 293.632 246.171 293.145 246.171 292.681C246.171 291.973 245.962 291.42 245.544 291.022C245.126 290.624 244.609 290.425 243.992 290.425C243.31 290.425 242.605 290.657 241.879 291.122C241.175 291.586 240.426 292.36 239.634 293.444L236.2 290.823C236.816 289.828 237.499 288.954 238.247 288.202C239.017 287.428 239.887 286.82 240.855 286.378C241.846 285.935 242.936 285.714 244.124 285.714C245.555 285.714 246.777 286.002 247.789 286.577C248.802 287.152 249.572 287.926 250.1 288.899C250.651 289.85 250.926 290.911 250.926 292.084Z" fill="#3D4091"/>
<path d="M257.714 309.168L254.809 306.979L272.672 286.212L275.577 288.434L257.714 309.168ZM258.606 296.993C257.593 296.993 256.658 296.75 255.799 296.264C254.963 295.755 254.292 295.091 253.785 294.273C253.279 293.433 253.026 292.515 253.026 291.52C253.026 290.48 253.279 289.551 253.785 288.733C254.292 287.915 254.963 287.262 255.799 286.776C256.658 286.289 257.593 286.046 258.606 286.046C259.64 286.046 260.576 286.3 261.412 286.809C262.271 287.295 262.942 287.948 263.427 288.766C263.933 289.584 264.186 290.502 264.186 291.52C264.186 292.515 263.933 293.433 263.427 294.273C262.92 295.091 262.249 295.755 261.412 296.264C260.576 296.75 259.64 296.993 258.606 296.993ZM258.606 293.311C259.134 293.311 259.563 293.145 259.894 292.813C260.246 292.482 260.422 292.05 260.422 291.52C260.422 290.989 260.246 290.558 259.894 290.226C259.563 289.872 259.134 289.695 258.606 289.695C258.078 289.695 257.648 289.872 257.318 290.226C256.988 290.558 256.823 290.989 256.823 291.52C256.823 292.05 256.988 292.482 257.318 292.813C257.648 293.145 258.078 293.311 258.606 293.311ZM271.945 309.135C270.933 309.135 269.997 308.892 269.139 308.405C268.302 307.919 267.631 307.266 267.125 306.448C266.618 305.608 266.365 304.69 266.365 303.695C266.365 302.655 266.618 301.726 267.125 300.908C267.631 300.068 268.302 299.404 269.139 298.918C269.997 298.431 270.933 298.188 271.945 298.188C272.98 298.188 273.915 298.431 274.752 298.918C275.61 299.404 276.282 300.068 276.766 300.908C277.272 301.748 277.525 302.677 277.525 303.695C277.525 304.69 277.272 305.608 276.766 306.448C276.26 307.266 275.588 307.919 274.752 308.405C273.915 308.892 272.98 309.135 271.945 309.135ZM271.945 305.486C272.473 305.486 272.903 305.32 273.233 304.988C273.585 304.657 273.761 304.225 273.761 303.695C273.761 303.142 273.585 302.699 273.233 302.368C272.903 302.036 272.473 301.87 271.945 301.87C271.417 301.87 270.988 302.036 270.657 302.368C270.327 302.699 270.162 303.142 270.162 303.695C270.162 304.225 270.327 304.657 270.657 304.988C270.988 305.32 271.417 305.486 271.945 305.486Z" fill="#3D4091"/>
<path d="M188.591 348.987V328.685H193.444V348.987H188.591ZM181.921 331.073V326.395H200.246V331.073H181.921Z" fill="#3D4091"/>
<path d="M202.867 340.296H213.433V344.774H202.867V340.296ZM197.948 348.987L205.938 326.395H211.254L218.848 348.987H213.961L207.82 329.713H209.405L202.801 348.987H197.948Z" fill="#3D4091"/>
<path d="M219.881 348.987L223.844 326.395H228.169L233.551 341.855H233.32L238.702 326.395H243.027L247.022 348.987H242.168L240.617 338.902C240.419 337.553 240.231 336.215 240.055 334.888C239.901 333.539 239.769 332.19 239.659 330.841H241.013C240.661 332.301 240.308 333.672 239.956 334.954C239.626 336.237 239.23 337.531 238.768 338.836L235.334 348.722H231.537L228.103 338.836C227.641 337.509 227.233 336.215 226.881 334.954C226.551 333.672 226.21 332.301 225.858 330.841H227.211C227.101 332.19 226.969 333.539 226.815 334.888C226.661 336.215 226.474 337.553 226.254 338.902L224.702 348.987H219.881Z" fill="#3D4091"/>
<path d="M253.437 338.073H257.465C258.676 338.073 259.611 337.774 260.272 337.177C260.954 336.558 261.295 335.695 261.295 334.59C261.295 333.417 260.954 332.544 260.272 331.969C259.611 331.372 258.687 331.073 257.498 331.073H253.404L254.493 329.978V348.987H249.673V326.395H257.828C259.523 326.395 260.998 326.727 262.253 327.391C263.507 328.054 264.476 329.005 265.158 330.244C265.863 331.46 266.215 332.909 266.215 334.59C266.215 336.27 265.863 337.73 265.158 338.969C264.476 340.185 263.496 341.125 262.22 341.788C260.965 342.43 259.501 342.751 257.828 342.751H253.437V338.073Z" fill="#3D4091"/>
<path d="M267.635 337.708C267.635 336.005 267.91 334.446 268.46 333.03C269.033 331.593 269.836 330.354 270.871 329.315C271.905 328.253 273.127 327.435 274.536 326.86C275.944 326.285 277.507 325.997 279.224 325.997C280.897 325.997 282.438 326.285 283.847 326.86C285.277 327.435 286.51 328.253 287.545 329.315C288.579 330.354 289.372 331.593 289.922 333.03C290.494 334.446 290.78 336.005 290.78 337.708C290.78 339.411 290.494 340.981 289.922 342.419C289.372 343.834 288.579 345.073 287.545 346.134C286.51 347.174 285.277 347.981 283.847 348.556C282.438 349.109 280.897 349.385 279.224 349.385C277.507 349.385 275.944 349.109 274.536 348.556C273.127 347.981 271.905 347.174 270.871 346.134C269.836 345.073 269.033 343.834 268.46 342.419C267.91 340.981 267.635 339.411 267.635 337.708ZM272.554 337.708C272.554 339.101 272.841 340.318 273.413 341.357C273.985 342.397 274.767 343.204 275.757 343.779C276.77 344.354 277.925 344.641 279.224 344.641C280.501 344.641 281.634 344.354 282.625 343.779C283.637 343.204 284.43 342.397 285.002 341.357C285.575 340.318 285.861 339.09 285.861 337.675C285.861 336.281 285.575 335.065 285.002 334.026C284.43 332.986 283.637 332.19 282.625 331.637C281.634 331.062 280.501 330.775 279.224 330.775C277.925 330.775 276.77 331.062 275.757 331.637C274.767 332.212 273.985 333.019 273.413 334.059C272.841 335.076 272.554 336.293 272.554 337.708Z" fill="#3D4091"/>
<path d="M308.484 348.987L296.168 332.234L298.249 331.67V348.987H293.428V326.395H297.819L309.871 342.85L308.022 343.182V326.395H312.842V348.987H308.484Z" fill="#3D4091"/>
<path d="M82.9767 216.289L91.684 198.084L92.5425 199.655H82.2409V195.311H95.915V199.131L87.9435 216.289H82.9767Z" fill="#967B3F"/>
<path d="M104.868 216.659C103.192 216.659 101.741 216.361 100.515 215.766C99.3087 215.15 98.205 214.236 97.2034 213.024L100.055 210.282C100.688 210.96 101.353 211.463 102.048 211.792C102.743 212.12 103.519 212.285 104.378 212.285C105.379 212.285 106.146 212.059 106.677 211.607C107.229 211.155 107.505 210.57 107.505 209.851C107.505 209.235 107.331 208.742 106.984 208.372C106.657 207.982 106.197 207.705 105.604 207.541C105.011 207.356 104.327 207.263 103.55 207.263C103.305 207.263 103.049 207.274 102.783 207.294C102.518 207.294 102.242 207.315 101.956 207.356V203.444C102.283 203.485 102.548 203.516 102.753 203.536C102.957 203.536 103.162 203.536 103.366 203.536C104.449 203.536 105.277 203.341 105.849 202.951C106.422 202.561 106.708 202.006 106.708 201.287C106.708 200.671 106.493 200.189 106.064 199.84C105.655 199.49 105.073 199.316 104.316 199.316C103.581 199.316 102.896 199.501 102.262 199.87C101.629 200.219 101.005 200.753 100.392 201.472L97.51 198.577C98.6137 197.283 99.7277 196.359 100.852 195.804C101.996 195.229 103.305 194.942 104.776 194.942C106.105 194.942 107.249 195.188 108.21 195.681C109.171 196.174 109.896 196.841 110.387 197.683C110.898 198.525 111.153 199.49 111.153 200.579C111.153 202.304 110.54 203.69 109.314 204.737C108.088 205.764 106.371 206.278 104.163 206.278L104.194 204.275C105.768 204.275 107.147 204.512 108.333 204.984C109.518 205.436 110.428 206.113 111.061 207.017C111.716 207.921 112.043 209.019 112.043 210.313C112.043 211.484 111.756 212.552 111.184 213.517C110.632 214.462 109.815 215.221 108.731 215.796C107.669 216.371 106.381 216.659 104.868 216.659Z" fill="#967B3F"/>
<path d="M117.845 216.721L115.147 214.687L131.734 195.404L134.432 197.468L117.845 216.721ZM118.673 205.415C117.732 205.415 116.864 205.189 116.067 204.737C115.29 204.265 114.667 203.649 114.196 202.889C113.726 202.109 113.491 201.257 113.491 200.332C113.491 199.367 113.726 198.505 114.196 197.745C114.667 196.985 115.29 196.379 116.067 195.927C116.864 195.475 117.732 195.25 118.673 195.25C119.633 195.25 120.502 195.486 121.279 195.958C122.076 196.41 122.699 197.016 123.149 197.776C123.619 198.535 123.854 199.388 123.854 200.332C123.854 201.257 123.619 202.109 123.149 202.889C122.679 203.649 122.055 204.265 121.279 204.737C120.502 205.189 119.633 205.415 118.673 205.415ZM118.673 201.996C119.163 201.996 119.562 201.842 119.868 201.534C120.195 201.226 120.359 200.825 120.359 200.332C120.359 199.84 120.195 199.439 119.868 199.131C119.562 198.802 119.163 198.638 118.673 198.638C118.182 198.638 117.784 198.802 117.477 199.131C117.17 199.439 117.017 199.84 117.017 200.332C117.017 200.825 117.17 201.226 117.477 201.534C117.784 201.842 118.182 201.996 118.673 201.996ZM131.059 216.69C130.119 216.69 129.25 216.464 128.453 216.012C127.676 215.56 127.053 214.954 126.583 214.195C126.113 213.414 125.878 212.562 125.878 211.638C125.878 210.673 126.113 209.81 126.583 209.05C127.053 208.27 127.676 207.654 128.453 207.202C129.25 206.75 130.119 206.524 131.059 206.524C132.02 206.524 132.888 206.75 133.665 207.202C134.462 207.654 135.086 208.27 135.535 209.05C136.006 209.831 136.241 210.693 136.241 211.638C136.241 212.562 136.006 213.414 135.535 214.195C135.065 214.954 134.442 215.56 133.665 216.012C132.888 216.464 132.02 216.69 131.059 216.69ZM131.059 213.301C131.55 213.301 131.948 213.147 132.255 212.839C132.582 212.531 132.745 212.131 132.745 211.638C132.745 211.124 132.582 210.714 132.255 210.406C131.948 210.098 131.55 209.944 131.059 209.944C130.569 209.944 130.17 210.098 129.863 210.406C129.557 210.714 129.404 211.124 129.404 211.638C129.404 212.131 129.557 212.531 129.863 212.839C130.17 213.147 130.569 213.301 131.059 213.301Z" fill="#967B3F"/>
<path d="M28.4999 244.639V240.357H37.0845V244.639H28.4999ZM28.4079 236.322L29.9715 234.504V250.554L28.2546 248.736H38.7708V253.018H25.4953V232.04H38.7708V236.322H28.4079Z" fill="#967B3F"/>
<path d="M54.5959 253.018H41.9029V232.04H46.3791V250.369L45.2447 248.675H54.5959V253.018Z" fill="#967B3F"/>
<path d="M57.0829 253.018V232.04H64.3798C66.5464 232.04 68.4064 232.461 69.9599 233.303C71.5337 234.125 72.7397 235.326 73.5777 236.907C74.4361 238.468 74.8654 240.347 74.8654 242.545C74.8654 244.763 74.4361 246.652 73.5777 248.213C72.7397 249.773 71.5337 250.965 69.9599 251.786C68.386 252.607 66.5158 253.018 64.3492 253.018H57.0829ZM61.5592 250.369L59.7809 248.675H64.0426C65.2894 248.675 66.3727 248.469 67.2925 248.059C68.2327 247.627 68.9583 246.96 69.4693 246.056C70.0007 245.153 70.2664 243.982 70.2664 242.545C70.2664 241.128 70.0109 239.967 69.5 239.064C68.989 238.16 68.2634 237.493 67.3231 237.061C66.4034 236.609 65.3201 236.384 64.0732 236.384H59.5663L61.5592 235.059V250.369Z" fill="#967B3F"/>
<path d="M76.2769 242.545C76.2769 240.963 76.5324 239.515 77.0434 238.201C77.5748 236.866 78.3209 235.716 79.2815 234.751C80.2422 233.765 81.3766 233.005 82.6847 232.471C83.9929 231.937 85.4441 231.67 87.0384 231.67C88.5918 231.67 90.0225 231.937 91.3307 232.471C92.6593 233.005 93.8039 233.765 94.7646 234.751C95.7252 235.716 96.461 236.866 96.972 238.201C97.5035 239.515 97.7692 240.963 97.7692 242.545C97.7692 244.126 97.5035 245.584 96.972 246.919C96.461 248.233 95.7252 249.383 94.7646 250.369C93.8039 251.334 92.6593 252.084 91.3307 252.618C90.0225 253.131 88.5918 253.388 87.0384 253.388C85.4441 253.388 83.9929 253.131 82.6847 252.618C81.3766 252.084 80.2422 251.334 79.2815 250.369C78.3209 249.383 77.5748 248.233 77.0434 246.919C76.5324 245.584 76.2769 244.126 76.2769 242.545ZM80.8452 242.545C80.8452 243.838 81.1109 244.968 81.6423 245.933C82.1737 246.898 82.8993 247.648 83.8191 248.182C84.7593 248.716 85.8324 248.983 87.0384 248.983C88.2239 248.983 89.2765 248.716 90.1963 248.182C91.1365 247.648 91.8723 246.898 92.4038 245.933C92.9352 244.968 93.2009 243.828 93.2009 242.514C93.2009 241.22 92.9352 240.09 92.4038 239.125C91.8723 238.16 91.1365 237.421 90.1963 236.907C89.2765 236.373 88.2239 236.106 87.0384 236.106C85.8324 236.106 84.7593 236.373 83.8191 236.907C82.8993 237.441 82.1737 238.191 81.6423 239.156C81.1109 240.101 80.8452 241.23 80.8452 242.545Z" fill="#967B3F"/>
<path d="M100.228 253.018V232.04H107.709C109.426 232.04 110.805 232.256 111.848 232.687C112.89 233.118 113.646 233.765 114.116 234.628C114.607 235.47 114.852 236.527 114.852 237.801C114.852 238.807 114.627 239.7 114.178 240.481C113.748 241.24 113.156 241.836 112.399 242.267C111.643 242.699 110.785 242.914 109.824 242.914L109.916 241.928C111.122 241.928 112.124 242.154 112.921 242.606C113.718 243.058 114.321 243.674 114.73 244.454C115.138 245.235 115.343 246.118 115.343 247.104C115.343 249.075 114.74 250.554 113.534 251.54C112.348 252.525 110.591 253.018 108.26 253.018H100.228ZM104.704 234.35V250.492L103.11 248.706H108.199C108.996 248.706 109.62 248.51 110.069 248.12C110.539 247.73 110.775 247.196 110.775 246.518C110.775 245.779 110.55 245.225 110.1 244.855C109.671 244.485 109.058 244.3 108.26 244.3H103.11V240.419H107.801C108.618 240.419 109.231 240.255 109.64 239.926C110.049 239.598 110.253 239.084 110.253 238.386C110.253 237.749 110.039 237.256 109.609 236.907C109.201 236.538 108.598 236.353 107.801 236.353H103.232L104.704 234.35Z" fill="#967B3F"/>
<path d="M130.944 253.018V232.04H135.42V253.018H130.944ZM118.312 253.018V232.04H122.788V253.018H118.312ZM121.194 244.917V240.573H132.446V244.917H121.194Z" fill="#967B3F"/>
<path d="M141.917 244.947H151.728V249.106H141.917V244.947ZM137.349 253.018L144.769 232.04H149.705L156.757 253.018H152.219L146.516 235.121H147.988L141.856 253.018H137.349Z" fill="#967B3F"/>
<path d="M161.356 253.018V234.166H165.863V253.018H161.356ZM155.162 236.384V232.04H172.178V236.384H155.162Z" fill="#967B3F"/>
<path d="M172.387 242.545C172.387 240.963 172.643 239.515 173.154 238.201C173.685 236.866 174.431 235.716 175.392 234.751C176.352 233.765 177.487 233.005 178.795 232.471C180.103 231.937 181.554 231.67 183.149 231.67C184.702 231.67 186.133 231.937 187.441 232.471C188.769 233.005 189.914 233.765 190.875 234.751C191.835 235.716 192.571 236.866 193.082 238.201C193.614 239.515 193.879 240.963 193.879 242.545C193.879 244.126 193.614 245.584 193.082 246.919C192.571 248.233 191.835 249.383 190.875 250.369C189.914 251.334 188.769 252.084 187.441 252.618C186.133 253.131 184.702 253.388 183.149 253.388C181.554 253.388 180.103 253.131 178.795 252.618C177.487 252.084 176.352 251.334 175.392 250.369C174.431 249.383 173.685 248.233 173.154 246.919C172.643 245.584 172.387 244.126 172.387 242.545ZM176.955 242.545C176.955 243.838 177.221 244.968 177.752 245.933C178.284 246.898 179.01 247.648 179.929 248.182C180.87 248.716 181.943 248.983 183.149 248.983C184.334 248.983 185.387 248.716 186.306 248.182C187.247 247.648 187.983 246.898 188.514 245.933C189.045 244.968 189.311 243.828 189.311 242.514C189.311 241.22 189.045 240.09 188.514 239.125C187.983 238.16 187.247 237.421 186.306 236.907C185.387 236.373 184.334 236.106 183.149 236.106C181.943 236.106 180.87 236.373 179.929 236.907C179.01 237.441 178.284 238.191 177.752 239.156C177.221 240.101 176.955 241.23 176.955 242.545ZM182.934 230.223L180.818 228.005L185.693 223.476L187.87 225.663L182.934 230.223Z" fill="#967B3F"/>
<path d="M67.8616 289.747V268.769H75.3425C77.0594 268.769 78.4391 268.985 79.4815 269.416C80.524 269.847 81.2802 270.494 81.7503 271.357C82.2409 272.199 82.4862 273.256 82.4862 274.53C82.4862 275.536 82.2613 276.429 81.8116 277.21C81.3824 277.969 80.7897 278.565 80.0334 278.996C79.2771 279.428 78.4187 279.643 77.458 279.643L77.55 278.657C78.7559 278.657 79.7575 278.883 80.5546 279.335C81.3518 279.787 81.9547 280.403 82.3635 281.183C82.7723 281.964 82.9767 282.847 82.9767 283.833C82.9767 285.804 82.3737 287.283 81.1678 288.269C79.9823 289.254 78.2245 289.747 75.8944 289.747H67.8616ZM72.3379 271.079V287.221L70.7436 285.434H75.8331C76.6302 285.434 77.2536 285.239 77.7033 284.849C78.1734 284.459 78.4084 283.925 78.4084 283.247C78.4084 282.508 78.1836 281.953 77.7339 281.584C77.3047 281.214 76.6915 281.029 75.8944 281.029H70.7436V277.148H75.4345C76.2521 277.148 76.8653 276.984 77.274 276.655C77.6828 276.326 77.8872 275.813 77.8872 275.115C77.8872 274.478 77.6726 273.985 77.2434 273.636C76.8346 273.267 76.2316 273.082 75.4345 273.082H70.8662L72.3379 271.079Z" fill="#967B3F"/>
<path d="M88.9505 281.368V277.086H97.5352V281.368H88.9505ZM88.8585 273.051L90.4222 271.233V287.283L88.7052 285.465H99.2214V289.747H85.9459V268.769H99.2214V273.051H88.8585Z" fill="#967B3F"/>
<path d="M106.983 289.747V270.895H111.49V289.747H106.983ZM100.79 273.113V268.769H117.806V273.113H100.79Z" fill="#967B3F"/>
<path d="M122.963 281.368V277.086H131.548V281.368H122.963ZM122.871 273.051L124.435 271.233V287.283L122.718 285.465H133.234V289.747H119.959V268.769H133.234V273.051H122.871ZM126.428 266.952L124.312 264.734L129.187 260.205L131.364 262.392L126.428 266.952Z" fill="#967B3F"/>
<path d="M140.996 289.747V270.895H145.503V289.747H140.996ZM134.803 273.113V268.769H151.819V273.113H134.803Z" fill="#967B3F"/>
<path d="M23.5035 486.665C22.1588 486.665 20.9945 486.427 20.0106 485.951C19.0431 485.459 18.1575 484.73 17.354 483.762L19.6416 481.573C20.15 482.114 20.6829 482.516 21.2405 482.778C21.798 483.04 22.4212 483.172 23.1099 483.172C23.9135 483.172 24.5284 482.991 24.9548 482.63C25.3976 482.27 25.619 481.802 25.619 481.228C25.619 480.736 25.4796 480.343 25.2008 480.047C24.9384 479.736 24.5694 479.514 24.0939 479.383C23.6183 479.236 23.0689 479.162 22.4458 479.162C22.249 479.162 22.044 479.17 21.8308 479.186C21.6177 479.186 21.3963 479.203 21.1667 479.236V476.111C21.4291 476.144 21.6423 476.169 21.8062 476.185C21.9702 476.185 22.1342 476.185 22.2982 476.185C23.1673 476.185 23.8315 476.029 24.2907 475.718C24.7498 475.406 24.9794 474.963 24.9794 474.389C24.9794 473.897 24.8072 473.512 24.4628 473.233C24.1349 472.954 23.6675 472.815 23.0607 472.815C22.4704 472.815 21.921 472.963 21.4127 473.258C20.9043 473.537 20.4042 473.963 19.9122 474.537L17.6 472.225C18.4855 471.191 19.3792 470.453 20.2812 470.011C21.1995 469.551 22.249 469.322 23.4297 469.322C24.4956 469.322 25.414 469.519 26.1847 469.912C26.9555 470.306 27.5376 470.839 27.9312 471.511C28.3411 472.184 28.5461 472.954 28.5461 473.824C28.5461 475.201 28.0542 476.308 27.0702 477.145C26.0863 477.965 24.7088 478.375 22.9378 478.375L22.9624 476.776C24.2251 476.776 25.332 476.964 26.2831 477.341C27.2342 477.702 27.964 478.243 28.4723 478.965C28.9971 479.687 29.2595 480.564 29.2595 481.597C29.2595 482.532 29.0299 483.385 28.5707 484.156C28.128 484.91 27.472 485.517 26.6029 485.976C25.7501 486.435 24.717 486.665 23.5035 486.665Z" fill="#3D4091"/>
<path d="M33.9147 486.714L31.75 485.09L45.0576 469.691L47.2223 471.339L33.9147 486.714ZM34.5788 477.686C33.8245 477.686 33.1275 477.505 32.488 477.145C31.8648 476.767 31.3647 476.275 30.9875 475.669C30.6103 475.045 30.4217 474.365 30.4217 473.627C30.4217 472.856 30.6103 472.167 30.9875 471.56C31.3647 470.954 31.8648 470.47 32.488 470.109C33.1275 469.748 33.8245 469.568 34.5788 469.568C35.3496 469.568 36.0465 469.756 36.6697 470.134C37.3092 470.494 37.8094 470.978 38.1702 471.585C38.5473 472.192 38.7359 472.872 38.7359 473.627C38.7359 474.365 38.5473 475.045 38.1702 475.669C37.793 476.275 37.2928 476.767 36.6697 477.145C36.0465 477.505 35.3496 477.686 34.5788 477.686ZM34.5788 474.955C34.9724 474.955 35.2922 474.832 35.5382 474.586C35.8005 474.34 35.9317 474.02 35.9317 473.627C35.9317 473.233 35.8005 472.913 35.5382 472.667C35.2922 472.405 34.9724 472.274 34.5788 472.274C34.1853 472.274 33.8655 472.405 33.6195 472.667C33.3735 472.913 33.2505 473.233 33.2505 473.627C33.2505 474.02 33.3735 474.34 33.6195 474.586C33.8655 474.832 34.1853 474.955 34.5788 474.955ZM44.5165 486.689C43.7621 486.689 43.0652 486.509 42.4256 486.148C41.8025 485.787 41.3023 485.304 40.9251 484.697C40.548 484.074 40.3594 483.393 40.3594 482.655C40.3594 481.884 40.548 481.195 40.9251 480.589C41.3023 479.965 41.8025 479.473 42.4256 479.113C43.0652 478.752 43.7621 478.571 44.5165 478.571C45.2872 478.571 45.9842 478.752 46.6073 479.113C47.2469 479.473 47.747 479.965 48.1078 480.589C48.485 481.212 48.6736 481.901 48.6736 482.655C48.6736 483.393 48.485 484.074 48.1078 484.697C47.7306 485.304 47.2305 485.787 46.6073 486.148C45.9842 486.509 45.2872 486.689 44.5165 486.689ZM44.5165 483.983C44.91 483.983 45.2298 483.86 45.4758 483.614C45.7382 483.368 45.8694 483.049 45.8694 482.655C45.8694 482.245 45.7382 481.917 45.4758 481.671C45.2298 481.425 44.91 481.302 44.5165 481.302C44.1229 481.302 43.8031 481.425 43.5571 481.671C43.3112 481.917 43.1882 482.245 43.1882 482.655C43.1882 483.049 43.3112 483.368 43.5571 483.614C43.8031 483.86 44.1229 483.983 44.5165 483.983Z" fill="#3D4091"/>
<path d="M56.0305 486.37L58.9823 469.617H62.2046L66.2141 481.081H66.0419L70.0514 469.617H73.2738L76.2502 486.37H72.6342L71.4781 478.891C71.3305 477.891 71.1912 476.899 71.06 475.915C70.9452 474.914 70.8468 473.914 70.7648 472.913H71.7733C71.5109 473.996 71.2486 475.013 70.9862 475.964C70.7402 476.915 70.445 477.874 70.1006 478.842L67.5424 486.173H64.7136L62.1554 478.842C61.8111 477.858 61.5077 476.899 61.2453 475.964C60.9993 475.013 60.7451 473.996 60.4828 472.913H61.4913C61.4093 473.914 61.3109 474.914 61.1961 475.915C61.0813 476.899 60.9419 477.891 60.7779 478.891L59.6218 486.37H56.0305Z" fill="#3D4091"/>
<path d="M80.6356 479.678V476.259H87.523V479.678H80.6356ZM80.5618 473.036L81.8163 471.585V484.402L80.4388 482.95H88.8759V486.37H78.2249V469.617H88.8759V473.036H80.5618Z" fill="#3D4091"/>
<path d="M102.606 486.37L93.4304 473.947L94.9801 473.528V486.37H91.3888V469.617H94.6603L103.639 481.819L102.261 482.065V469.617H105.852V486.37H102.606Z" fill="#3D4091"/>
<path d="M114.585 486.788C113.617 486.788 112.707 486.648 111.855 486.37C111.018 486.074 110.264 485.64 109.592 485.066C108.936 484.475 108.378 483.721 107.919 482.803L110.723 481.056C111.199 481.843 111.781 482.442 112.47 482.852C113.158 483.262 113.929 483.467 114.782 483.467C115.52 483.467 116.077 483.311 116.454 482.999C116.832 482.688 117.02 482.278 117.02 481.769C117.02 481.441 116.93 481.163 116.75 480.933C116.586 480.687 116.282 480.457 115.84 480.244C115.397 480.031 114.757 479.826 113.921 479.629C112.56 479.301 111.477 478.891 110.674 478.399C109.887 477.907 109.329 477.325 109.001 476.653C108.673 475.964 108.509 475.201 108.509 474.365C108.509 473.381 108.747 472.512 109.223 471.757C109.715 470.986 110.412 470.38 111.313 469.937C112.215 469.494 113.29 469.273 114.536 469.273C115.946 469.273 117.135 469.551 118.103 470.109C119.086 470.667 119.874 471.396 120.464 472.298L117.66 474.242C117.233 473.684 116.717 473.282 116.11 473.036C115.52 472.79 114.929 472.667 114.339 472.667C113.634 472.667 113.085 472.807 112.691 473.086C112.314 473.348 112.125 473.725 112.125 474.217C112.125 474.676 112.322 475.062 112.716 475.373C113.109 475.669 113.88 475.947 115.028 476.21C116.405 476.538 117.512 476.94 118.349 477.415C119.185 477.891 119.792 478.473 120.169 479.162C120.546 479.851 120.735 480.679 120.735 481.646C120.735 482.63 120.48 483.508 119.972 484.279C119.48 485.049 118.775 485.664 117.857 486.124C116.938 486.566 115.848 486.788 114.585 486.788Z" fill="#3D4091"/>
<path d="M126.379 486.37V471.314H129.995V486.37H126.379ZM121.41 473.086V469.617H135.062V473.086H121.41Z" fill="#3D4091"/>
<path d="M136.79 486.37V469.617H142.964C144.161 469.617 145.227 469.855 146.162 470.33C147.113 470.806 147.859 471.478 148.4 472.348C148.958 473.217 149.236 474.25 149.236 475.447C149.236 476.661 148.958 477.702 148.4 478.571C147.859 479.441 147.113 480.113 146.162 480.589C145.227 481.048 144.161 481.277 142.964 481.277H139.594V477.809H142.693C143.595 477.809 144.292 477.612 144.784 477.218C145.292 476.808 145.547 476.218 145.547 475.447C145.547 474.676 145.292 474.094 144.784 473.701C144.292 473.291 143.595 473.086 142.693 473.086H139.569L140.381 472.274V486.37H136.79ZM145.473 486.37L141.906 479.555H145.842L149.408 486.37H145.473Z" fill="#3D4091"/>
<path d="M158.183 486.665C156.707 486.665 155.461 486.394 154.444 485.853C153.443 485.312 152.681 484.508 152.156 483.442C151.631 482.36 151.369 481.015 151.369 479.408V469.617H154.96V479.482C154.96 480.646 155.231 481.556 155.772 482.212C156.33 482.852 157.133 483.172 158.183 483.172C159.232 483.172 160.028 482.852 160.569 482.212C161.11 481.556 161.38 480.646 161.38 479.482V469.617H164.996V479.408C164.996 481.015 164.734 482.36 164.209 483.442C163.684 484.508 162.914 485.312 161.897 485.853C160.897 486.394 159.659 486.665 158.183 486.665Z" fill="#3D4091"/>
<path d="M169.565 479.924H177.436V483.245H169.565V479.924ZM165.9 486.37L171.852 469.617H175.813L181.47 486.37H177.83L173.254 472.077H174.435L169.516 486.37H165.9ZM173.697 468.166L172 466.394L175.911 462.778L177.658 464.525L173.697 468.166Z" fill="#3D4091"/>
<path d="M189.934 486.665C188.196 486.665 186.687 486.296 185.408 485.558C184.146 484.82 183.162 483.803 182.456 482.507C181.768 481.195 181.423 479.695 181.423 478.006C181.423 476.743 181.628 475.587 182.038 474.537C182.465 473.471 183.055 472.553 183.809 471.782C184.564 470.995 185.457 470.396 186.491 469.986C187.54 469.56 188.688 469.346 189.934 469.346C191.902 469.346 193.517 469.773 194.78 470.626C196.043 471.478 197.01 472.692 197.683 474.266L194.411 475.521C193.87 474.586 193.23 473.906 192.492 473.479C191.771 473.036 190.918 472.815 189.934 472.815C189 472.815 188.163 473.036 187.425 473.479C186.704 473.906 186.13 474.504 185.703 475.275C185.293 476.046 185.088 476.956 185.088 478.006C185.088 479.039 185.293 479.949 185.703 480.736C186.13 481.507 186.704 482.106 187.425 482.532C188.163 482.958 189 483.172 189.934 483.172C190.918 483.172 191.771 482.958 192.492 482.532C193.23 482.106 193.87 481.425 194.411 480.49L197.683 481.745C197.01 483.319 196.043 484.533 194.78 485.386C193.517 486.238 191.902 486.665 189.934 486.665Z" fill="#3D4091"/>
<path d="M203.101 486.37H199.51V469.617H203.101V486.37Z" fill="#3D4091"/>
<path d="M205.085 478.006C205.085 476.743 205.29 475.587 205.7 474.537C206.126 473.471 206.724 472.553 207.495 471.782C208.266 470.995 209.176 470.388 210.226 469.961C211.275 469.535 212.439 469.322 213.719 469.322C214.965 469.322 216.113 469.535 217.162 469.961C218.228 470.388 219.147 470.995 219.917 471.782C220.688 472.553 221.278 473.471 221.688 474.537C222.115 475.587 222.328 476.743 222.328 478.006C222.328 479.268 222.115 480.433 221.688 481.499C221.278 482.548 220.688 483.467 219.917 484.254C219.147 485.025 218.228 485.623 217.162 486.05C216.113 486.46 214.965 486.665 213.719 486.665C212.439 486.665 211.275 486.46 210.226 486.05C209.176 485.623 208.266 485.025 207.495 484.254C206.724 483.467 206.126 482.548 205.7 481.499C205.29 480.433 205.085 479.268 205.085 478.006ZM208.75 478.006C208.75 479.039 208.963 479.941 209.389 480.712C209.816 481.482 210.398 482.081 211.136 482.507C211.89 482.934 212.751 483.147 213.719 483.147C214.67 483.147 215.514 482.934 216.252 482.507C217.007 482.081 217.597 481.482 218.023 480.712C218.45 479.941 218.663 479.031 218.663 477.981C218.663 476.948 218.45 476.046 218.023 475.275C217.597 474.504 217.007 473.914 216.252 473.504C215.514 473.077 214.67 472.864 213.719 472.864C212.751 472.864 211.89 473.077 211.136 473.504C210.398 473.93 209.816 474.529 209.389 475.3C208.963 476.054 208.75 476.956 208.75 478.006ZM213.546 468.166L211.849 466.394L215.76 462.778L217.507 464.525L213.546 468.166Z" fill="#3D4091"/>
<path d="M230.105 486.788C229.137 486.788 228.227 486.648 227.375 486.37C226.538 486.074 225.784 485.64 225.112 485.066C224.456 484.475 223.898 483.721 223.439 482.803L226.243 481.056C226.719 481.843 227.301 482.442 227.989 482.852C228.678 483.262 229.449 483.467 230.302 483.467C231.04 483.467 231.597 483.311 231.974 482.999C232.352 482.688 232.54 482.278 232.54 481.769C232.54 481.441 232.45 481.163 232.27 480.933C232.106 480.687 231.802 480.457 231.359 480.244C230.917 480.031 230.277 479.826 229.441 479.629C228.08 479.301 226.997 478.891 226.194 478.399C225.407 477.907 224.849 477.325 224.521 476.653C224.193 475.964 224.029 475.201 224.029 474.365C224.029 473.381 224.267 472.512 224.743 471.757C225.235 470.986 225.931 470.38 226.833 469.937C227.735 469.494 228.809 469.273 230.056 469.273C231.466 469.273 232.655 469.551 233.622 470.109C234.606 470.667 235.394 471.396 235.984 472.298L233.18 474.242C232.753 473.684 232.237 473.282 231.63 473.036C231.04 472.79 230.449 472.667 229.859 472.667C229.154 472.667 228.604 472.807 228.211 473.086C227.834 473.348 227.645 473.725 227.645 474.217C227.645 474.676 227.842 475.062 228.235 475.373C228.629 475.669 229.4 475.947 230.548 476.21C231.925 476.538 233.032 476.94 233.868 477.415C234.705 477.891 235.312 478.473 235.689 479.162C236.066 479.851 236.254 480.679 236.254 481.646C236.254 482.63 236 483.508 235.492 484.279C235 485.049 234.295 485.664 233.377 486.124C232.458 486.566 231.368 486.788 230.105 486.788Z" fill="#3D4091"/>
<path d="M244.719 486.37V469.617H250.721C252.098 469.617 253.205 469.789 254.041 470.134C254.878 470.478 255.485 470.995 255.862 471.683C256.255 472.356 256.452 473.2 256.452 474.217C256.452 475.021 256.272 475.734 255.911 476.357C255.567 476.964 255.091 477.44 254.484 477.784C253.877 478.129 253.189 478.301 252.418 478.301L252.492 477.514C253.459 477.514 254.263 477.694 254.902 478.055C255.542 478.416 256.026 478.908 256.354 479.531C256.682 480.154 256.846 480.859 256.846 481.646C256.846 483.221 256.362 484.402 255.394 485.189C254.443 485.976 253.033 486.37 251.163 486.37H244.719ZM248.31 471.462V484.352L247.031 482.926H251.114C251.754 482.926 252.254 482.77 252.615 482.458C252.992 482.147 253.18 481.72 253.18 481.179C253.18 480.589 253 480.146 252.639 479.851C252.295 479.555 251.803 479.408 251.163 479.408H247.031V476.308H250.794C251.45 476.308 251.942 476.177 252.27 475.915C252.598 475.652 252.762 475.242 252.762 474.685C252.762 474.176 252.59 473.783 252.246 473.504C251.918 473.209 251.434 473.061 250.794 473.061H247.129L248.31 471.462Z" fill="#3D4091"/>
<path d="M265.968 486.665C264.492 486.665 263.245 486.394 262.229 485.853C261.228 485.312 260.466 484.508 259.941 483.442C259.416 482.36 259.154 481.015 259.154 479.408V469.617H262.745V479.482C262.745 480.646 263.016 481.556 263.557 482.212C264.115 482.852 264.918 483.172 265.968 483.172C267.017 483.172 267.813 482.852 268.354 482.212C268.895 481.556 269.165 480.646 269.165 479.482V469.617H272.781V479.408C272.781 481.015 272.519 482.36 271.994 483.442C271.469 484.508 270.699 485.312 269.682 485.853C268.682 486.394 267.444 486.665 265.968 486.665Z" fill="#3D4091"/>
<path d="M283.09 486.665C281.401 486.665 279.909 486.296 278.613 485.558C277.334 484.82 276.342 483.811 275.637 482.532C274.932 481.236 274.579 479.769 274.579 478.129C274.579 476.833 274.784 475.652 275.194 474.586C275.62 473.504 276.211 472.577 276.965 471.806C277.719 471.019 278.613 470.412 279.646 469.986C280.696 469.56 281.844 469.346 283.09 469.346C285.009 469.346 286.591 469.756 287.838 470.576C289.1 471.38 290.076 472.536 290.765 474.045L287.493 475.349C286.952 474.463 286.321 473.824 285.599 473.43C284.878 473.02 284.041 472.815 283.09 472.815C282.155 472.815 281.319 473.036 280.581 473.479C279.86 473.906 279.286 474.512 278.859 475.3C278.449 476.087 278.244 477.03 278.244 478.129C278.244 479.145 278.449 480.047 278.859 480.835C279.286 481.605 279.86 482.212 280.581 482.655C281.319 483.081 282.155 483.295 283.09 483.295C283.959 483.295 284.73 483.131 285.402 482.803C286.075 482.475 286.616 482.007 287.026 481.4C287.436 480.777 287.665 480.056 287.715 479.236L288.748 480.49H282.82V477.268H290.986C291.052 477.53 291.101 477.809 291.134 478.104C291.166 478.399 291.183 478.694 291.183 478.99C291.183 480.138 290.961 481.187 290.519 482.138C290.092 483.073 289.502 483.885 288.748 484.574C288.01 485.246 287.157 485.763 286.189 486.124C285.222 486.484 284.189 486.665 283.09 486.665Z" fill="#3D4091"/>
<path d="M298.735 478.399H297.038L301.466 469.617H305.328L299.375 481.081L299.621 479.014V486.37H296.03V479.014L296.276 481.081L290.347 469.617H294.332L298.735 478.399Z" fill="#3D4091"/>
<path d="M310.166 486.37H306.574V469.617H310.166V486.37Z" fill="#3D4091"/>
<path d="M60.782 503.257C60.782 503.946 60.6836 504.61 60.4868 505.25C60.3064 505.889 59.9866 506.545 59.5275 507.218C59.0847 507.89 58.4698 508.645 57.6826 509.481L53.7961 513.737L53.3779 512.113H60.9296V515.582H50.2294V512.581L54.6571 507.882C55.3458 507.144 55.8788 506.537 56.2559 506.062C56.6331 505.57 56.8873 505.143 57.0185 504.783C57.1661 504.405 57.2399 504.044 57.2399 503.7C57.2399 503.175 57.0841 502.765 56.7725 502.47C56.4609 502.175 56.0755 502.027 55.6164 502.027C55.108 502.027 54.5833 502.199 54.0421 502.544C53.5173 502.888 52.9598 503.462 52.3694 504.266L49.8112 502.323C50.2704 501.585 50.7787 500.937 51.3363 500.379C51.9103 499.805 52.558 499.354 53.2796 499.026C54.0175 498.698 54.8292 498.534 55.7148 498.534C56.7807 498.534 57.6908 498.747 58.4452 499.174C59.1995 499.6 59.7735 500.174 60.167 500.896C60.577 501.601 60.782 502.388 60.782 503.257Z" fill="#DA93E2"/>
<path d="M65.8394 515.926L63.6748 514.303L76.9824 498.903L79.147 500.551L65.8394 515.926ZM66.5035 506.898C65.7492 506.898 65.0523 506.718 64.4127 506.357C63.7896 505.98 63.2894 505.488 62.9122 504.881C62.535 504.258 62.3465 503.577 62.3465 502.839C62.3465 502.068 62.535 501.38 62.9122 500.773C63.2894 500.166 63.7896 499.682 64.4127 499.321C65.0523 498.961 65.7492 498.78 66.5035 498.78C67.2743 498.78 67.9712 498.969 68.5944 499.346C69.2339 499.707 69.7341 500.191 70.0949 500.797C70.472 501.404 70.6606 502.085 70.6606 502.839C70.6606 503.577 70.472 504.258 70.0949 504.881C69.7177 505.488 69.2175 505.98 68.5944 506.357C67.9712 506.718 67.2743 506.898 66.5035 506.898ZM66.5035 504.167C66.8971 504.167 67.2169 504.044 67.4629 503.798C67.7253 503.552 67.8564 503.233 67.8564 502.839C67.8564 502.446 67.7253 502.126 67.4629 501.88C67.2169 501.617 66.8971 501.486 66.5035 501.486C66.11 501.486 65.7902 501.617 65.5442 501.88C65.2982 502.126 65.1752 502.446 65.1752 502.839C65.1752 503.233 65.2982 503.552 65.5442 503.798C65.7902 504.044 66.11 504.167 66.5035 504.167ZM76.4412 515.902C75.6869 515.902 74.9899 515.721 74.3504 515.36C73.7272 515 73.227 514.516 72.8499 513.909C72.4727 513.286 72.2841 512.605 72.2841 511.867C72.2841 511.096 72.4727 510.408 72.8499 509.801C73.227 509.178 73.7272 508.686 74.3504 508.325C74.9899 507.964 75.6869 507.784 76.4412 507.784C77.2119 507.784 77.9089 507.964 78.532 508.325C79.1716 508.686 79.6717 509.178 80.0325 509.801C80.4097 510.424 80.5983 511.113 80.5983 511.867C80.5983 512.605 80.4097 513.286 80.0325 513.909C79.6553 514.516 79.1552 515 78.532 515.36C77.9089 515.721 77.2119 515.902 76.4412 515.902ZM76.4412 513.196C76.8348 513.196 77.1545 513.073 77.4005 512.827C77.6629 512.581 77.7941 512.261 77.7941 511.867C77.7941 511.457 77.6629 511.129 77.4005 510.883C77.1545 510.637 76.8348 510.514 76.4412 510.514C76.0476 510.514 75.7278 510.637 75.4819 510.883C75.2359 511.129 75.1129 511.457 75.1129 511.867C75.1129 512.261 75.2359 512.581 75.4819 512.827C75.7278 513.073 76.0476 513.196 76.4412 513.196Z" fill="#DA93E2"/>
<path d="M87.9552 515.582L90.907 498.829H94.1294L98.1389 510.293H97.9667L101.976 498.829H105.199L108.175 515.582H104.559L103.403 508.103C103.255 507.103 103.116 506.111 102.985 505.127C102.87 504.127 102.772 503.126 102.69 502.126H103.698C103.436 503.208 103.173 504.225 102.911 505.176C102.665 506.127 102.37 507.087 102.025 508.054L99.4672 515.385H96.6384L94.0802 508.054C93.7358 507.07 93.4324 506.111 93.17 505.176C92.9241 504.225 92.6699 503.208 92.4075 502.126H93.416C93.334 503.126 93.2356 504.127 93.1208 505.127C93.006 506.111 92.8667 507.103 92.7027 508.103L91.5466 515.582H87.9552Z" fill="#DA93E2"/>
<path d="M108.974 507.218C108.974 505.955 109.179 504.799 109.589 503.749C110.015 502.683 110.614 501.765 111.385 500.994C112.155 500.207 113.066 499.6 114.115 499.174C115.165 498.747 116.329 498.534 117.608 498.534C118.854 498.534 120.002 498.747 121.052 499.174C122.118 499.6 123.036 500.207 123.807 500.994C124.578 501.765 125.168 502.683 125.578 503.749C126.004 504.799 126.217 505.955 126.217 507.218C126.217 508.481 126.004 509.645 125.578 510.711C125.168 511.761 124.578 512.679 123.807 513.466C123.036 514.237 122.118 514.836 121.052 515.262C120.002 515.672 118.854 515.877 117.608 515.877C116.329 515.877 115.165 515.672 114.115 515.262C113.066 514.836 112.155 514.237 111.385 513.466C110.614 512.679 110.015 511.761 109.589 510.711C109.179 509.645 108.974 508.481 108.974 507.218ZM112.639 507.218C112.639 508.251 112.852 509.153 113.279 509.924C113.705 510.695 114.287 511.293 115.025 511.72C115.78 512.146 116.641 512.359 117.608 512.359C118.559 512.359 119.404 512.146 120.142 511.72C120.896 511.293 121.486 510.695 121.913 509.924C122.339 509.153 122.552 508.243 122.552 507.193C122.552 506.16 122.339 505.258 121.913 504.487C121.486 503.716 120.896 503.126 120.142 502.716C119.404 502.29 118.559 502.077 117.608 502.077C116.641 502.077 115.78 502.29 115.025 502.716C114.287 503.143 113.705 503.741 113.279 504.512C112.852 505.266 112.639 506.168 112.639 507.218Z" fill="#DA93E2"/>
<path d="M133.994 516C133.027 516 132.117 515.861 131.264 515.582C130.428 515.287 129.673 514.852 129.001 514.278C128.345 513.688 127.788 512.933 127.328 512.015L130.133 510.268C130.608 511.055 131.19 511.654 131.879 512.064C132.568 512.474 133.339 512.679 134.191 512.679C134.929 512.679 135.487 512.523 135.864 512.212C136.241 511.9 136.43 511.49 136.43 510.982C136.43 510.654 136.339 510.375 136.159 510.145C135.995 509.899 135.692 509.67 135.249 509.456C134.806 509.243 134.167 509.038 133.33 508.841C131.969 508.513 130.887 508.103 130.083 507.611C129.296 507.119 128.739 506.537 128.411 505.865C128.083 505.176 127.919 504.414 127.919 503.577C127.919 502.593 128.157 501.724 128.632 500.97C129.124 500.199 129.821 499.592 130.723 499.149C131.625 498.706 132.699 498.485 133.945 498.485C135.356 498.485 136.544 498.764 137.512 499.321C138.496 499.879 139.283 500.609 139.873 501.511L137.069 503.454C136.643 502.896 136.126 502.495 135.52 502.249C134.929 502.003 134.339 501.88 133.748 501.88C133.043 501.88 132.494 502.019 132.1 502.298C131.723 502.56 131.535 502.938 131.535 503.43C131.535 503.889 131.731 504.274 132.125 504.586C132.519 504.881 133.289 505.16 134.437 505.422C135.815 505.75 136.922 506.152 137.758 506.627C138.594 507.103 139.201 507.685 139.578 508.374C139.955 509.063 140.144 509.891 140.144 510.859C140.144 511.843 139.89 512.72 139.381 513.491C138.89 514.262 138.184 514.877 137.266 515.336C136.348 515.779 135.257 516 133.994 516Z" fill="#DA93E2"/>
<path d="M152.353 515.582V498.829H155.944V515.582H152.353ZM142.219 515.582V498.829H145.81V515.582H142.219ZM144.531 509.112V505.643H153.558V509.112H144.531Z" fill="#DA93E2"/>
<path d="M161.157 509.137H169.029V512.458H161.157V509.137ZM157.492 515.582L163.445 498.829H167.405L173.063 515.582H169.422L164.847 501.289H166.028L161.108 515.582H157.492Z" fill="#DA93E2"/>
<path d="M176.753 515.582V500.527H180.368V515.582H176.753ZM171.784 502.298V498.829H185.436V502.298H171.784Z" fill="#DA93E2"/>
<path d="M185.603 507.218C185.603 505.955 185.808 504.799 186.218 503.749C186.644 502.683 187.243 501.765 188.014 500.994C188.784 500.207 189.695 499.6 190.744 499.174C191.794 498.747 192.958 498.534 194.237 498.534C195.483 498.534 196.631 498.747 197.681 499.174C198.747 499.6 199.665 500.207 200.436 500.994C201.206 501.765 201.797 502.683 202.207 503.749C202.633 504.799 202.846 505.955 202.846 507.218C202.846 508.481 202.633 509.645 202.207 510.711C201.797 511.761 201.206 512.679 200.436 513.466C199.665 514.237 198.747 514.836 197.681 515.262C196.631 515.672 195.483 515.877 194.237 515.877C192.958 515.877 191.794 515.672 190.744 515.262C189.695 514.836 188.784 514.237 188.014 513.466C187.243 512.679 186.644 511.761 186.218 510.711C185.808 509.645 185.603 508.481 185.603 507.218ZM189.268 507.218C189.268 508.251 189.481 509.153 189.908 509.924C190.334 510.695 190.916 511.293 191.654 511.72C192.409 512.146 193.27 512.359 194.237 512.359C195.188 512.359 196.033 512.146 196.771 511.72C197.525 511.293 198.115 510.695 198.542 509.924C198.968 509.153 199.181 508.243 199.181 507.193C199.181 506.16 198.968 505.258 198.542 504.487C198.115 503.716 197.525 503.126 196.771 502.716C196.033 502.29 195.188 502.077 194.237 502.077C193.27 502.077 192.409 502.29 191.654 502.716C190.916 503.143 190.334 503.741 189.908 504.512C189.481 505.266 189.268 506.168 189.268 507.218ZM194.065 497.378L192.368 495.607L196.279 491.991L198.025 493.737L194.065 497.378Z" fill="#DA93E2"/>
<path d="M211.209 515.582V498.829H217.211C218.588 498.829 219.695 499.002 220.531 499.346C221.368 499.69 221.974 500.207 222.352 500.896C222.745 501.568 222.942 502.413 222.942 503.43C222.942 504.233 222.762 504.946 222.401 505.57C222.056 506.176 221.581 506.652 220.974 506.996C220.367 507.341 219.679 507.513 218.908 507.513L218.982 506.726C219.949 506.726 220.753 506.906 221.392 507.267C222.032 507.628 222.516 508.12 222.844 508.743C223.171 509.366 223.335 510.071 223.335 510.859C223.335 512.433 222.852 513.614 221.884 514.401C220.933 515.188 219.523 515.582 217.653 515.582H211.209ZM214.8 500.674V513.565L213.521 512.138H217.604C218.244 512.138 218.744 511.982 219.105 511.67C219.482 511.359 219.67 510.932 219.67 510.391C219.67 509.801 219.49 509.358 219.129 509.063C218.785 508.768 218.293 508.62 217.653 508.62H213.521V505.52H217.284C217.94 505.52 218.432 505.389 218.76 505.127C219.088 504.865 219.252 504.454 219.252 503.897C219.252 503.388 219.08 502.995 218.736 502.716C218.408 502.421 217.924 502.273 217.284 502.273H213.619L214.8 500.674Z" fill="#DA93E2"/>
<path d="M228.128 508.891V505.471H235.016V508.891H228.128ZM228.054 502.249L229.309 500.797V513.614L227.931 512.162H236.369V515.582H225.718V498.829H236.369V502.249H228.054Z" fill="#DA93E2"/>
<path d="M242.596 515.582V500.527H246.212V515.582H242.596ZM237.627 502.298V498.829H251.279V502.298H237.627Z" fill="#DA93E2"/>
<path d="M255.417 508.891V505.471H262.304V508.891H255.417ZM255.343 502.249L256.598 500.797V513.614L255.22 512.162H263.657V515.582H253.006V498.829H263.657V502.249H255.343ZM258.196 497.378L256.499 495.607L260.41 491.991L262.157 493.737L258.196 497.378Z" fill="#DA93E2"/>
<path d="M269.884 515.582V500.527H273.5V515.582H269.884ZM264.916 502.298V498.829H278.567V502.298H264.916Z" fill="#DA93E2"/>
</svg>
