<svg width="345" height="423" viewBox="0 0 345 423" fill="none" xmlns="http://www.w3.org/2000/svg">
<path d="M23.0063 23.5666L15.9061 2.6424H20.4859L26.4795 20.494H24.7275L30.7519 2.6424H35.2701L28.1393 23.5666H23.0063Z" fill="#DA93E2"/>
<path d="M39.9387 23.966C38.8527 23.966 37.8896 23.7612 37.0495 23.3515C36.2299 22.9213 35.5946 22.3273 35.1438 21.5694C34.693 20.8115 34.4676 19.9307 34.4676 18.927C34.4676 17.8618 34.7135 16.9606 35.2053 16.2231C35.6971 15.4652 36.3528 14.8815 37.1724 14.4718C38.0126 14.0621 38.9449 13.8573 39.9695 13.8573C41.4653 13.8573 42.6743 14.1953 43.5964 14.8712C44.5185 15.5472 45.1332 16.5202 45.4406 17.7902L43.5042 17.4522V13.9494C43.5042 13.3964 43.3095 12.915 42.9202 12.5053C42.5308 12.0957 41.9059 11.8908 41.0452 11.8908C40.492 11.8908 39.8568 11.9625 39.1396 12.1059C38.4224 12.2288 37.6847 12.4746 36.9266 12.8433L35.6049 9.64785C36.5065 9.19721 37.4696 8.83874 38.4941 8.57246C39.5392 8.30617 40.6047 8.17302 41.6907 8.17302C43.0841 8.17302 44.2521 8.41883 45.1947 8.91044C46.1373 9.40205 46.834 10.0985 47.2848 10.9998C47.756 11.9011 47.9917 12.9457 47.9917 14.1338V23.5666H44.334L43.4427 20.6476L45.4406 20.0331C45.1127 21.2621 44.4877 22.2249 43.5656 22.9213C42.6435 23.6178 41.4346 23.966 39.9387 23.966ZM41.3219 20.7705C41.9981 20.7705 42.5308 20.5964 42.9202 20.2482C43.33 19.9 43.5349 19.4596 43.5349 18.927C43.5349 18.3535 43.33 17.9028 42.9202 17.5751C42.5308 17.2473 41.9981 17.0835 41.3219 17.0835C40.6457 17.0835 40.1129 17.2473 39.7236 17.5751C39.3342 17.9028 39.1396 18.3535 39.1396 18.927C39.1396 19.4596 39.3342 19.9 39.7236 20.2482C40.1129 20.5964 40.6457 20.7705 41.3219 20.7705Z" fill="#DA93E2"/>
<path d="M60.2191 8.17302C61.2231 8.17302 62.0428 8.34713 62.678 8.69536C63.3132 9.0231 63.7947 9.48398 64.1226 10.078C64.4709 10.672 64.6963 11.348 64.7988 12.1059C64.9217 12.8433 64.9832 13.6115 64.9832 14.4103V23.5666H60.4957V14.6561C60.4957 13.7958 60.342 13.2325 60.0346 12.9662C59.7273 12.6795 59.3175 12.5361 58.8052 12.5361C58.3749 12.5361 57.9241 12.6282 57.4528 12.8126C57.002 12.9765 56.5614 13.212 56.1311 13.5193C55.7008 13.8265 55.3217 14.1748 54.9939 14.564L54.1947 12.2903H55.4549V23.5666H50.9674V8.54173H54.2869L55.209 11.5221L53.6722 11.3992C54.2049 10.8052 54.8094 10.2624 55.4856 9.77076C56.1618 9.27915 56.8995 8.88995 57.6987 8.60318C58.4978 8.31641 59.3379 8.17302 60.2191 8.17302Z" fill="#DA93E2"/>
<path d="M80.5205 23.966C79.4345 23.966 78.4714 23.7612 77.6313 23.3515C76.8116 22.9213 76.1764 22.3273 75.7256 21.5694C75.2748 20.8115 75.0494 19.9307 75.0494 18.927C75.0494 17.8618 75.2953 16.9606 75.7871 16.2231C76.2789 15.4652 76.9346 14.8815 77.7542 14.4718C78.5944 14.0621 79.5267 13.8573 80.5513 13.8573C82.0471 13.8573 83.2561 14.1953 84.1782 14.8712C85.1003 15.5472 85.715 16.5202 86.0224 17.7902L84.086 17.4522V13.9494C84.086 13.3964 83.8913 12.915 83.502 12.5053C83.1126 12.0957 82.4877 11.8908 81.627 11.8908C81.0738 11.8908 80.4386 11.9625 79.7214 12.1059C79.0042 12.2288 78.2665 12.4746 77.5083 12.8433L76.1867 9.64785C77.0883 9.19721 78.0514 8.83874 79.0759 8.57246C80.1209 8.30617 81.1865 8.17302 82.2725 8.17302C83.6659 8.17302 84.8339 8.41883 85.7765 8.91044C86.7191 9.40205 87.4157 10.0985 87.8665 10.9998C88.3378 11.9011 88.5735 12.9457 88.5735 14.1338V23.5666H84.9158L84.0245 20.6476L86.0224 20.0331C85.6945 21.2621 85.0695 22.2249 84.1474 22.9213C83.2253 23.6178 82.0164 23.966 80.5205 23.966ZM81.9037 20.7705C82.5799 20.7705 83.1126 20.5964 83.502 20.2482C83.9118 19.9 84.1167 19.4596 84.1167 18.927C84.1167 18.3535 83.9118 17.9028 83.502 17.5751C83.1126 17.2473 82.5799 17.0835 81.9037 17.0835C81.2275 17.0835 80.6947 17.2473 80.3054 17.5751C79.916 17.9028 79.7214 18.3535 79.7214 18.927C79.7214 19.4596 79.916 19.9 80.3054 20.2482C80.6947 20.5964 81.2275 20.7705 81.9037 20.7705Z" fill="#DA93E2"/>
<path d="M106.326 23.9353C104.789 23.9353 103.437 23.5973 102.269 22.9213C101.122 22.2454 100.23 21.3134 99.5949 20.1253C98.9597 18.9372 98.6421 17.5751 98.6421 16.0388C98.6421 14.5025 98.9597 13.1506 99.5949 11.983C100.23 10.7949 101.122 9.86293 102.269 9.18697C103.437 8.511 104.789 8.17302 106.326 8.17302C108.006 8.17302 109.461 8.5827 110.691 9.40205C111.92 10.2214 112.801 11.3275 113.334 12.7204L109.277 14.5332C108.99 13.8982 108.611 13.4066 108.14 13.0584C107.668 12.6897 107.074 12.5053 106.357 12.5053C105.455 12.5053 104.697 12.8228 104.082 13.4578C103.468 14.0723 103.16 14.9327 103.16 16.0388C103.16 17.1449 103.468 18.0155 104.082 18.6505C104.697 19.265 105.455 19.5722 106.357 19.5722C107.074 19.5722 107.668 19.3981 108.14 19.0499C108.611 18.7017 108.99 18.2101 109.277 17.5751L113.334 19.3572C112.801 20.7501 111.91 21.8664 110.66 22.7063C109.41 23.5256 107.965 23.9353 106.326 23.9353Z" fill="#DA93E2"/>
<path d="M120.734 24.0275C119.525 24.0275 118.387 23.7919 117.322 23.3208C116.277 22.8496 115.324 22.0405 114.463 20.8934L117.015 18.4354C117.711 19.1523 118.377 19.6644 119.012 19.9717C119.648 20.2789 120.344 20.4326 121.103 20.4326C121.553 20.4326 121.912 20.3404 122.178 20.156C122.465 19.9512 122.609 19.7054 122.609 19.4186C122.609 19.1728 122.527 18.968 122.363 18.8041C122.199 18.6402 121.891 18.4764 121.441 18.3125C120.99 18.1486 120.334 17.954 119.474 17.7287C117.896 17.3395 116.717 16.7762 115.939 16.0388C115.181 15.2809 114.802 14.2772 114.802 13.0277C114.802 12.1264 115.037 11.307 115.509 10.5696C115.98 9.81172 116.656 9.20745 117.537 8.75681C118.418 8.30617 119.463 8.08085 120.672 8.08085C122.107 8.08085 123.326 8.35738 124.33 8.91044C125.334 9.44302 126.164 10.0985 126.82 10.8769L124.053 13.2428C123.602 12.8331 123.059 12.4849 122.424 12.1981C121.789 11.9113 121.072 11.7679 120.273 11.7679C119.842 11.7679 119.474 11.8499 119.166 12.0137C118.859 12.1776 118.705 12.4234 118.705 12.7511C118.705 13.0584 118.89 13.3144 119.258 13.5193C119.627 13.7241 120.365 13.9597 121.471 14.226C123.336 14.6766 124.668 15.2809 125.467 16.0388C126.287 16.7967 126.697 17.8106 126.697 19.0806C126.697 20.0638 126.44 20.9344 125.928 21.6923C125.416 22.4297 124.709 23.0033 123.807 23.4129C122.906 23.8226 121.881 24.0275 120.734 24.0275Z" fill="#DA93E2"/>
<path d="M133.259 23.966C132.173 23.966 131.21 23.7612 130.37 23.3515C129.55 22.9213 128.915 22.3273 128.464 21.5694C128.013 20.8115 127.788 19.9307 127.788 18.927C127.788 17.8618 128.034 16.9606 128.525 16.2231C129.017 15.4652 129.673 14.8815 130.493 14.4718C131.333 14.0621 132.265 13.8573 133.29 13.8573C134.785 13.8573 135.994 14.1953 136.916 14.8712C137.839 15.5472 138.453 16.5202 138.761 17.7902L136.824 17.4522V13.9494C136.824 13.3964 136.63 12.915 136.24 12.5053C135.851 12.0957 135.226 11.8908 134.365 11.8908C133.812 11.8908 133.177 11.9625 132.46 12.1059C131.743 12.2288 131.005 12.4746 130.247 12.8433L128.925 9.64785C129.827 9.19721 130.79 8.83874 131.814 8.57246C132.859 8.30617 133.925 8.17302 135.011 8.17302C136.404 8.17302 137.572 8.41883 138.515 8.91044C139.457 9.40205 140.154 10.0985 140.605 10.9998C141.076 11.9011 141.312 12.9457 141.312 14.1338V23.5666H137.654L136.763 20.6476L138.761 20.0331C138.433 21.2621 137.808 22.2249 136.886 22.9213C135.964 23.6178 134.755 23.966 133.259 23.966ZM134.642 20.7705C135.318 20.7705 135.851 20.5964 136.24 20.2482C136.65 19.9 136.855 19.4596 136.855 18.927C136.855 18.3535 136.65 17.9028 136.24 17.5751C135.851 17.2473 135.318 17.0835 134.642 17.0835C133.966 17.0835 133.433 17.2473 133.044 17.5751C132.654 17.9028 132.46 18.3535 132.46 18.927C132.46 19.4596 132.654 19.9 133.044 20.2482C133.433 20.5964 133.966 20.7705 134.642 20.7705Z" fill="#DA93E2"/>
<path d="M148.318 23.7202C147.56 23.7202 146.863 23.5666 146.228 23.2593C145.593 22.9521 145.081 22.4809 144.691 21.8459C144.302 21.1905 144.107 20.3199 144.107 19.2343V2.6424H148.564V17.6365C148.564 18.3944 148.697 18.886 148.964 19.1114C149.251 19.3162 149.609 19.4186 150.04 19.4186V23.5666C149.835 23.6075 149.558 23.6383 149.21 23.6588C148.882 23.6997 148.585 23.7202 148.318 23.7202Z" fill="#DA93E2"/>
<path d="M156.852 23.966C155.765 23.966 154.802 23.7612 153.962 23.3515C153.143 22.9213 152.507 22.3273 152.057 21.5694C151.606 20.8115 151.38 19.9307 151.38 18.927C151.38 17.8618 151.626 16.9606 152.118 16.2231C152.61 15.4652 153.266 14.8815 154.085 14.4718C154.925 14.0621 155.858 13.8573 156.882 13.8573C158.378 13.8573 159.587 14.1953 160.509 14.8712C161.431 15.5472 162.046 16.5202 162.353 17.7902L160.417 17.4522V13.9494C160.417 13.3964 160.222 12.915 159.833 12.5053C159.444 12.0957 158.819 11.8908 157.958 11.8908C157.405 11.8908 156.77 11.9625 156.052 12.1059C155.335 12.2288 154.597 12.4746 153.839 12.8433L152.518 9.64785C153.419 9.19721 154.382 8.83874 155.407 8.57246C156.452 8.30617 157.517 8.17302 158.603 8.17302C159.997 8.17302 161.165 8.41883 162.107 8.91044C163.05 9.40205 163.747 10.0985 164.198 10.9998C164.669 11.9011 164.904 12.9457 164.904 14.1338V23.5666H161.247L160.355 20.6476L162.353 20.0331C162.025 21.2621 161.401 22.2249 160.478 22.9213C159.556 23.6178 158.347 23.966 156.852 23.966ZM158.235 20.7705C158.911 20.7705 159.444 20.5964 159.833 20.2482C160.243 19.9 160.448 19.4596 160.448 18.927C160.448 18.3535 160.243 17.9028 159.833 17.5751C159.444 17.2473 158.911 17.0835 158.235 17.0835C157.558 17.0835 157.026 17.2473 156.636 17.5751C156.247 17.9028 156.052 18.3535 156.052 18.927C156.052 19.4596 156.247 19.9 156.636 20.2482C157.026 20.5964 157.558 20.7705 158.235 20.7705ZM158.45 6.72892L156.329 4.51667L161.216 0L163.398 2.18152L158.45 6.72892Z" fill="#DA93E2"/>
<path d="M173.905 23.9353C172.552 23.9353 171.353 23.6075 170.308 22.9521C169.263 22.2761 168.444 21.3441 167.849 20.156C167.276 18.9475 166.989 17.5751 166.989 16.0388C166.989 14.5025 167.286 13.1403 167.88 11.9523C168.474 10.7642 169.294 9.84245 170.339 9.18697C171.384 8.511 172.583 8.17302 173.935 8.17302C175.267 8.17302 176.415 8.48028 177.378 9.09479C178.361 9.68882 179.119 10.5696 179.652 11.7372C180.205 12.9048 180.482 14.3386 180.482 16.0388C180.482 17.657 180.205 19.0601 179.652 20.2482C179.099 21.4158 178.331 22.3273 177.347 22.9828C176.363 23.6178 175.216 23.9353 173.905 23.9353ZM174.765 19.7259C175.687 19.7259 176.445 19.3879 177.04 18.7119C177.654 18.0155 177.962 17.1244 177.962 16.0388C177.962 14.9736 177.654 14.1031 177.04 13.4271C176.445 12.7307 175.687 12.3824 174.765 12.3824C173.843 12.3824 173.075 12.7307 172.46 13.4271C171.866 14.1031 171.569 14.9736 171.569 16.0388C171.569 17.1244 171.866 18.0155 172.46 18.7119C173.075 19.3879 173.843 19.7259 174.765 19.7259ZM178.884 23.5666L177.747 19.7259H178.023V12.7204H177.747V2.6424H182.234V23.5666H178.884Z" fill="#DA93E2"/>
<path d="M193.769 23.9353C192.458 23.9353 191.31 23.6178 190.327 22.9828C189.343 22.3273 188.575 21.4158 188.021 20.2482C187.489 19.0601 187.222 17.657 187.222 16.0388C187.222 14.3386 187.489 12.9048 188.021 11.7372C188.554 10.5696 189.302 9.68882 190.265 9.09479C191.249 8.48028 192.407 8.17302 193.738 8.17302C195.091 8.17302 196.29 8.511 197.335 9.18697C198.38 9.84245 199.199 10.7642 199.794 11.9523C200.388 13.1403 200.685 14.5025 200.685 16.0388C200.685 17.5751 200.388 18.9475 199.794 20.156C199.22 21.3441 198.41 22.2761 197.365 22.9521C196.341 23.6075 195.142 23.9353 193.769 23.9353ZM185.44 23.5666V2.6424H189.927V12.7204H189.65V19.7259H189.927L188.79 23.5666H185.44ZM192.909 19.7259C193.831 19.7259 194.589 19.3879 195.183 18.7119C195.798 18.0155 196.105 17.1244 196.105 16.0388C196.105 14.9736 195.798 14.1031 195.183 13.4271C194.589 12.7307 193.831 12.3824 192.909 12.3824C192.007 12.3824 191.249 12.7307 190.634 13.4271C190.019 14.1031 189.712 14.9736 189.712 16.0388C189.712 17.1244 190.019 18.0155 190.634 18.7119C191.249 19.3879 192.007 19.7259 192.909 19.7259Z" fill="#DA93E2"/>
<path d="M207.219 23.966C206.133 23.966 205.169 23.7612 204.329 23.3515C203.51 22.9213 202.874 22.3273 202.424 21.5694C201.973 20.8115 201.747 19.9307 201.747 18.927C201.747 17.8618 201.993 16.9606 202.485 16.2231C202.977 15.4652 203.633 14.8815 204.452 14.4718C205.292 14.0621 206.225 13.8573 207.249 13.8573C208.745 13.8573 209.954 14.1953 210.876 14.8712C211.798 15.5472 212.413 16.5202 212.72 17.7902L210.784 17.4522V13.9494C210.784 13.3964 210.589 12.915 210.2 12.5053C209.811 12.0957 209.186 11.8908 208.325 11.8908C207.772 11.8908 207.137 11.9625 206.419 12.1059C205.702 12.2288 204.965 12.4746 204.206 12.8433L202.885 9.64785C203.786 9.19721 204.749 8.83874 205.774 8.57246C206.819 8.30617 207.885 8.17302 208.971 8.17302C210.364 8.17302 211.532 8.41883 212.474 8.91044C213.417 9.40205 214.114 10.0985 214.565 10.9998C215.036 11.9011 215.272 12.9457 215.272 14.1338V23.5666H211.614L210.723 20.6476L212.72 20.0331C212.393 21.2621 211.768 22.2249 210.845 22.9213C209.923 23.6178 208.714 23.966 207.219 23.966ZM208.602 20.7705C209.278 20.7705 209.811 20.5964 210.2 20.2482C210.61 19.9 210.815 19.4596 210.815 18.927C210.815 18.3535 210.61 17.9028 210.2 17.5751C209.811 17.2473 209.278 17.0835 208.602 17.0835C207.926 17.0835 207.393 17.2473 207.003 17.5751C206.614 17.9028 206.419 18.3535 206.419 18.927C206.419 19.4596 206.614 19.9 207.003 20.2482C207.393 20.5964 207.926 20.7705 208.602 20.7705Z" fill="#DA93E2"/>
<path d="M227.499 8.17302C228.503 8.17302 229.323 8.34713 229.958 8.69536C230.593 9.0231 231.075 9.48398 231.402 10.078C231.751 10.672 231.976 11.348 232.079 12.1059C232.202 12.8433 232.263 13.6115 232.263 14.4103V23.5666H227.776V14.6561C227.776 13.7958 227.622 13.2325 227.314 12.9662C227.007 12.6795 226.597 12.5361 226.085 12.5361C225.655 12.5361 225.204 12.6282 224.733 12.8126C224.282 12.9765 223.841 13.212 223.411 13.5193C222.981 13.8265 222.602 14.1748 222.274 14.564L221.475 12.2903H222.735V23.5666H218.247V8.54173H221.567L222.489 11.5221L220.952 11.3992C221.485 10.8052 222.089 10.2624 222.765 9.77076C223.442 9.27915 224.179 8.88995 224.979 8.60318C225.778 8.31641 226.618 8.17302 227.499 8.17302Z" fill="#DA93E2"/>
<path d="M247.77 23.5666H243.282V8.54173H247.77V23.5666ZM242.883 3.80998C242.883 3.01111 243.118 2.36587 243.589 1.87426C244.081 1.38265 244.727 1.13685 245.526 1.13685C246.325 1.13685 246.96 1.38265 247.432 1.87426C247.923 2.36587 248.169 3.01111 248.169 3.80998C248.169 4.58836 247.923 5.22336 247.432 5.71497C246.96 6.1861 246.325 6.42166 245.526 6.42166C244.727 6.42166 244.081 6.1861 243.589 5.71497C243.118 5.22336 242.883 4.58836 242.883 3.80998Z" fill="#DA93E2"/>
<path d="M256.527 24.0275C255.318 24.0275 254.18 23.7919 253.115 23.3208C252.07 22.8496 251.117 22.0405 250.256 20.8934L252.808 18.4354C253.504 19.1523 254.17 19.6644 254.805 19.9717C255.441 20.2789 256.137 20.4326 256.895 20.4326C257.346 20.4326 257.705 20.3404 257.971 20.156C258.258 19.9512 258.402 19.7054 258.402 19.4186C258.402 19.1728 258.32 18.968 258.156 18.8041C257.992 18.6402 257.684 18.4764 257.234 18.3125C256.783 18.1486 256.127 17.954 255.266 17.7287C253.689 17.3395 252.51 16.7762 251.732 16.0388C250.974 15.2809 250.594 14.2772 250.594 13.0277C250.594 12.1264 250.83 11.307 251.301 10.5696C251.773 9.81172 252.449 9.20745 253.33 8.75681C254.211 8.30617 255.256 8.08085 256.465 8.08085C257.9 8.08085 259.119 8.35738 260.123 8.91044C261.127 9.44302 261.957 10.0985 262.612 10.8769L259.846 13.2428C259.395 12.8331 258.852 12.4849 258.217 12.1981C257.582 11.9113 256.865 11.7679 256.066 11.7679C255.635 11.7679 255.266 11.8499 254.959 12.0137C254.652 12.1776 254.498 12.4234 254.498 12.7511C254.498 13.0584 254.682 13.3144 255.051 13.5193C255.42 13.7241 256.158 13.9597 257.264 14.226C259.129 14.6766 260.461 15.2809 261.26 16.0388C262.08 16.7967 262.49 17.8106 262.49 19.0806C262.49 20.0638 262.233 20.9344 261.721 21.6923C261.209 22.4297 260.502 23.0033 259.6 23.4129C258.699 23.8226 257.674 24.0275 256.527 24.0275Z" fill="#DA93E2"/>
<path d="M264.832 23.5666V8.54173H268.152L269.074 11.5221L267.537 11.3992C268.049 10.8052 268.633 10.2624 269.289 9.77076C269.945 9.27915 270.662 8.88995 271.441 8.60318C272.219 8.31641 273.029 8.17302 273.869 8.17302C274.873 8.17302 275.672 8.34713 276.266 8.69536C276.881 9.0231 277.342 9.48398 277.649 10.078C277.977 10.672 278.192 11.348 278.295 12.1059C278.418 12.8433 278.479 13.6115 278.479 14.4103V23.5666H273.992V14.6561C273.992 13.7958 273.838 13.2325 273.531 12.9662C273.223 12.6795 272.844 12.5361 272.393 12.5361C271.758 12.5361 271.133 12.7307 270.518 13.1199C269.904 13.4886 269.35 13.9699 268.859 14.564L268.06 12.2903H269.32V23.5666H264.832ZM283.151 23.5666V14.6561C283.151 13.7958 282.997 13.2325 282.69 12.9662C282.403 12.6795 282.034 12.5361 281.584 12.5361C280.928 12.5361 280.293 12.7307 279.678 13.1199C279.063 13.4886 278.51 13.9699 278.018 14.564L276.697 11.3992C277.229 10.8052 277.824 10.2624 278.479 9.77076C279.135 9.27915 279.842 8.88995 280.6 8.60318C281.379 8.31641 282.188 8.17302 283.028 8.17302C284.032 8.17302 284.842 8.34713 285.456 8.69536C286.071 9.0231 286.532 9.48398 286.84 10.078C287.147 10.672 287.362 11.348 287.485 12.1059C287.608 12.8433 287.669 13.6115 287.669 14.4103V23.5666H283.151Z" fill="#DA93E2"/>
<path d="M297.135 23.8431C295.639 23.8431 294.318 23.5256 293.17 22.8906C292.043 22.2556 291.162 21.3543 290.527 20.1868C289.912 19.0192 289.605 17.6468 289.605 16.0695C289.605 14.5127 289.912 13.1403 290.527 11.9523C291.162 10.7642 292.043 9.84245 293.17 9.18697C294.318 8.511 295.639 8.17302 297.135 8.17302C298.672 8.17302 300.004 8.52125 301.131 9.21769C302.258 9.91414 303.129 10.8564 303.743 12.0445C304.358 13.212 304.666 14.5332 304.666 16.0081C304.666 16.2744 304.655 16.5304 304.635 16.7762C304.614 17.022 304.594 17.2166 304.573 17.36H293.109V14.1645H301.131L300.608 15.4857C300.608 14.3591 300.321 13.4373 299.748 12.7204C299.194 12.0035 298.334 11.645 297.166 11.645C296.121 11.645 295.281 11.9625 294.645 12.5975C294.031 13.2325 293.723 14.0723 293.723 15.117V16.8069C293.723 17.9335 294.041 18.8143 294.676 19.4493C295.332 20.0638 296.233 20.3711 297.381 20.3711C298.344 20.3711 299.102 20.1765 299.655 19.7873C300.229 19.3981 300.711 18.9168 301.1 18.3432L304.143 20.0331C303.487 21.2417 302.565 22.1839 301.377 22.8599C300.188 23.5154 298.774 23.8431 297.135 23.8431Z" fill="#DA93E2"/>
<path d="M310.234 8.54173L311.402 12.6897V23.5666H306.915V8.54173H310.234ZM310.419 15.1785L309.65 14.8405V11.3685L309.927 10.9998C310.173 10.6516 310.521 10.2521 310.972 9.80148C311.443 9.35084 311.986 8.97189 312.601 8.66463C313.236 8.33689 313.882 8.17302 314.537 8.17302C314.865 8.17302 315.162 8.19351 315.429 8.23447C315.695 8.27544 315.91 8.34713 316.074 8.44955V12.5361H315.06C313.749 12.5361 312.714 12.7511 311.956 13.1813C311.218 13.591 310.706 14.2567 310.419 15.1785Z" fill="#DA93E2"/>
<path d="M325.052 23.8124C323.392 23.8124 322.081 23.4027 321.118 22.5834C320.175 21.764 319.704 20.4223 319.704 18.5583V8.72608L319.643 8.54173L320.565 4.9161H324.192V17.5751C324.192 18.2715 324.356 18.7734 324.683 19.0806C325.011 19.3674 325.442 19.5108 325.974 19.5108C326.282 19.5108 326.569 19.4903 326.835 19.4493C327.122 19.3879 327.357 19.3264 327.542 19.265V23.4744C327.194 23.5768 326.814 23.6588 326.405 23.7202C326.015 23.7817 325.565 23.8124 325.052 23.8124ZM317.368 12.659V8.54173H327.542V12.659H317.368Z" fill="#DA93E2"/>
<path d="M9.25169 45.0438C10.2557 45.0438 11.0754 45.2179 11.7106 45.5661C12.3458 45.8939 12.8274 46.3548 13.1552 46.9488C13.5036 47.5428 13.729 48.2188 13.8314 48.9767C13.9544 49.7141 14.0158 50.4822 14.0158 51.2811V60.4374H9.52832V51.5269C9.52832 50.6666 9.37463 50.1033 9.06727 49.837C8.7599 49.5502 8.35008 49.4068 7.83781 49.4068C7.4075 49.4068 6.9567 49.499 6.4854 49.6834C6.0346 49.8472 5.59404 50.0828 5.16373 50.3901C4.73342 50.6973 4.35434 51.0455 4.02648 51.4347L3.22733 49.161H4.48753V60.4374H0V45.4125H3.31954L4.24164 48.3929L2.70481 48.27C3.23758 47.676 3.84206 47.1331 4.51827 46.6415C5.19447 46.1499 5.93215 45.7607 6.7313 45.474C7.53044 45.1872 8.37058 45.0438 9.25169 45.0438Z" fill="#DA93E2"/>
<path d="M23.847 60.8061C22.2897 60.8061 20.9168 60.4783 19.7283 59.8228C18.5398 59.1469 17.6177 58.2149 16.962 57.0268C16.3063 55.8387 15.9784 54.4766 15.9784 52.9403C15.9784 51.3835 16.3063 50.0111 16.962 48.8231C17.6177 47.635 18.5398 46.7132 19.7283 46.0577C20.9168 45.3818 22.2897 45.0438 23.847 45.0438C25.4248 45.0438 26.8079 45.3818 27.9964 46.0577C29.1849 46.7132 30.107 47.635 30.7627 48.8231C31.4389 50.0111 31.777 51.3835 31.777 52.9403C31.777 54.4766 31.4389 55.8387 30.7627 57.0268C30.107 58.2149 29.1849 59.1469 27.9964 59.8228C26.8079 60.4783 25.4248 60.8061 23.847 60.8061ZM23.847 56.443C24.851 56.443 25.6604 56.1255 26.2752 55.4905C26.9104 54.835 27.228 53.985 27.228 52.9403C27.228 51.8751 26.9104 51.0148 26.2752 50.3593C25.6604 49.7039 24.851 49.3761 23.847 49.3761C22.8839 49.3761 22.0847 49.7039 21.4495 50.3593C20.8348 50.9943 20.5274 51.8444 20.5274 52.9096C20.5274 53.9747 20.8348 54.835 21.4495 55.4905C22.0847 56.1255 22.8839 56.443 23.847 56.443ZM22.3101 43.6304L19.5439 42.4321L22.1565 36.6864L24.9842 37.7925L22.3101 43.6304ZM27.1358 43.6304L24.3695 42.4321L27.0128 36.6864L29.8098 37.7925L27.1358 43.6304Z" fill="#DA93E2"/>
<path d="M40.5587 66.5825C39.7596 66.5825 38.94 66.4596 38.0998 66.2138C37.2802 65.9885 36.522 65.589 35.8253 65.0155C35.1286 64.4624 34.5446 63.725 34.0733 62.8032L33.8274 62.2809L37.0548 60.6217C37.5671 61.4206 38.0793 61.9941 38.5916 62.3423C39.1244 62.6906 39.8006 62.8647 40.6202 62.8647C41.5628 62.8647 42.3312 62.5574 42.9255 61.9429C43.5197 61.3489 43.8168 60.4476 43.8168 59.2391V55.1833H44.1242V49.1918H43.8168L44.9541 45.4125H48.3043V58.2866C48.3043 60.0482 47.997 61.5537 47.3822 62.8032C46.7675 64.0527 45.8762 64.995 44.7082 65.63C43.5607 66.265 42.1775 66.5825 40.5587 66.5825ZM39.9747 59.6385C38.6223 59.6385 37.4236 59.3312 36.3786 58.7167C35.354 58.1022 34.5344 57.2419 33.9197 56.1358C33.3254 55.0296 33.0283 53.7699 33.0283 52.3565C33.0283 50.9226 33.3152 49.6629 33.8889 48.5773C34.4832 47.4711 35.3028 46.6108 36.3478 45.9963C37.3929 45.3613 38.5814 45.0438 39.9133 45.0438C41.1632 45.0438 42.2595 45.3511 43.2021 45.9656C44.1447 46.5801 44.8823 47.4302 45.4151 48.5158C45.9479 49.6014 46.2143 50.8817 46.2143 52.3565C46.2143 53.8723 45.9581 55.173 45.4458 56.2587C44.9336 57.3443 44.2061 58.1841 43.2636 58.7782C42.3415 59.3517 41.2452 59.6385 39.9747 59.6385ZM40.8354 55.7056C41.778 55.7056 42.5464 55.3881 43.1406 54.7531C43.7553 54.1181 44.0627 53.3192 44.0627 52.3565C44.0627 51.3528 43.7553 50.5334 43.1406 49.8985C42.5464 49.2635 41.778 48.946 40.8354 48.946C39.8928 48.946 39.1141 49.2635 38.4994 49.8985C37.9052 50.5334 37.608 51.3528 37.608 52.3565C37.608 53.3192 37.9052 54.1181 38.4994 54.7531C39.1141 55.3881 39.8928 55.7056 40.8354 55.7056Z" fill="#DA93E2"/>
<path d="M56.2103 59.3005L50.186 45.4125H54.735L60.452 58.6245L56.2103 59.3005ZM52.983 66.2752L62.0503 45.4125H66.5993L57.5627 66.2752H52.983Z" fill="#DA93E2"/>
<path d="M74.4241 60.8061C72.8668 60.8061 71.4939 60.4783 70.3054 59.8228C69.117 59.1469 68.1949 58.2149 67.5392 57.0268C66.8834 55.8387 66.5556 54.4766 66.5556 52.9403C66.5556 51.3835 66.8834 50.0111 67.5392 48.8231C68.1949 47.635 69.117 46.7132 70.3054 46.0577C71.4939 45.3818 72.8668 45.0438 74.4241 45.0438C76.0019 45.0438 77.3851 45.3818 78.5736 46.0577C79.762 46.7132 80.6841 47.635 81.3398 48.8231C82.016 50.0111 82.3541 51.3835 82.3541 52.9403C82.3541 54.4766 82.016 55.8387 81.3398 57.0268C80.6841 58.2149 79.762 59.1469 78.5736 59.8228C77.3851 60.4783 76.0019 60.8061 74.4241 60.8061ZM74.4241 56.443C75.4282 56.443 76.2376 56.1255 76.8523 55.4905C77.4875 54.835 77.8051 53.985 77.8051 52.9403C77.8051 51.8751 77.4875 51.0148 76.8523 50.3593C76.2376 49.7039 75.4282 49.3761 74.4241 49.3761C73.4611 49.3761 72.6619 49.7039 72.0267 50.3593C71.4119 50.9943 71.1046 51.8444 71.1046 52.9096C71.1046 53.9747 71.4119 54.835 72.0267 55.4905C72.6619 56.1255 73.4611 56.443 74.4241 56.443ZM74.2704 43.5997L72.1496 41.3874L77.0367 36.8708L79.219 39.0523L74.2704 43.5997Z" fill="#DA93E2"/>
<path d="M91.1359 66.5825C90.3368 66.5825 89.5171 66.4596 88.677 66.2138C87.8573 65.9885 87.0992 65.589 86.4025 65.0155C85.7058 64.4624 85.1218 63.725 84.6505 62.8032L84.4046 62.2809L87.6319 60.6217C88.1442 61.4206 88.6565 61.9941 89.1688 62.3423C89.7015 62.6906 90.3777 62.8647 91.1974 62.8647C92.14 62.8647 92.9084 62.5574 93.5026 61.9429C94.0969 61.3489 94.394 60.4476 94.394 59.2391V55.1833H94.7013V49.1918H94.394L95.5312 45.4125H98.8815V58.2866C98.8815 60.0482 98.5741 61.5537 97.9594 62.8032C97.3447 64.0527 96.4533 64.995 95.2853 65.63C94.1378 66.265 92.7547 66.5825 91.1359 66.5825ZM90.5519 59.6385C89.1995 59.6385 88.0008 59.3312 86.9557 58.7167C85.9312 58.1022 85.1115 57.2419 84.4968 56.1358C83.9026 55.0296 83.6055 53.7699 83.6055 52.3565C83.6055 50.9226 83.8923 49.6629 84.4661 48.5773C85.0603 47.4711 85.88 46.6108 86.925 45.9963C87.97 45.3613 89.1585 45.0438 90.4904 45.0438C91.7404 45.0438 92.8367 45.3511 93.7792 45.9656C94.7218 46.5801 95.4595 47.4302 95.9923 48.5158C96.525 49.6014 96.7914 50.8817 96.7914 52.3565C96.7914 53.8723 96.5353 55.173 96.023 56.2587C95.5107 57.3443 94.7833 58.1841 93.8407 58.7782C92.9186 59.3517 91.8223 59.6385 90.5519 59.6385ZM91.4125 55.7056C92.3551 55.7056 93.1235 55.3881 93.7178 54.7531C94.3325 54.1181 94.6399 53.3192 94.6399 52.3565C94.6399 51.3528 94.3325 50.5334 93.7178 49.8985C93.1235 49.2635 92.3551 48.946 91.4125 48.946C90.4699 48.946 89.6913 49.2635 89.0766 49.8985C88.4823 50.5334 88.1852 51.3528 88.1852 52.3565C88.1852 53.3192 88.4823 54.1181 89.0766 54.7531C89.6913 55.3881 90.4699 55.7056 91.4125 55.7056Z" fill="#DA93E2"/>
<path d="M106.788 59.3005L100.763 45.4125H105.312L111.029 58.6245L106.788 59.3005ZM103.56 66.2752L112.627 45.4125H117.176L108.14 66.2752H103.56Z" fill="#DA93E2"/>
<path d="M122.693 60.8368C121.607 60.8368 120.644 60.6319 119.804 60.2223C118.984 59.7921 118.349 59.1981 117.898 58.4402C117.447 57.6823 117.222 56.8015 117.222 55.7978C117.222 54.7326 117.468 53.8313 117.96 53.0939C118.452 52.336 119.107 51.7522 119.927 51.3426C120.767 50.9329 121.699 50.728 122.724 50.728C124.22 50.728 125.429 51.066 126.351 51.742C127.273 52.418 127.888 53.3909 128.195 54.6609L126.259 54.3229V50.8202C126.259 50.2672 126.064 49.7858 125.675 49.3761C125.285 48.9664 124.66 48.7616 123.8 48.7616C123.246 48.7616 122.611 48.8333 121.894 48.9767C121.177 49.0996 120.439 49.3454 119.681 49.7141L118.359 46.5186C119.261 46.068 120.224 45.7095 121.249 45.4432C122.294 45.1769 123.359 45.0438 124.445 45.0438C125.839 45.0438 127.007 45.2896 127.949 45.7812C128.892 46.2728 129.588 46.9693 130.039 47.8706C130.51 48.7718 130.746 49.8165 130.746 51.0046V60.4374H127.088L126.197 57.5184L128.195 56.9039C127.867 58.1329 127.242 59.0957 126.32 59.7921C125.398 60.4886 124.189 60.8368 122.693 60.8368ZM124.076 57.6413C124.753 57.6413 125.285 57.4672 125.675 57.119C126.084 56.7708 126.289 56.3304 126.289 55.7978C126.289 55.2242 126.084 54.7736 125.675 54.4458C125.285 54.1181 124.753 53.9542 124.076 53.9542C123.4 53.9542 122.867 54.1181 122.478 54.4458C122.089 54.7736 121.894 55.2242 121.894 55.7978C121.894 56.3304 122.089 56.7708 122.478 57.119C122.867 57.4672 123.4 57.6413 124.076 57.6413ZM124.291 43.5997L122.171 41.3874L127.058 36.8708L129.24 39.0523L124.291 43.5997Z" fill="#DA93E2"/>
<path d="M139.164 60.8982C137.955 60.8982 136.817 60.6627 135.752 60.1915C134.707 59.7204 133.754 58.9113 132.893 57.7642L135.445 55.3062C136.141 56.0231 136.807 56.5352 137.442 56.8424C138.078 57.1497 138.774 57.3033 139.532 57.3033C139.983 57.3033 140.342 57.2112 140.608 57.0268C140.895 56.822 141.039 56.5762 141.039 56.2894C141.039 56.0436 140.957 55.8387 140.793 55.6749C140.629 55.511 140.321 55.3471 139.871 55.1833C139.42 55.0194 138.764 54.8248 137.903 54.5995C136.326 54.2103 135.147 53.647 134.369 52.9096C133.611 52.1517 133.231 51.148 133.231 49.8985C133.231 48.9972 133.467 48.1778 133.938 47.4404C134.41 46.6825 135.086 46.0782 135.967 45.6276C136.848 45.1769 137.893 44.9516 139.102 44.9516C140.537 44.9516 141.756 45.2282 142.76 45.7812C143.764 46.3138 144.594 46.9693 145.249 47.7477L142.483 50.1135C142.032 49.7039 141.489 49.3556 140.854 49.0689C140.219 48.7821 139.502 48.6387 138.703 48.6387C138.272 48.6387 137.903 48.7206 137.596 48.8845C137.289 49.0484 137.135 49.2942 137.135 49.6219C137.135 49.9292 137.319 50.1852 137.688 50.3901C138.057 50.5949 138.795 50.8305 139.901 51.0968C141.766 51.5474 143.098 52.1517 143.897 52.9096C144.717 53.6675 145.126 54.6814 145.126 55.9514C145.126 56.9346 144.87 57.8052 144.358 58.5631C143.846 59.3005 143.139 59.874 142.237 60.2837C141.336 60.6934 140.311 60.8982 139.164 60.8982Z" fill="#DA93E2"/>
<path d="M159.396 56.4737V60.4374H146.948V56.9654L155.616 47.3175L157.306 49.3761H147.102V45.4125H159.273V48.8845L150.575 58.5631L149.192 56.4737H159.396Z" fill="#DA93E2"/>
<path d="M166.517 60.8368C165.431 60.8368 164.468 60.6319 163.627 60.2223C162.808 59.7921 162.173 59.1981 161.722 58.4402C161.271 57.6823 161.046 56.8015 161.046 55.7978C161.046 54.7326 161.291 53.8313 161.783 53.0939C162.275 52.336 162.931 51.7522 163.75 51.3426C164.591 50.9329 165.523 50.728 166.547 50.728C168.043 50.728 169.252 51.066 170.174 51.742C171.096 52.418 171.711 53.3909 172.019 54.6609L170.082 54.3229V50.8202C170.082 50.2672 169.887 49.7858 169.498 49.3761C169.109 48.9664 168.484 48.7616 167.623 48.7616C167.07 48.7616 166.435 48.8333 165.718 48.9767C165 49.0996 164.263 49.3454 163.505 49.7141L162.183 46.5186C163.084 46.068 164.048 45.7095 165.072 45.4432C166.117 45.1769 167.183 45.0438 168.269 45.0438C169.662 45.0438 170.83 45.2896 171.773 45.7812C172.715 46.2728 173.412 46.9693 173.863 47.8706C174.334 48.7718 174.57 49.8165 174.57 51.0046V60.4374H170.912L170.021 57.5184L172.019 56.9039C171.691 58.1329 171.066 59.0957 170.144 59.7921C169.222 60.4886 168.013 60.8368 166.517 60.8368ZM167.9 57.6413C168.576 57.6413 169.109 57.4672 169.498 57.119C169.908 56.7708 170.113 56.3304 170.113 55.7978C170.113 55.2242 169.908 54.7736 169.498 54.4458C169.109 54.1181 168.576 53.9542 167.9 53.9542C167.224 53.9542 166.691 54.1181 166.302 54.4458C165.912 54.7736 165.718 55.2242 165.718 55.7978C165.718 56.3304 165.912 56.7708 166.302 57.119C166.691 57.4672 167.224 57.6413 167.9 57.6413Z" fill="#DA93E2"/>
<path d="M184.097 60.6832C182.437 60.6832 181.125 60.2735 180.162 59.4541C179.22 58.6348 178.748 57.2931 178.748 55.4291V45.5969L178.687 45.4125L179.609 41.7869H183.236V54.4458C183.236 55.1423 183.4 55.6442 183.728 55.9514C184.056 56.2382 184.486 56.3816 185.019 56.3816C185.326 56.3816 185.613 56.3611 185.879 56.3201C186.166 56.2587 186.402 56.1972 186.586 56.1358V60.3452C186.238 60.4476 185.859 60.5295 185.449 60.591C185.06 60.6524 184.609 60.6832 184.097 60.6832ZM176.412 49.5297V45.4125H186.586V49.5297H176.412Z" fill="#DA93E2"/>
<path d="M194.131 60.4374H189.643V45.4125H194.131V60.4374ZM189.244 40.6808C189.244 39.8819 189.479 39.2367 189.951 38.745C190.442 38.2534 191.088 38.0076 191.887 38.0076C192.686 38.0076 193.321 38.2534 193.793 38.745C194.284 39.2367 194.53 39.8819 194.53 40.6808C194.53 41.4591 194.284 42.0941 193.793 42.5857C193.321 43.0569 192.686 43.2924 191.887 43.2924C191.088 43.2924 190.442 43.0569 189.951 42.5857C189.479 42.0941 189.244 41.4591 189.244 40.6808Z" fill="#DA93E2"/>
<path d="M213.7 60.8061C212.388 60.8061 211.241 60.4886 210.257 59.8536C209.274 59.1981 208.505 58.2866 207.952 57.119C207.419 55.9309 207.153 54.5278 207.153 52.9096C207.153 51.2094 207.419 49.7755 207.952 48.608C208.485 47.4404 209.233 46.5596 210.196 45.9656C211.179 45.3511 212.337 45.0438 213.669 45.0438C215.022 45.0438 216.22 45.3818 217.265 46.0577C218.31 46.7132 219.13 47.635 219.724 48.8231C220.318 50.0111 220.616 51.3733 220.616 52.9096C220.616 54.4458 220.318 55.8183 219.724 57.0268C219.15 58.2149 218.341 59.1469 217.296 59.8228C216.271 60.4783 215.073 60.8061 213.7 60.8061ZM205.37 60.4374V39.5132H209.858V49.5912H209.581V56.5966H209.858L208.721 60.4374H205.37ZM212.839 56.5966C213.761 56.5966 214.52 56.2587 215.114 55.5827C215.728 54.8863 216.036 53.9952 216.036 52.9096C216.036 51.8444 215.728 50.9739 215.114 50.2979C214.52 49.6014 213.761 49.2532 212.839 49.2532C211.938 49.2532 211.179 49.6014 210.565 50.2979C209.95 50.9739 209.643 51.8444 209.643 52.9096C209.643 53.9952 209.95 54.8863 210.565 55.5827C211.179 56.2587 211.938 56.5966 212.839 56.5966Z" fill="#DA93E2"/>
<path d="M229.329 60.7139C227.833 60.7139 226.511 60.3964 225.364 59.7614C224.237 59.1264 223.356 58.2251 222.72 57.0575C222.106 55.89 221.798 54.5175 221.798 52.9403C221.798 51.3835 222.106 50.0111 222.72 48.8231C223.356 47.635 224.237 46.7132 225.364 46.0577C226.511 45.3818 227.833 45.0438 229.329 45.0438C230.866 45.0438 232.197 45.392 233.324 46.0885C234.451 46.7849 235.322 47.7272 235.937 48.9152C236.552 50.0828 236.859 51.404 236.859 52.8788C236.859 53.1451 236.849 53.4012 236.828 53.647C236.808 53.8928 236.787 54.0874 236.767 54.2308H225.302V51.0353H233.324L232.802 52.3565C232.802 51.2299 232.515 50.3081 231.941 49.5912C231.388 48.8743 230.527 48.5158 229.359 48.5158C228.314 48.5158 227.474 48.8333 226.839 49.4683C226.224 50.1033 225.917 50.9431 225.917 51.9878V53.6777C225.917 54.8043 226.235 55.6851 226.87 56.3201C227.525 56.9346 228.427 57.2419 229.575 57.2419C230.538 57.2419 231.296 57.0473 231.849 56.6581C232.423 56.2689 232.904 55.7875 233.294 55.214L236.337 56.9039C235.681 58.1124 234.759 59.0547 233.57 59.7307C232.382 60.3861 230.968 60.7139 229.329 60.7139Z" fill="#DA93E2"/>
<path d="M245.78 60.6832C244.12 60.6832 242.808 60.2735 241.845 59.4541C240.903 58.6348 240.432 57.2931 240.432 55.4291V45.5969L240.37 45.4125L241.292 41.7869H244.919V54.4458C244.919 55.1423 245.083 55.6442 245.411 55.9514C245.739 56.2382 246.169 56.3816 246.702 56.3816C247.009 56.3816 247.296 56.3611 247.562 56.3201C247.849 56.2587 248.085 56.1972 248.269 56.1358V60.3452C247.921 60.4476 247.542 60.5295 247.132 60.591C246.743 60.6524 246.292 60.6832 245.78 60.6832ZM238.096 49.5297V45.4125H248.269V49.5297H238.096Z" fill="#DA93E2"/>
<path d="M257.694 60.7139C256.198 60.7139 254.876 60.3964 253.729 59.7614C252.602 59.1264 251.721 58.2251 251.086 57.0575C250.471 55.89 250.163 54.5175 250.163 52.9403C250.163 51.3835 250.471 50.0111 251.086 48.8231C251.721 47.635 252.602 46.7132 253.729 46.0577C254.876 45.3818 256.198 45.0438 257.694 45.0438C259.231 45.0438 260.563 45.392 261.69 46.0885C262.817 46.7849 263.688 47.7272 264.302 48.9152C264.917 50.0828 265.224 51.404 265.224 52.8788C265.224 53.1451 265.214 53.4012 265.194 53.647C265.173 53.8928 265.153 54.0874 265.132 54.2308H253.667V51.0353H261.69L261.167 52.3565C261.167 51.2299 260.88 50.3081 260.307 49.5912C259.753 48.8743 258.893 48.5158 257.725 48.5158C256.68 48.5158 255.839 48.8333 255.204 49.4683C254.59 50.1033 254.282 50.9431 254.282 51.9878V53.6777C254.282 54.8043 254.6 55.6851 255.235 56.3201C255.891 56.9346 256.792 57.2419 257.94 57.2419C258.903 57.2419 259.661 57.0473 260.214 56.6581C260.788 56.2689 261.27 55.7875 261.659 55.214L264.702 56.9039C264.046 58.1124 263.124 59.0547 261.936 59.7307C260.747 60.3861 259.333 60.7139 257.694 60.7139Z" fill="#DA93E2"/>
<path d="M274.174 66.5825C273.375 66.5825 272.555 66.4596 271.715 66.2138C270.896 65.9885 270.137 65.589 269.441 65.0155C268.744 64.4624 268.16 63.725 267.689 62.8032L267.443 62.2809L270.67 60.6217C271.183 61.4206 271.695 61.9941 272.207 62.3423C272.74 62.6906 273.416 62.8647 274.236 62.8647C275.178 62.8647 275.947 62.5574 276.541 61.9429C277.135 61.3489 277.432 60.4476 277.432 59.2391V55.1833H277.74V49.1918H277.432L278.57 45.4125H281.92V58.2866C281.92 60.0482 281.612 61.5537 280.998 62.8032C280.383 64.0527 279.492 64.995 278.324 65.63C277.176 66.265 275.793 66.5825 274.174 66.5825ZM273.59 59.6385C272.238 59.6385 271.039 59.3312 269.994 58.7167C268.969 58.1022 268.15 57.2419 267.535 56.1358C266.941 55.0296 266.644 53.7699 266.644 52.3565C266.644 50.9226 266.931 49.6629 267.504 48.5773C268.099 47.4711 268.918 46.6108 269.963 45.9963C271.008 45.3613 272.197 45.0438 273.529 45.0438C274.779 45.0438 275.875 45.3511 276.818 45.9656C277.76 46.5801 278.498 47.4302 279.031 48.5158C279.563 49.6014 279.83 50.8817 279.83 52.3565C279.83 53.8723 279.574 55.173 279.061 56.2587C278.549 57.3443 277.822 58.1841 276.879 58.7782C275.957 59.3517 274.861 59.6385 273.59 59.6385ZM274.451 55.7056C275.393 55.7056 276.162 55.3881 276.756 54.7531C277.371 54.1181 277.678 53.3192 277.678 52.3565C277.678 51.3528 277.371 50.5334 276.756 49.8985C276.162 49.2635 275.393 48.946 274.451 48.946C273.508 48.946 272.73 49.2635 272.115 49.8985C271.521 50.5334 271.223 51.3528 271.223 52.3565C271.223 53.3192 271.521 54.1181 272.115 54.7531C272.73 55.3881 273.508 55.7056 274.451 55.7056Z" fill="#DA93E2"/>
<path d="M290.565 60.8982C289.356 60.8982 288.219 60.6627 287.153 60.1915C286.108 59.7204 285.155 58.9113 284.295 57.7642L286.846 55.3062C287.543 56.0231 288.208 56.5352 288.844 56.8424C289.479 57.1497 290.176 57.3033 290.934 57.3033C291.385 57.3033 291.743 57.2112 292.01 57.0268C292.296 56.822 292.44 56.5762 292.44 56.2894C292.44 56.0436 292.358 55.8387 292.194 55.6749C292.03 55.511 291.723 55.3471 291.272 55.1833C290.821 55.0194 290.165 54.8248 289.305 54.5995C287.727 54.2103 286.549 53.647 285.77 52.9096C285.012 52.1517 284.633 51.148 284.633 49.8985C284.633 48.9972 284.868 48.1778 285.34 47.4404C285.811 46.6825 286.487 46.0782 287.368 45.6276C288.249 45.1769 289.294 44.9516 290.503 44.9516C291.938 44.9516 293.157 45.2282 294.161 45.7812C295.165 46.3138 295.995 46.9693 296.651 47.7477L293.884 50.1135C293.434 49.7039 292.891 49.3556 292.255 49.0689C291.62 48.7821 290.903 48.6387 290.104 48.6387C289.674 48.6387 289.305 48.7206 288.997 48.8845C288.69 49.0484 288.536 49.2942 288.536 49.6219C288.536 49.9292 288.721 50.1852 289.09 50.3901C289.458 50.5949 290.196 50.8305 291.303 51.0968C293.167 51.5474 294.499 52.1517 295.298 52.9096C296.118 53.6675 296.528 54.6814 296.528 55.9514C296.528 56.9346 296.272 57.8052 295.759 58.5631C295.247 59.3005 294.54 59.874 293.639 60.2837C292.737 60.6934 291.712 60.8982 290.565 60.8982Z" fill="#DA93E2"/>
<path d="M305.51 60.7139C304.014 60.7139 302.692 60.3964 301.545 59.7614C300.418 59.1264 299.536 58.2251 298.901 57.0575C298.287 55.89 297.979 54.5175 297.979 52.9403C297.979 51.3835 298.287 50.0111 298.901 48.8231C299.536 47.635 300.418 46.7132 301.545 46.0577C302.692 45.3818 304.014 45.0438 305.51 45.0438C307.046 45.0438 308.378 45.392 309.505 46.0885C310.632 46.7849 311.503 47.7272 312.118 48.9152C312.733 50.0828 313.04 51.404 313.04 52.8788C313.04 53.1451 313.03 53.4012 313.009 53.647C312.989 53.8928 312.968 54.0874 312.948 54.2308H301.483V51.0353H309.505L308.983 52.3565C308.983 51.2299 308.696 50.3081 308.122 49.5912C307.569 48.8743 306.708 48.5158 305.54 48.5158C304.495 48.5158 303.655 48.8333 303.02 49.4683C302.405 50.1033 302.098 50.9431 302.098 51.9878V53.6777C302.098 54.8043 302.415 55.6851 303.051 56.3201C303.706 56.9346 304.608 57.2419 305.755 57.2419C306.719 57.2419 307.477 57.0473 308.03 56.6581C308.604 56.2689 309.085 55.7875 309.475 55.214L312.518 56.9039C311.862 58.1124 310.94 59.0547 309.751 59.7307C308.563 60.3861 307.149 60.7139 305.51 60.7139ZM305.356 43.5997L303.235 41.3874L308.122 36.8708L310.304 39.0523L305.356 43.5997Z" fill="#DA93E2"/>
<path d="M321.99 66.5825C321.191 66.5825 320.371 66.4596 319.531 66.2138C318.711 65.9885 317.953 65.589 317.256 65.0155C316.56 64.4624 315.976 63.725 315.504 62.8032L315.259 62.2809L318.486 60.6217C318.998 61.4206 319.51 61.9941 320.023 62.3423C320.556 62.6906 321.232 62.8647 322.051 62.8647C322.994 62.8647 323.762 62.5574 324.357 61.9429C324.951 61.3489 325.248 60.4476 325.248 59.2391V55.1833H325.555V49.1918H325.248L326.385 45.4125H329.735V58.2866C329.735 60.0482 329.428 61.5537 328.813 62.8032C328.199 64.0527 327.307 64.995 326.139 65.63C324.992 66.265 323.609 66.5825 321.99 66.5825ZM321.406 59.6385C320.053 59.6385 318.855 59.3312 317.81 58.7167C316.785 58.1022 315.966 57.2419 315.351 56.1358C314.757 55.0296 314.459 53.7699 314.459 52.3565C314.459 50.9226 314.746 49.6629 315.32 48.5773C315.914 47.4711 316.734 46.6108 317.779 45.9963C318.824 45.3613 320.012 45.0438 321.344 45.0438C322.594 45.0438 323.691 45.3511 324.633 45.9656C325.576 46.5801 326.313 47.4302 326.846 48.5158C327.379 49.6014 327.645 50.8817 327.645 52.3565C327.645 53.8723 327.389 55.173 326.877 56.2587C326.365 57.3443 325.637 58.1841 324.695 58.7782C323.773 59.3517 322.676 59.6385 321.406 59.6385ZM322.266 55.7056C323.209 55.7056 323.977 55.3881 324.572 54.7531C325.186 54.1181 325.494 53.3192 325.494 52.3565C325.494 51.3528 325.186 50.5334 324.572 49.8985C323.977 49.2635 323.209 48.946 322.266 48.946C321.324 48.946 320.545 49.2635 319.931 49.8985C319.336 50.5334 319.039 51.3528 319.039 52.3565C319.039 53.3192 319.336 54.1181 319.931 54.7531C320.545 55.3881 321.324 55.7056 322.266 55.7056Z" fill="#DA93E2"/>
<path d="M337.009 53.8928L334.765 50.4515L336.886 49.0074C337.767 48.4134 338.463 47.9115 338.976 47.5019C339.488 47.0717 339.857 46.662 340.082 46.2728C340.308 45.8631 340.42 45.4125 340.42 44.9209C340.42 44.3064 340.205 43.8045 339.775 43.4153C339.344 43.0057 338.801 42.8008 338.146 42.8008C337.592 42.8008 336.998 42.9442 336.363 43.231C335.728 43.4973 334.98 44.0299 334.119 44.8287L333.136 45.689L330.4 42.4321L331.076 41.7869C332.039 40.7832 333.115 39.9741 334.304 39.3596C335.492 38.745 336.804 38.4378 338.238 38.4378C339.611 38.4378 340.799 38.7143 341.803 39.2674C342.828 39.8204 343.617 40.5783 344.17 41.5411C344.723 42.4833 345 43.5382 345 44.7058C345 45.689 344.826 46.5903 344.477 47.4097C344.15 48.229 343.596 49.0177 342.818 49.7756C342.039 50.5335 341.004 51.3221 339.713 52.1414L337.009 53.8928ZM337.777 60.6524C336.978 60.6524 336.291 60.3759 335.718 59.8228C335.164 59.2698 334.888 58.5938 334.888 57.7949C334.888 56.9961 335.164 56.3201 335.718 55.7671C336.291 55.1935 336.978 54.9067 337.777 54.9067C338.576 54.9067 339.252 55.1935 339.806 55.7671C340.379 56.3201 340.666 56.9961 340.666 57.7949C340.666 58.5938 340.379 59.2698 339.806 59.8228C339.252 60.3759 338.576 60.6524 337.777 60.6524Z" fill="#DA93E2"/>
<path d="M336.755 258.618C336.755 293.332 325.762 327.155 305.35 355.239C284.938 383.324 256.157 404.227 223.13 414.955L172.315 258.618H336.755Z" fill="#6165E5"/>
<path d="M223.452 414.85C192.123 425.097 158.436 425.695 126.763 416.567C95.0894 407.439 66.8915 389.006 45.8277 363.659C24.7639 338.313 11.8065 307.223 8.63689 274.424C5.46726 241.625 12.2317 208.631 28.0524 179.723L172.315 258.618L223.452 414.85Z" fill="#DA93E2"/>
<path d="M27.2704 181.169C44.5411 148.847 72.1197 123.221 105.626 108.361C139.132 93.5 176.645 90.2567 212.206 99.1459C247.768 108.035 279.338 128.547 301.904 157.424C324.469 186.301 336.736 221.887 336.755 258.53L172.315 258.618L27.2704 181.169Z" fill="#F1C768"/>
<path d="M241.214 293.341C241.214 294.247 241.085 295.122 240.825 295.964C240.566 296.806 240.145 297.67 239.562 298.555C238.978 299.441 238.212 300.402 237.261 301.438L231.753 307.625L231.364 305.584H241.473V309.633H227.67V306.102L233.567 299.657C234.474 298.663 235.177 297.832 235.673 297.163C236.17 296.493 236.516 295.899 236.71 295.381C236.905 294.863 237.002 294.345 237.002 293.826C237.002 293.049 236.764 292.444 236.289 292.013C235.814 291.559 235.241 291.332 234.572 291.332C233.88 291.332 233.168 291.559 232.433 292.013C231.72 292.466 230.964 293.243 230.165 294.345L227.119 292.077C227.724 291.084 228.394 290.231 229.128 289.518C229.863 288.784 230.683 288.223 231.591 287.834C232.52 287.424 233.535 287.219 234.637 287.219C236.019 287.219 237.196 287.489 238.168 288.028C239.14 288.568 239.886 289.303 240.404 290.231C240.944 291.16 241.214 292.196 241.214 293.341Z" fill="#3D4091"/>
<path d="M251.737 310.022C250.139 310.022 248.745 309.568 247.557 308.661C246.369 307.754 245.451 306.448 244.803 304.742C244.155 303.036 243.831 300.996 243.831 298.62C243.831 296.266 244.155 294.237 244.803 292.531C245.451 290.825 246.369 289.518 247.557 288.612C248.745 287.683 250.139 287.219 251.737 287.219C253.336 287.219 254.718 287.683 255.885 288.612C257.073 289.518 257.991 290.825 258.639 292.531C259.287 294.237 259.611 296.266 259.611 298.62C259.611 300.996 259.287 303.036 258.639 304.742C257.991 306.448 257.073 307.754 255.885 308.661C254.718 309.568 253.336 310.022 251.737 310.022ZM251.737 305.876C252.601 305.876 253.292 305.552 253.811 304.904C254.329 304.256 254.707 303.382 254.945 302.28C255.183 301.179 255.301 299.959 255.301 298.62C255.301 297.433 255.183 296.288 254.945 295.187C254.707 294.064 254.329 293.157 253.811 292.466C253.292 291.753 252.601 291.397 251.737 291.397C250.83 291.397 250.106 291.753 249.566 292.466C249.048 293.157 248.67 294.064 248.432 295.187C248.216 296.288 248.108 297.433 248.108 298.62C248.108 299.959 248.216 301.179 248.432 302.28C248.67 303.382 249.059 304.256 249.599 304.904C250.139 305.552 250.852 305.876 251.737 305.876Z" fill="#3D4091"/>
<path d="M265.466 310.054L262.873 308.078L280.435 287.834L283.027 289.778L265.466 310.054ZM266.664 298.102C265.714 298.102 264.828 297.864 264.007 297.389C263.208 296.914 262.571 296.288 262.096 295.511C261.62 294.733 261.383 293.87 261.383 292.919C261.383 291.926 261.62 291.041 262.096 290.263C262.571 289.486 263.208 288.871 264.007 288.417C264.828 287.942 265.714 287.705 266.664 287.705C267.658 287.705 268.555 287.942 269.354 288.417C270.153 288.892 270.79 289.518 271.266 290.296C271.741 291.073 271.978 291.948 271.978 292.919C271.978 293.87 271.741 294.733 271.266 295.511C270.79 296.288 270.142 296.914 269.321 297.389C268.522 297.864 267.636 298.102 266.664 298.102ZM266.664 294.83C267.226 294.83 267.69 294.658 268.058 294.312C268.425 293.945 268.609 293.481 268.609 292.919C268.609 292.336 268.425 291.861 268.058 291.494C267.69 291.127 267.226 290.944 266.664 290.944C266.124 290.944 265.671 291.127 265.304 291.494C264.958 291.861 264.785 292.336 264.785 292.919C264.785 293.481 264.958 293.945 265.304 294.312C265.671 294.658 266.124 294.83 266.664 294.83ZM279.334 310.022C278.362 310.022 277.476 309.795 276.677 309.341C275.877 308.866 275.229 308.24 274.732 307.463C274.257 306.685 274.02 305.811 274.02 304.839C274.02 303.867 274.257 302.993 274.732 302.216C275.229 301.417 275.877 300.79 276.677 300.337C277.476 299.883 278.362 299.657 279.334 299.657C280.306 299.657 281.191 299.883 281.991 300.337C282.811 300.79 283.459 301.417 283.935 302.216C284.41 303.015 284.648 303.889 284.648 304.839C284.648 305.811 284.399 306.685 283.902 307.463C283.427 308.24 282.79 308.866 281.991 309.341C281.191 309.795 280.306 310.022 279.334 310.022ZM279.334 306.783C279.874 306.783 280.327 306.61 280.694 306.264C281.062 305.897 281.245 305.422 281.245 304.839C281.245 304.256 281.062 303.792 280.694 303.446C280.327 303.079 279.874 302.896 279.334 302.896C278.772 302.896 278.308 303.079 277.94 303.446C277.595 303.792 277.422 304.256 277.422 304.839C277.422 305.422 277.595 305.897 277.94 306.264C278.308 306.61 278.772 306.783 279.334 306.783Z" fill="#3D4091"/>
<path d="M225.841 348.502H221.596V326.444H225.841V348.502Z" fill="#3D4091"/>
<path d="M239.988 348.89C237.763 348.89 235.808 348.405 234.123 347.433C232.438 346.439 231.131 345.09 230.202 343.384C229.274 341.678 228.809 339.745 228.809 337.586C228.809 335.902 229.079 334.358 229.619 332.954C230.181 331.551 230.958 330.341 231.952 329.326C232.967 328.29 234.155 327.491 235.516 326.93C236.877 326.368 238.368 326.087 239.988 326.087C242.515 326.087 244.6 326.627 246.241 327.707C247.883 328.765 249.168 330.233 250.097 332.112L246.144 333.602C245.345 332.35 244.438 331.475 243.422 330.978C242.429 330.46 241.284 330.201 239.988 330.201C238.67 330.201 237.493 330.514 236.456 331.14C235.441 331.745 234.631 332.598 234.026 333.699C233.443 334.8 233.151 336.096 233.151 337.586C233.151 339.011 233.443 340.274 234.026 341.376C234.631 342.477 235.441 343.341 236.456 343.967C237.493 344.572 238.67 344.874 239.988 344.874C241.241 344.874 242.353 344.626 243.325 344.129C244.319 343.611 245.107 342.909 245.691 342.024C246.274 341.117 246.587 340.069 246.63 338.882L247.699 340.598H239.696V336.744H250.454C250.54 337.046 250.605 337.381 250.648 337.748C250.691 338.094 250.713 338.439 250.713 338.784C250.713 340.253 250.432 341.602 249.87 342.833C249.309 344.064 248.531 345.133 247.537 346.04C246.565 346.947 245.431 347.649 244.135 348.145C242.861 348.642 241.478 348.89 239.988 348.89Z" fill="#3D4091"/>
<path d="M256.505 339.465V335.416H265.512V339.465H256.505ZM256.408 330.46L257.768 328.841V345.943L256.245 344.453H267.359V348.502H253.524V326.444H267.359V330.46H256.408Z" fill="#3D4091"/>
<path d="M286.121 348.502L273.354 331.464L275.298 330.914V348.502H271.054V326.444H274.845L287.32 343.092L285.667 343.319V326.444H289.912V348.502H286.121Z" fill="#3D4091"/>
<path d="M80.8075 301.924C79.101 301.924 77.6322 301.622 76.4009 301.017C75.1696 300.391 74.0463 299.462 73.0311 298.232L75.7204 295.608C76.4333 296.342 77.1569 296.893 77.8914 297.26C78.6258 297.627 79.4467 297.81 80.3539 297.81C81.5204 297.81 82.4061 297.541 83.0109 297.001C83.6157 296.439 83.9182 295.737 83.9182 294.895C83.9182 294.118 83.7129 293.502 83.3025 293.049C82.9137 292.596 82.3737 292.272 81.6824 292.077C81.0128 291.861 80.2459 291.753 79.3819 291.753C79.1226 291.753 78.8418 291.764 78.5394 291.786C78.2586 291.786 77.9886 291.807 77.7294 291.851V288.158C78.075 288.18 78.345 288.201 78.5394 288.223C78.7338 288.223 78.9498 288.223 79.1875 288.223C80.4187 288.223 81.3692 287.996 82.0388 287.543C82.7085 287.068 83.0433 286.409 83.0433 285.567C83.0433 284.833 82.8057 284.26 82.3304 283.85C81.8552 283.44 81.1856 283.235 80.3215 283.235C79.5223 283.235 78.777 283.418 78.0858 283.785C77.4161 284.152 76.7573 284.725 76.1093 285.502L73.3875 282.814C74.5108 281.475 75.6448 280.525 76.7897 279.963C77.9346 279.402 79.2523 279.121 80.7428 279.121C82.1036 279.121 83.2701 279.369 84.2422 279.866C85.2142 280.363 85.9595 281.054 86.4779 281.939C87.0179 282.824 87.288 283.85 87.288 285.016C87.288 286.808 86.6291 288.244 85.3114 289.324C84.0154 290.404 82.2332 290.944 79.9651 290.944V288.903C81.5852 288.903 83.0109 289.141 84.2422 289.616C85.495 290.091 86.4671 290.803 87.1584 291.753C87.8496 292.704 88.1952 293.88 88.1952 295.284C88.1952 296.472 87.9036 297.573 87.3204 298.588C86.7587 299.603 85.9271 300.412 84.8254 301.017C83.7237 301.622 82.3844 301.924 80.8075 301.924Z" fill="#7B1F85"/>
<path d="M97.9654 301.924C96.3237 301.924 94.9412 301.643 93.818 301.082C92.6947 300.499 91.8415 299.721 91.2582 298.75C90.6966 297.778 90.4158 296.688 90.4158 295.478C90.4158 294.442 90.6426 293.513 91.0962 292.693C91.5714 291.851 92.2303 291.138 93.0727 290.555C93.9368 289.972 94.952 289.551 96.1185 289.292L96.0861 291.17C95.006 290.868 94.088 290.425 93.3319 289.842C92.5759 289.259 91.9927 288.579 91.5822 287.802C91.1934 287.003 90.999 286.161 90.999 285.275C90.999 284.109 91.269 283.062 91.809 282.133C92.3491 281.205 93.1375 280.471 94.1744 279.931C95.2113 279.391 96.4857 279.121 97.9978 279.121C99.4883 279.121 100.741 279.391 101.756 279.931C102.793 280.471 103.582 281.205 104.122 282.133C104.662 283.062 104.932 284.109 104.932 285.275C104.932 286.096 104.748 286.895 104.381 287.672C104.035 288.428 103.517 289.097 102.826 289.68C102.156 290.263 101.324 290.706 100.331 291.008L100.266 289.389C101.389 289.67 102.329 290.112 103.085 290.717C103.863 291.3 104.457 292.002 104.867 292.822C105.299 293.621 105.515 294.507 105.515 295.478C105.515 296.688 105.223 297.778 104.64 298.75C104.079 299.721 103.236 300.499 102.113 301.082C100.99 301.643 99.6071 301.924 97.9654 301.924ZM97.9654 297.875C98.9375 297.875 99.7151 297.616 100.298 297.098C100.903 296.558 101.206 295.845 101.206 294.96C101.206 294.032 100.903 293.297 100.298 292.757C99.7151 292.218 98.9375 291.948 97.9654 291.948C96.9718 291.948 96.1833 292.218 95.6001 292.757C95.0168 293.297 94.7252 294.032 94.7252 294.96C94.7252 295.845 95.0168 296.558 95.6001 297.098C96.1833 297.616 96.9718 297.875 97.9654 297.875ZM97.9654 287.996C98.7863 287.996 99.4559 287.769 99.9744 287.316C100.493 286.841 100.752 286.247 100.752 285.534C100.752 284.843 100.493 284.271 99.9744 283.818C99.4559 283.364 98.7863 283.138 97.9654 283.138C97.1446 283.138 96.4749 283.364 95.9565 283.818C95.4381 284.271 95.1789 284.843 95.1789 285.534C95.1789 286.247 95.4381 286.841 95.9565 287.316C96.4749 287.769 97.1446 287.996 97.9654 287.996Z" fill="#7B1F85"/>
<path d="M111.54 301.956L108.948 299.981L126.51 279.736L129.102 281.68L111.54 301.956ZM112.739 290.004C111.789 290.004 110.903 289.767 110.082 289.292C109.283 288.817 108.646 288.19 108.17 287.413C107.695 286.636 107.457 285.772 107.457 284.822C107.457 283.828 107.695 282.943 108.17 282.166C108.646 281.388 109.283 280.773 110.082 280.32C110.903 279.844 111.789 279.607 112.739 279.607C113.733 279.607 114.629 279.844 115.428 280.32C116.228 280.795 116.865 281.421 117.34 282.198C117.815 282.976 118.053 283.85 118.053 284.822C118.053 285.772 117.815 286.636 117.34 287.413C116.865 288.19 116.217 288.817 115.396 289.292C114.597 289.767 113.711 290.004 112.739 290.004ZM112.739 286.733C113.301 286.733 113.765 286.56 114.132 286.215C114.5 285.848 114.683 285.383 114.683 284.822C114.683 284.239 114.5 283.764 114.132 283.397C113.765 283.03 113.301 282.846 112.739 282.846C112.199 282.846 111.745 283.03 111.378 283.397C111.032 283.764 110.86 284.239 110.86 284.822C110.86 285.383 111.032 285.848 111.378 286.215C111.745 286.56 112.199 286.733 112.739 286.733ZM125.408 301.924C124.436 301.924 123.55 301.697 122.751 301.244C121.952 300.769 121.304 300.143 120.807 299.365C120.332 298.588 120.094 297.713 120.094 296.742C120.094 295.77 120.332 294.895 120.807 294.118C121.304 293.319 121.952 292.693 122.751 292.239C123.55 291.786 124.436 291.559 125.408 291.559C126.38 291.559 127.266 291.786 128.065 292.239C128.886 292.693 129.534 293.319 130.009 294.118C130.484 294.917 130.722 295.791 130.722 296.742C130.722 297.713 130.474 298.588 129.977 299.365C129.502 300.143 128.864 300.769 128.065 301.244C127.266 301.697 126.38 301.924 125.408 301.924ZM125.408 298.685C125.948 298.685 126.402 298.512 126.769 298.167C127.136 297.8 127.32 297.325 127.32 296.742C127.32 296.159 127.136 295.694 126.769 295.349C126.402 294.982 125.948 294.798 125.408 294.798C124.847 294.798 124.382 294.982 124.015 295.349C123.669 295.694 123.496 296.159 123.496 296.742C123.496 297.325 123.669 297.8 124.015 298.167C124.382 298.512 124.847 298.685 125.408 298.685Z" fill="#7B1F85"/>
<path d="M84.6523 340.404L71.8859 323.367L73.83 322.816V340.404H69.5853V318.346H73.3764L85.8511 334.995L84.1986 335.222V318.346H88.4433V340.404H84.6523Z" fill="#7B1F85"/>
<path d="M95.8236 331.367V327.318H104.831V331.367H95.8236ZM95.7264 322.363L97.0873 320.743V337.845L95.5644 336.355H106.678V340.404H92.8426V318.346H106.678V322.363H95.7264Z" fill="#7B1F85"/>
<path d="M109.012 340.404L112.965 318.346H116.756L122.297 333.764H122.167L127.708 318.346H131.499L135.452 340.404H131.142L129.555 330.331C129.317 328.97 129.112 327.61 128.939 326.249C128.788 324.867 128.669 323.496 128.583 322.136H129.749C129.382 323.669 129.015 325.083 128.647 326.379C128.302 327.653 127.891 328.959 127.416 330.298L123.884 340.113H120.579L117.047 330.298C116.572 328.959 116.151 327.653 115.784 326.379C115.417 325.083 115.06 323.669 114.715 322.136H115.849C115.784 323.496 115.665 324.867 115.492 326.249C115.341 327.61 115.147 328.97 114.909 330.331L113.321 340.404H109.012Z" fill="#7B1F85"/>
<path d="M169.942 129.736V144.441H165.633V136.505L165.147 135.307L167.156 129.736H169.942ZM156.204 139.161V136.603L161.453 122.383H165.698L160.416 136.959L159.93 135.048H172.923V139.161H156.204Z" fill="#967B3F"/>
<path d="M187.76 128.149C187.76 129.056 187.631 129.93 187.371 130.772C187.112 131.614 186.691 132.478 186.108 133.363C185.525 134.249 184.758 135.21 183.807 136.246L178.299 142.433L177.91 140.392H188.02V144.441H174.216V140.91L180.113 134.465C181.021 133.471 181.723 132.64 182.22 131.971C182.716 131.301 183.062 130.707 183.256 130.189C183.451 129.671 183.548 129.153 183.548 128.634C183.548 127.857 183.31 127.252 182.835 126.821C182.36 126.367 181.788 126.14 181.118 126.14C180.427 126.14 179.714 126.367 178.979 126.821C178.266 127.274 177.51 128.051 176.711 129.153L173.665 126.885C174.27 125.892 174.94 125.039 175.674 124.327C176.409 123.592 177.23 123.031 178.137 122.642C179.066 122.232 180.081 122.027 181.183 122.027C182.565 122.027 183.742 122.297 184.714 122.837C185.687 123.376 186.432 124.111 186.95 125.039C187.49 125.968 187.76 127.004 187.76 128.149Z" fill="#967B3F"/>
<path d="M194.039 144.862L191.447 142.886L209.008 122.642L211.601 124.586L194.039 144.862ZM195.238 132.91C194.287 132.91 193.401 132.672 192.581 132.197C191.781 131.722 191.144 131.096 190.669 130.319C190.194 129.541 189.956 128.678 189.956 127.728C189.956 126.734 190.194 125.849 190.669 125.071C191.144 124.294 191.781 123.679 192.581 123.225C193.401 122.75 194.287 122.513 195.238 122.513C196.231 122.513 197.128 122.75 197.927 123.225C198.726 123.7 199.363 124.327 199.839 125.104C200.314 125.881 200.552 126.756 200.552 127.728C200.552 128.678 200.314 129.541 199.839 130.319C199.363 131.096 198.715 131.722 197.895 132.197C197.095 132.672 196.21 132.91 195.238 132.91ZM195.238 129.639C195.799 129.639 196.264 129.466 196.631 129.12C196.998 128.753 197.182 128.289 197.182 127.728C197.182 127.144 196.998 126.669 196.631 126.302C196.264 125.935 195.799 125.752 195.238 125.752C194.698 125.752 194.244 125.935 193.877 126.302C193.531 126.669 193.358 127.144 193.358 127.728C193.358 128.289 193.531 128.753 193.877 129.12C194.244 129.466 194.698 129.639 195.238 129.639ZM207.907 144.83C206.935 144.83 206.049 144.603 205.25 144.15C204.451 143.674 203.803 143.048 203.306 142.271C202.83 141.494 202.593 140.619 202.593 139.647C202.593 138.676 202.83 137.801 203.306 137.024C203.803 136.225 204.451 135.598 205.25 135.145C206.049 134.691 206.935 134.465 207.907 134.465C208.879 134.465 209.764 134.691 210.564 135.145C211.385 135.598 212.033 136.225 212.508 137.024C212.983 137.823 213.221 138.697 213.221 139.647C213.221 140.619 212.972 141.494 212.475 142.271C212 143.048 211.363 143.674 210.564 144.15C209.764 144.603 208.879 144.83 207.907 144.83ZM207.907 141.591C208.447 141.591 208.9 141.418 209.268 141.072C209.635 140.705 209.818 140.23 209.818 139.647C209.818 139.064 209.635 138.6 209.268 138.254C208.9 137.887 208.447 137.704 207.907 137.704C207.345 137.704 206.881 137.887 206.513 138.254C206.168 138.6 205.995 139.064 205.995 139.647C205.995 140.23 206.168 140.705 206.513 141.072C206.881 141.418 207.345 141.591 207.907 141.591Z" fill="#967B3F"/>
<path d="M167.277 183.31L154.511 166.272L156.455 165.722V183.31H152.21V161.252H156.001L168.476 177.901L166.824 178.127V161.252H171.068V183.31H167.277Z" fill="#967B3F"/>
<path d="M178.449 174.273V170.224H187.457V174.273H178.449ZM178.352 165.268L179.712 163.649V180.751L178.19 179.261H189.303V183.31H175.468V161.252H189.303V165.268H178.352Z" fill="#967B3F"/>
<path d="M191.637 183.31L195.59 161.252H199.381L204.922 176.67H204.792L210.333 161.252H214.124L218.077 183.31H213.767L212.18 173.236C211.942 171.876 211.737 170.515 211.564 169.155C211.413 167.773 211.294 166.402 211.208 165.041H212.374C212.007 166.575 211.64 167.989 211.273 169.285C210.927 170.559 210.516 171.865 210.041 173.204L206.509 183.018H203.204L199.673 173.204C199.197 171.865 198.776 170.559 198.409 169.285C198.042 167.989 197.685 166.575 197.34 165.041H198.474C198.409 166.402 198.29 167.773 198.117 169.155C197.966 170.515 197.772 171.876 197.534 173.236L195.946 183.31H191.637Z" fill="#967B3F"/>
<path d="M134.286 222.178V202.42H138.563V222.178H134.286ZM127.643 204.169V200.12H145.4V204.169H127.643Z" fill="#967B3F"/>
<path d="M156.655 222.567C154.819 222.567 153.242 222.222 151.924 221.531C150.606 220.818 149.591 219.782 148.878 218.421C148.166 217.039 147.809 215.333 147.809 213.303V200.12H152.086V213.206C152.086 214.869 152.475 216.165 153.253 217.093C154.03 218 155.164 218.454 156.655 218.454C158.167 218.454 159.312 218 160.089 217.093C160.867 216.165 161.256 214.869 161.256 213.206V200.12H165.501V213.303C165.501 215.333 165.144 217.039 164.431 218.421C163.74 219.782 162.736 220.818 161.418 221.531C160.1 222.222 158.513 222.567 156.655 222.567Z" fill="#967B3F"/>
<path d="M169.772 222.178V200.12H177.354C179.579 200.12 181.512 200.563 183.154 201.448C184.817 202.334 186.103 203.597 187.01 205.238C187.939 206.879 188.403 208.855 188.403 211.166C188.403 213.498 187.939 215.484 187.01 217.126C186.103 218.767 184.817 220.019 183.154 220.883C181.491 221.747 179.547 222.178 177.322 222.178H169.772ZM174.017 219.555L172.429 218.13H177.03C178.391 218.13 179.59 217.881 180.627 217.385C181.685 216.888 182.517 216.132 183.122 215.117C183.727 214.102 184.029 212.785 184.029 211.166C184.029 209.611 183.727 208.315 183.122 207.279C182.538 206.242 181.718 205.465 180.659 204.947C179.622 204.428 178.423 204.169 177.063 204.169H172.202L174.017 202.874V219.555Z" fill="#967B3F"/>
<path d="M190.148 211.166C190.148 209.503 190.429 207.981 190.991 206.599C191.552 205.195 192.341 203.986 193.356 202.971C194.371 201.956 195.57 201.168 196.953 200.606C198.357 200.045 199.89 199.764 201.554 199.764C203.195 199.764 204.707 200.045 206.09 200.606C207.472 201.168 208.671 201.956 209.687 202.971C210.702 203.986 211.49 205.195 212.052 206.599C212.614 207.981 212.894 209.503 212.894 211.166C212.894 212.807 212.614 214.329 212.052 215.733C211.49 217.115 210.702 218.324 209.687 219.36C208.671 220.375 207.472 221.164 206.09 221.725C204.707 222.286 203.195 222.567 201.554 222.567C199.89 222.567 198.357 222.286 196.953 221.725C195.57 221.164 194.371 220.375 193.356 219.36C192.341 218.324 191.552 217.115 190.991 215.733C190.429 214.329 190.148 212.807 190.148 211.166ZM194.49 211.166C194.49 212.591 194.792 213.854 195.397 214.955C196.002 216.035 196.834 216.877 197.892 217.482C198.972 218.086 200.193 218.389 201.554 218.389C202.915 218.389 204.113 218.086 205.15 217.482C206.209 216.877 207.04 216.035 207.645 214.955C208.25 213.854 208.553 212.591 208.553 211.166C208.553 209.719 208.25 208.456 207.645 207.376C207.04 206.275 206.209 205.422 205.15 204.817C204.113 204.212 202.915 203.91 201.554 203.91C200.193 203.91 198.972 204.223 197.892 204.849C196.834 205.454 196.002 206.296 195.397 207.376C194.792 208.456 194.49 209.719 194.49 211.166Z" fill="#967B3F"/>
<path d="M214.325 222.178L218.278 200.12H222.069L227.609 215.538H227.48L233.021 200.12H236.812L240.765 222.178H236.455L234.868 212.105C234.63 210.745 234.425 209.384 234.252 208.024C234.101 206.642 233.982 205.271 233.895 203.91H235.062C234.695 205.443 234.327 206.858 233.96 208.153C233.615 209.427 233.204 210.734 232.729 212.073L229.197 221.887H225.892L222.36 212.073C221.885 210.734 221.464 209.427 221.097 208.153C220.729 206.858 220.373 205.443 220.027 203.91H221.161C221.097 205.271 220.978 206.642 220.805 208.024C220.654 209.384 220.459 210.745 220.222 212.105L218.634 222.178H214.325Z" fill="#967B3F"/>
</svg>
