<svg width="1174" height="323" viewBox="0 0 1174 323" fill="none" xmlns="http://www.w3.org/2000/svg">
<path d="M366.011 231.089C356.241 231.089 346.968 226.777 340.671 219.307C334.375 211.836 331.695 201.967 333.35 192.338C340.79 149.033 352.327 81.8805 356.404 58.1515C357.264 53.1465 361.604 49.4885 366.682 49.4885C366.987 49.4885 367.298 49.4885 367.613 49.4885C387.62 49.4885 405.235 62.6695 410.881 81.8625C417.28 103.621 425.476 131.486 430.739 149.382C431.459 151.829 433.688 153.524 436.239 153.563C438.79 153.603 441.07 151.978 441.865 149.554C448.935 128.003 460.806 91.8155 468.17 69.3705C472.061 57.5085 483.132 49.4885 495.616 49.4885C496.562 49.4885 497.509 49.4885 498.45 49.4885C509.687 49.4885 519.293 57.5735 521.211 68.6445C526.942 101.716 538.686 169.491 545.042 206.177C546.114 212.364 544.399 218.708 540.356 223.511C536.313 228.315 530.355 231.089 524.077 231.089C521.374 231.089 518.698 231.089 516.189 231.089C507.988 231.089 501.036 225.053 499.884 216.932C496.727 194.679 490.959 154.021 490.959 154.021C489.714 144.421 488.47 134.778 487.225 125.089C485.981 115.399 484.736 105.667 483.492 95.8885H497.359C494.87 105.311 492.514 114.822 490.292 124.422C488.07 134.022 485.448 143.532 482.425 152.955C482.425 152.955 469.261 192.862 461.912 215.142C459.035 223.863 450.888 229.755 441.705 229.755C440.607 229.755 439.492 229.755 438.376 229.755C426.787 229.755 416.506 222.321 412.876 211.316C405.381 188.593 393.625 152.955 393.625 152.955C390.425 143.532 387.714 134.022 385.492 124.422C383.27 114.822 380.914 105.311 378.425 95.8885H392.559C391.314 105.667 390.114 115.399 388.959 125.089C387.803 134.778 386.514 144.421 385.092 154.021C385.092 154.021 378.106 203.263 375.303 223.025C374.646 227.651 370.686 231.089 366.014 231.089H366.011Z" fill="white"/>
<path fill-rule="evenodd" clip-rule="evenodd" d="M669.265 204.195C672.65 205.758 674.873 209.084 675.023 212.809C675.172 216.533 673.222 220.028 669.974 221.856C669.992 221.889 669.992 221.889 669.992 221.889C659.414 227.845 647.153 230.822 633.209 230.822C619.45 230.822 607.319 227.845 596.815 221.889C586.311 215.933 578.081 207.756 572.125 197.356C566.17 186.956 563.192 175.132 563.192 161.885C563.192 148.465 566.17 136.556 572.125 126.156C578.081 115.756 586.311 107.578 596.815 101.622C603.127 98.0425 610.027 95.5395 617.514 94.1115C620.268 93.5815 623.097 94.5346 624.969 96.6226C626.84 98.7096 627.48 101.627 626.655 104.306C624.352 112.256 623.192 120.788 623.192 129.909C623.192 145.612 626.722 159.627 633.781 171.955C640.841 184.282 650.596 193.976 663.047 201.035C665.069 202.182 667.142 203.235 669.265 204.195Z" fill="white"/>
<path d="M718.209 193.822C704.45 193.822 692.319 190.845 681.815 184.889C671.311 178.933 663.081 170.755 657.125 160.355C651.17 149.955 648.192 138.132 648.192 124.885C648.192 111.465 651.17 99.5555 657.125 89.1555C663.081 78.7555 671.311 70.5775 681.815 64.6215C692.319 58.6665 704.45 55.6885 718.209 55.6885C732.153 55.6885 744.414 58.6665 754.992 64.6215C765.57 70.5775 773.792 78.7555 779.659 89.1555C785.525 99.5555 788.459 111.465 788.459 124.885C788.459 138.132 785.525 149.955 779.659 160.355C773.792 170.755 765.57 178.933 754.992 184.889C744.414 190.845 732.153 193.822 718.209 193.822ZM718.259 146.621C724.348 146.621 729.436 144.587 733.525 140.516C737.614 136.445 739.659 131.135 739.659 124.589C739.659 117.944 737.614 112.621 733.525 108.621C729.436 104.621 724.348 102.621 718.259 102.621C712.259 102.621 707.259 104.631 703.259 108.649C699.259 112.667 697.259 117.956 697.259 124.517C697.259 131.075 699.259 136.4 703.259 140.489C707.259 144.578 712.259 146.621 718.259 146.621Z" fill="white"/>
<path d="M890.825 94.6885C899.358 94.6885 906.425 96.1555 912.025 99.0885C917.625 102.022 922.025 105.977 925.225 110.955C928.425 115.932 930.647 121.621 931.892 128.021C933.136 134.421 933.758 141.088 933.758 148.021V186.385C933.758 209.97 914.639 229.089 891.054 229.089H891.052C889.577 229.089 888.163 228.502 887.12 227.46C886.077 226.417 885.492 225.003 885.492 223.528V156.288C885.492 150.244 884.736 146.333 883.225 144.556C881.714 142.778 879.181 141.889 875.625 141.889C873.314 141.889 870.869 142.289 868.292 143.089C865.714 143.889 862.958 145.133 860.025 146.822C859.068 147.374 858.087 147.967 857.082 148.604C853.048 151.127 850.7 155.639 850.95 160.391C851.796 176.595 853.817 214.998 854.399 226.059C854.44 226.847 854.156 227.619 853.613 228.192C853.069 228.765 852.314 229.089 851.525 229.089H851.524C826.543 229.089 806.292 208.837 806.292 183.856C806.292 156.749 806.292 124.527 806.292 108.507C806.292 102.937 810.807 98.4215 816.378 98.4215C816.674 98.4215 816.973 98.4215 817.276 98.4215C831.921 98.4215 844.949 107.727 849.699 121.58C850.687 124.462 851.358 126.422 851.358 126.422L832.958 124.021C837.225 119.221 842.336 114.6 848.292 110.156C854.247 105.711 860.825 102.022 868.025 99.0885C875.225 96.1555 882.825 94.6885 890.825 94.6885Z" fill="white"/>
<path d="M997.725 231.422C989.725 231.422 982.214 229.955 975.192 227.021C968.169 224.088 962.481 219.245 958.125 212.489C953.769 205.733 951.592 196.488 951.592 184.755V64.1245C951.592 55.4885 958.592 48.4885 967.228 48.4885C985.249 48.4885 999.858 63.0975 999.858 81.1185V167.688C999.858 174.977 1000.88 179.51 1002.92 181.288C1003.6 181.879 1004.39 182.372 1005.27 182.766C1009.28 184.549 1011.86 188.522 1011.86 192.906C1011.86 202.118 1011.86 216.244 1011.86 224.423C1011.86 228.137 1008.9 231.179 1005.19 231.288C1002.17 231.377 999.681 231.422 997.725 231.422Z" fill="white"/>
<path d="M1076.76 227.288C1076.76 227.288 1044.21 150.089 1030.1 116.61C1028.67 113.232 1029.03 109.367 1031.06 106.312C1033.09 103.258 1036.51 101.422 1040.17 101.422C1045.53 101.422 1051.44 101.422 1056.69 101.422C1065.94 101.422 1074.29 106.965 1077.88 115.489C1091.68 148.226 1124.76 226.755 1124.76 226.755L1076.76 227.288ZM1064.28 282.755C1061.89 282.755 1059.66 281.561 1058.34 279.572C1057.01 277.583 1056.77 275.063 1057.69 272.858C1070.21 242.891 1107.76 152.988 1122.88 116.78C1126.76 107.479 1135.86 101.422 1145.94 101.422C1152.87 101.422 1160.72 101.422 1166.87 101.422C1169.25 101.422 1171.47 102.612 1172.79 104.595C1174.11 106.578 1174.36 109.089 1173.44 111.287C1160.94 141.222 1123.37 231.177 1108.24 267.397C1104.35 276.698 1095.26 282.755 1085.18 282.755C1078.26 282.755 1070.42 282.755 1064.28 282.755Z" fill="white"/>
<path fill-rule="evenodd" clip-rule="evenodd" d="M60.1288 148.724L81.2181 129.784L78.212 101.535C74.8671 86.1446 81.4063 70.0899 94.7096 61.4437C108.229 52.6575 125.859 53.3983 138.571 63.0513L162.547 76.926L188.476 65.3305C205.856 55.2396 228.578 60.512 239.636 77.5262C246.07 87.4267 247.541 99.7651 243.672 110.864C242.625 114.611 238.497 129.691 238.241 135.398C238.201 136.212 238.297 137.639 238.364 138.384L256.608 158.569C259.351 160.903 261.744 163.641 263.715 166.674C275.123 184.227 270.067 208.056 252.514 219.465C246.17 223.587 238.76 225.732 231.228 225.634L203.231 228.521L189.208 252.943C186.235 259.825 181.281 265.717 174.968 269.82C157.415 281.228 133.601 276.162 122.193 258.608C120.241 255.606 118.716 252.349 117.676 248.929L106.391 223.477L79.1716 217.755C67.4731 216.773 56.8204 210.424 50.3858 200.524C39.2979 183.463 43.7635 160.477 60.1288 148.724ZM85.9638 178.737L115.215 184.89C127.212 187.409 137.298 195.549 142.261 206.757L154.395 234.088L169.275 208.188C175.369 197.547 186.24 190.482 198.438 189.234L228.19 186.149L208.106 163.941C200.603 155.632 198.221 144.215 198.685 133.642C199.017 126.199 203.879 106.788 205.325 101.162L178.059 113.363C166.897 118.362 153.962 117.701 143.358 111.562L117.49 96.5953L120.662 126.312C121.966 138.496 117.317 150.584 108.216 158.755L85.9638 178.737Z" fill="white"/>
<path d="M343.98 285.836H353.004C355.82 285.836 358.081 285.068 359.788 283.532C361.494 281.996 362.348 279.862 362.348 277.132C362.348 274.23 361.494 272.054 359.788 270.604C358.124 269.11 355.884 268.364 353.068 268.364H343.98L345.132 266.892V305.932H338.732V262.348H354.156C357.142 262.348 359.745 263.009 361.964 264.332C364.182 265.654 365.91 267.425 367.148 269.644C368.385 271.862 369.004 274.358 369.004 277.132C369.004 279.862 368.385 282.358 367.148 284.62C365.91 286.838 364.161 288.609 361.9 289.932C359.681 291.212 357.078 291.852 354.092 291.852H343.98V285.836ZM387.237 305.932V262.348H403.237C406.223 262.348 408.826 262.988 411.045 264.268C413.306 265.505 415.055 267.19 416.293 269.324C417.53 271.457 418.149 273.846 418.149 276.492C418.149 279.137 417.53 281.526 416.293 283.66C415.055 285.793 413.306 287.478 411.045 288.716C408.826 289.953 406.223 290.572 403.237 290.572H392.485V284.556H402.149C404.965 284.556 407.226 283.852 408.933 282.444C410.639 280.993 411.493 279.009 411.493 276.492C411.493 273.804 410.639 271.777 408.933 270.412C407.226 269.046 404.965 268.364 402.149 268.364H392.421L393.637 266.892V305.932H387.237ZM411.557 305.932L401.381 287.82H408.421L418.597 305.932H411.557ZM434.909 284.172C434.909 280.929 435.464 277.942 436.573 275.212C437.725 272.481 439.325 270.113 441.373 268.108C443.421 266.102 445.81 264.545 448.541 263.436C451.314 262.326 454.322 261.772 457.565 261.772C460.765 261.772 463.73 262.326 466.461 263.436C469.192 264.545 471.56 266.102 473.565 268.108C475.613 270.113 477.192 272.481 478.301 275.212C479.453 277.942 480.029 280.929 480.029 284.172C480.029 287.372 479.453 290.337 478.301 293.068C477.192 295.798 475.613 298.188 473.565 300.236C471.56 302.241 469.192 303.798 466.461 304.908C463.73 306.017 460.765 306.572 457.565 306.572C454.322 306.572 451.314 306.017 448.541 304.908C445.81 303.798 443.421 302.241 441.373 300.236C439.325 298.188 437.725 295.798 436.573 293.068C435.464 290.337 434.909 287.372 434.909 284.172ZM441.437 284.172C441.437 287.286 442.141 290.081 443.549 292.556C444.957 294.988 446.877 296.908 449.309 298.316C451.741 299.724 454.493 300.428 457.565 300.428C460.637 300.428 463.368 299.724 465.757 298.316C468.146 296.908 470.024 294.988 471.389 292.556C472.797 290.081 473.501 287.286 473.501 284.172C473.501 281.014 472.797 278.22 471.389 275.788C470.024 273.356 468.146 271.436 465.757 270.028C463.368 268.62 460.637 267.916 457.565 267.916C454.493 267.916 451.741 268.62 449.309 270.028C446.877 271.436 444.957 273.356 443.549 275.788C442.141 278.22 441.437 281.014 441.437 284.172ZM507.429 300.876C509.519 300.876 511.098 300.257 512.165 299.02C513.274 297.74 513.829 296.012 513.829 293.836V262.348H520.357V293.836C520.357 296.438 519.823 298.721 518.757 300.684C517.69 302.646 516.175 304.182 514.213 305.292C512.293 306.358 510.053 306.892 507.493 306.892C504.89 306.892 502.607 306.401 500.645 305.42C498.725 304.438 497.231 302.988 496.165 301.068C495.098 299.148 494.565 296.801 494.565 294.028V291.404H501.093V293.644C501.093 296.161 501.647 297.996 502.757 299.148C503.866 300.3 505.423 300.876 507.429 300.876ZM546.934 287.052V281.036H564.534V287.052H546.934ZM546.742 268.364L548.214 266.316V300.876L546.422 299.852H568.31V305.932H541.814V262.348H568.31V268.364H546.742ZM606.627 306.572C602.233 306.572 598.371 305.612 595.043 303.692C591.758 301.729 589.198 299.062 587.363 295.692C585.529 292.278 584.611 288.438 584.611 284.172C584.611 280.929 585.166 277.942 586.275 275.212C587.385 272.481 588.921 270.113 590.883 268.108C592.889 266.102 595.214 264.545 597.859 263.436C600.547 262.326 603.47 261.772 606.627 261.772C611.577 261.772 615.63 262.796 618.787 264.844C621.945 266.849 624.526 269.558 626.532 272.972L620.259 274.828C618.297 272.14 616.185 270.326 613.924 269.388C611.705 268.406 609.273 267.916 606.627 267.916C603.683 267.916 601.038 268.62 598.691 270.028C596.387 271.436 594.553 273.356 593.187 275.788C591.822 278.22 591.139 281.014 591.139 284.172C591.139 287.286 591.822 290.081 593.187 292.556C594.553 294.988 596.387 296.908 598.691 298.316C601.038 299.724 603.683 300.428 606.627 300.428C609.273 300.428 611.705 299.958 613.924 299.02C616.185 298.038 618.297 296.204 620.259 293.516L626.532 295.372C624.526 298.785 621.945 301.516 618.787 303.564C615.63 305.569 611.577 306.572 606.627 306.572ZM652.656 305.932V267.148H659.056V305.932H652.656ZM639.024 268.364V262.348H673.328V268.364H639.024Z" fill="white"/>
</svg>
