<svg width="226" height="221" viewBox="0 0 226 221" fill="none" xmlns="http://www.w3.org/2000/svg">
<path fill-rule="evenodd" clip-rule="evenodd" d="M15.848 93.4196L36.9374 74.4787L33.9312 46.2307C30.5863 30.8398 37.1255 14.785 50.4289 6.13891C63.9478 -2.64733 81.578 -1.90653 94.2907 7.74649L118.267 21.6212L144.196 10.0257C161.575 -0.0651999 184.297 5.2072 195.355 22.2214C201.79 32.1219 203.26 44.4603 199.392 55.5597C198.344 59.3064 194.216 74.3859 193.961 80.0928C193.921 80.9073 194.016 82.3346 194.084 83.079L212.327 103.264C215.071 105.598 217.463 108.336 219.435 111.369C230.843 128.922 225.786 152.752 208.233 164.16C201.89 168.283 194.479 170.427 186.947 170.329L158.95 173.216L144.927 197.638C141.954 204.521 137 210.412 130.687 214.515C113.134 225.923 89.3202 220.857 77.9121 203.304C75.9607 200.301 74.435 197.044 73.3951 193.624L62.1099 168.172L34.8908 162.45C23.1923 161.468 12.5396 155.119 6.10503 145.219C-4.98284 128.158 -0.51723 105.173 15.848 93.4196ZM41.683 123.432L70.9345 129.585C82.9308 132.104 93.0176 140.244 97.9802 151.452L110.114 178.783L124.995 152.883C131.089 142.243 141.959 135.178 154.157 133.93L183.909 130.844L163.825 108.636C156.323 100.328 153.94 88.9106 154.405 78.3368C154.736 70.894 159.598 51.4834 161.044 45.8567L133.779 58.058C122.616 63.0567 109.681 62.3963 99.0771 56.2569L73.2089 41.2905L76.3813 71.0074C77.6855 83.191 73.0365 95.2796 63.9357 103.45L41.683 123.432Z" fill="#F1C768"/>
</svg>
